STARTFONT 2.1
COMMENT
COMMENT Converted from OpenType font "UbuntuMono-Bold.ttf" by "otf2bdf 3.0".
COMMENT
FONT -FreeType-Ubuntu Mono-Bold-R-Normal--77-560-100-100-P-344-ISO10646-1
SIZE 56 100 100
FONTBOUNDINGBOX 82 78 -30 -13
STARTPROPERTIES 19
FOUNDRY "FreeType"
FAMILY_NAME "Ubuntu Mono"
WEIGHT_NAME "Bold"
SLANT "R"
SETWIDTH_NAME "Normal"
ADD_STYLE_NAME ""
PIXEL_SIZE 77
POINT_SIZE 560
RESOLUTION_X 100
RESOLUTION_Y 100
SPACING "P"
AVERAGE_WIDTH 344
CHARSET_REGISTRY "ISO10646"
CHARSET_ENCODING "1"
FONT_ASCENT 64
FONT_DESCENT 13
COPYRIGHT "Copyright 2011 Canonical Ltd.  Licensed under the Ubuntu Font Licence 1.0"
_OTF_FONTFILE "UbuntuMono-Bold.ttf"
_OTF_PSNAME "UbuntuMono-Bold"
ENDPROPERTIES
CHARS 1224
STARTCHAR 0000
ENCODING 0
SWIDTH 488 0
DWIDTH 38 0
BBX 0 0 0 0
BITMAP
ENDCHAR
STARTCHAR 0008
ENCODING 8
SWIDTH 488 0
DWIDTH 38 0
BBX 0 0 0 0
BITMAP
ENDCHAR
STARTCHAR 0009
ENCODING 9
SWIDTH 488 0
DWIDTH 38 0
BBX 0 0 0 0
BITMAP
ENDCHAR
STARTCHAR 000D
ENCODING 13
SWIDTH 488 0
DWIDTH 38 0
BBX 0 0 0 0
BITMAP
ENDCHAR
STARTCHAR 001D
ENCODING 29
SWIDTH 488 0
DWIDTH 38 0
BBX 0 0 0 0
BITMAP
ENDCHAR
STARTCHAR 0020
ENCODING 32
SWIDTH 488 0
DWIDTH 38 0
BBX 0 0 0 0
BITMAP
ENDCHAR
STARTCHAR 0021
ENCODING 33
SWIDTH 488 0
DWIDTH 38 0
BBX 13 49 13 -1
BITMAP
7FF0
7FF0
7FF0
7FF0
7FF0
7FF0
7FF0
7FF0
7FF0
7FF0
7FF0
7FF0
7FF0
7FF0
7FF0
7FF0
7FF0
7FF0
7FF0
7FF0
7FF0
7FF0
7FE0
3FE0
3FE0
3FE0
3FE0
3FE0
3FE0
3FE0
1FC0
0000
0000
0000
0000
0000
0F80
3FE0
7FF0
7FF0
FFF8
FFF8
FFF8
FFF8
FFF8
7FF0
7FF0
3FE0
0F80
ENDCHAR
STARTCHAR 0022
ENCODING 34
SWIDTH 488 0
DWIDTH 38 0
BBX 25 22 7 31
BITMAP
FFC1FF80
FFC1FF80
FFC1FF80
FFC1FF80
FFC1FF80
FFC1FF80
FFC1FF80
FFC1FF80
FFC1FF80
FFC1FF80
FFC0FF80
FF80FF80
7F80FF80
7F80FF00
7F80FF00
7F80FF00
7F80FF00
7F007F00
7F007F00
3F007E00
3F007E00
3F007E00
ENDCHAR
STARTCHAR 0023
ENCODING 35
SWIDTH 488 0
DWIDTH 38 0
BBX 37 48 1 0
BITMAP
000FF03FC0
000FF03FC0
001FE03FC0
001FE07F80
001FE07F80
001FE07F80
001FE07F80
001FC07F80
003FC0FF00
003FC0FF00
003FC0FF00
003FC0FF00
FFFFFFFFF8
FFFFFFFFF8
FFFFFFFFF8
FFFFFFFFF8
FFFFFFFFF8
FFFFFFFFF8
FFFFFFFFF8
FFFFFFFFF8
00FF03FC00
00FF03FC00
00FF03FC00
01FE03F800
01FE07F800
01FE07F800
01FE07F800
01FE07F800
FFFFFFFFF8
FFFFFFFFF8
FFFFFFFFF8
FFFFFFFFF8
FFFFFFFFF8
FFFFFFFFF8
FFFFFFFFF8
FFFFFFFFF8
07F81FE000
07F81FE000
07F01FE000
0FF03FC000
0FF03FC000
0FF03FC000
0FF03FC000
0FF03FC000
1FE03FC000
1FE07F8000
1FE07F8000
1FE07F8000
ENDCHAR
STARTCHAR 0024
ENCODING 36
SWIDTH 488 0
DWIDTH 38 0
BBX 33 62 3 -8
BITMAP
000FF80000
000FF80000
000FF80000
000FF80000
000FF80000
000FF80000
000FF80000
000FFE0000
007FFFF000
01FFFFFE00
03FFFFFE00
07FFFFFE00
0FFFFFFE00
1FFFFFFE00
3FFFFFFC00
3FFF07FC00
3FF8003C00
7FF0000400
7FE0000000
7FE0000000
7FE0000000
7FF0000000
7FF0000000
7FFC000000
3FFF000000
3FFFE00000
1FFFF80000
1FFFFE0000
0FFFFF8000
07FFFFE000
01FFFFF800
007FFFFC00
001FFFFE00
0003FFFE00
0000FFFF00
00001FFF00
000007FF80
000003FF80
000001FF80
000001FF80
000001FF80
000001FF80
200001FF80
3C0003FF80
3F8007FF80
7FFFFFFF00
7FFFFFFF00
7FFFFFFE00
FFFFFFFE00
FFFFFFFC00
7FFFFFF000
1FFFFFE000
01FFFF0000
000FF80000
000FF80000
000FF80000
000FF80000
000FF80000
000FF80000
000FF80000
000FF80000
000FF80000
ENDCHAR
STARTCHAR 0025
ENCODING 37
SWIDTH 488 0
DWIDTH 38 0
BBX 38 50 0 -1
BITMAP
03F8000000
0FFE0001FC
1FFF0001FC
1FFF0003F8
3FFF8007F0
3FFF8007F0
7F1FC00FE0
7E1FC01FC0
7E0FC01FC0
7E0FC03F80
7E0FC07F00
7E0FC07F00
7E0FC0FE00
7E0FC1FC00
7E0FC1FC00
7E0FC3F800
7F1FC3F000
7FBFC7F000
3FFF8FE000
3FFF8FC000
1FFF1FC000
0FFE3F8000
07FC3F8000
01F07F0000
0000FE0000
0000FE0000
0001FC3F80
0003F8FFC0
0003F9FFE0
0007F1FFF0
000FE3FFF8
000FE3FFF8
001FC7F3F8
003F87E1FC
003F87E0FC
007F07E0FC
00FE07E0FC
00FE07E0FC
01FC07E0FC
03F807E0FC
03F807E0FC
07F007E1FC
0FE007E1FC
0FE007F3F8
1FC003FFF8
3F8003FFF8
3F8001FFF0
7F0001FFE0
FE0000FFC0
0000003F00
ENDCHAR
STARTCHAR 0026
ENCODING 38
SWIDTH 488 0
DWIDTH 38 0
BBX 35 50 2 -1
BITMAP
001FF00000
007FFC0000
01FFFE0000
03FFFF0000
07FFFF8000
07FFFFC000
0FFFFFC000
0FF83FE000
1FF01FE000
1FF01FE000
1FE01FE000
1FE01FE000
1FE01FE000
1FE03FE000
1FF03FE000
1FF07FC000
0FF07FC000
0FF8FF8000
0FFDFF8000
07FFFF0000
07FFFE0000
03FFFC0000
01FFF02000
01FFE03FC0
03FFC03FC0
07FFE03FC0
0FFFF03FC0
1FFFF87F80
3FFFFC7F80
7FEFFE7F80
7FC7FE7F80
FF83FF7F80
FF01FFFF00
FF00FFFF00
FF007FFF00
FF003FFE00
FF003FFE00
FF001FFC00
FF000FFC00
FF800FFE00
FF801FFE00
7FC03FFF00
7FFFFFFF80
7FFFFFFF80
3FFFFFFFC0
1FFFFF7FC0
0FFFFE7FE0
07FFF83FE0
01FFE03FE0
000E000000
ENDCHAR
STARTCHAR 0027
ENCODING 39
SWIDTH 488 0
DWIDTH 38 0
BBX 11 23 14 30
BITMAP
FFE0
FFE0
FFE0
FFE0
FFE0
FFE0
FFE0
7FE0
7FE0
7FC0
7FC0
7FC0
7FC0
7FC0
7FC0
7FC0
3FC0
3F80
3F80
3F80
3F80
3F80
1F80
ENDCHAR
STARTCHAR 0028
ENCODING 40
SWIDTH 488 0
DWIDTH 38 0
BBX 25 68 7 -13
BITMAP
00000C00
00003C00
00007E00
0001FF00
0003FF80
0007FF80
000FFF00
001FFE00
003FF800
007FF000
00FFE000
01FFC000
01FF8000
03FF0000
07FE0000
07FE0000
0FFC0000
0FF80000
1FF80000
1FF00000
1FF00000
3FE00000
3FE00000
3FE00000
7FC00000
7FC00000
7FC00000
7FC00000
7FC00000
7F800000
FF800000
FF800000
FF800000
FF800000
FF800000
FF800000
FF800000
FF800000
FF800000
7F800000
7FC00000
7FC00000
7FC00000
7FC00000
3FE00000
3FE00000
3FE00000
3FF00000
1FF00000
1FF80000
0FF80000
0FFC0000
07FC0000
07FE0000
03FF0000
03FF8000
01FFC000
00FFE000
00FFF000
007FF800
003FFC00
001FFF00
000FFF80
0003FF00
0001FE00
0000FE00
00003C00
00001800
ENDCHAR
STARTCHAR 0029
ENCODING 41
SWIDTH 488 0
DWIDTH 38 0
BBX 25 68 7 -13
BITMAP
18000000
1E000000
3F000000
7FC00000
FFE00000
FFF00000
7FF80000
3FFC0000
0FFE0000
07FF0000
03FF8000
01FFC000
00FFC000
007FE000
003FF000
003FF000
001FF800
000FF800
000FFC00
0007FC00
0007FC00
0003FE00
0003FE00
0003FE00
0001FF00
0001FF00
0001FF00
0001FF00
0001FF00
0000FF00
0000FF80
0000FF80
0000FF80
0000FF80
0000FF80
0000FF80
0000FF80
0000FF80
0000FF80
0000FF00
0001FF00
0001FF00
0001FF00
0001FF00
0003FF00
0003FE00
0003FE00
0007FE00
0007FC00
000FFC00
000FF800
001FF800
001FF000
003FF000
007FE000
00FFE000
01FFC000
03FF8000
07FF0000
0FFF0000
1FFE0000
7FFC0000
FFF80000
7FE00000
3FC00000
3F800000
1E000000
0C000000
ENDCHAR
STARTCHAR 002A
ENCODING 42
SWIDTH 488 0
DWIDTH 38 0
BBX 32 30 4 18
BITMAP
001FF000
001FF000
001FF000
001FF000
001FF000
001FF000
300FE008
3C0FE078
3F0FE1FC
7FCFE3FC
7FE7CFFC
7FFFDFFE
FFFFFFFE
FFFFFFFE
FFFFFFFF
3FFFFFFC
000FE000
003FF800
007FFC00
00FEFE00
01FEFF00
03FEFF80
07FC7FC0
0FFC7FE0
1FFC3FF0
0FF83FF0
07F83FC0
03F01F80
00F00E00
00600C00
ENDCHAR
STARTCHAR 002B
ENCODING 43
SWIDTH 488 0
DWIDTH 38 0
BBX 33 35 3 3
BITMAP
000FF80000
000FF80000
000FF80000
000FF80000
000FF80000
000FF80000
000FF80000
000FF80000
000FF80000
000FF80000
000FF80000
000FF80000
000FF80000
000FF80000
FFFFFFFF80
FFFFFFFF80
FFFFFFFF80
FFFFFFFF80
FFFFFFFF80
FFFFFFFF80
FFFFFFFF80
FFFFFFFF80
000FF80000
000FF80000
000FF80000
000FF80000
000FF80000
000FF80000
000FF80000
000FF80000
000FF80000
000FF80000
000FF80000
000FF80000
000FF80000
ENDCHAR
STARTCHAR 002C
ENCODING 44
SWIDTH 488 0
DWIDTH 38 0
BBX 17 25 10 -12
BITMAP
01F800
03FC00
07FE00
0FFF00
1FFF00
1FFF80
1FFF80
1FFF80
1FFF80
0FFF80
0FFF80
07FF80
03FF00
00FF00
007F00
00FE00
01FE00
07FC00
7FF800
FFF800
FFF000
FFC000
7F8000
7E0000
700000
ENDCHAR
STARTCHAR 002D
ENCODING 45
SWIDTH 488 0
DWIDTH 38 0
BBX 21 10 9 15
BITMAP
FFFFF8
FFFFF8
FFFFF8
FFFFF8
FFFFF8
FFFFF8
FFFFF8
FFFFF8
FFFFF8
FFFFF8
ENDCHAR
STARTCHAR 002E
ENCODING 46
SWIDTH 488 0
DWIDTH 38 0
BBX 13 14 13 -1
BITMAP
0F80
3FE0
7FF0
FFF8
FFF8
FFF8
FFF8
FFF8
FFF8
FFF8
FFF8
7FF0
3FE0
0F80
ENDCHAR
STARTCHAR 002F
ENCODING 47
SWIDTH 488 0
DWIDTH 38 0
BBX 31 67 4 -13
BITMAP
000007FE
000007FE
00000FFC
00000FFC
00000FFC
00000FF8
00001FF8
00001FF8
00001FF0
00003FF0
00003FF0
00003FE0
00007FE0
00007FE0
00007FC0
0000FFC0
0000FFC0
0000FF80
0001FF80
0001FF80
0001FF80
0003FF00
0003FF00
0003FF00
0007FE00
0007FE00
0007FE00
000FFC00
000FFC00
000FFC00
001FF800
001FF800
001FF800
003FF000
003FF000
003FF000
007FE000
007FE000
007FE000
007FC000
00FFC000
00FFC000
00FF8000
01FF8000
01FF8000
01FF0000
03FF0000
03FF0000
03FF0000
07FE0000
07FE0000
07FE0000
0FFC0000
0FFC0000
0FFC0000
1FF80000
1FF80000
1FF80000
3FF00000
3FF00000
3FF00000
7FE00000
7FE00000
7FE00000
FFC00000
FFC00000
FFC00000
ENDCHAR
STARTCHAR 0030
ENCODING 48
SWIDTH 488 0
DWIDTH 38 0
BBX 33 50 3 -1
BITMAP
001FFC0000
007FFF0000
01FFFFC000
03FFFFE000
07FFFFF000
0FFFFFF800
0FFFFFF800
1FFFFFFC00
1FFC1FFC00
3FF00FFE00
3FF007FE00
7FE003FE00
7FC001FF00
7FC001FF00
7FC001FF00
FF8000FF00
FF8000FF80
FF8000FF80
FF8000FF80
FF83E0FF80
FF87F0FF80
FF07F0FF80
FF0FF8FF80
FF0FF87F80
FF0FF87F80
FF0FF87F80
FF07F0FF80
FF07F0FF80
FF03E0FF80
FF8000FF80
FF8000FF80
FF8000FF80
FF8000FF80
FF8000FF80
FF8001FF00
7FC001FF00
7FC001FF00
7FC003FF00
7FE003FE00
3FF007FE00
3FF80FFE00
1FFE3FFC00
1FFFFFFC00
0FFFFFF800
0FFFFFF000
07FFFFF000
03FFFFE000
00FFFF8000
007FFF0000
000FF80000
ENDCHAR
STARTCHAR 0031
ENCODING 49
SWIDTH 488 0
DWIDTH 38 0
BBX 32 48 4 0
BITMAP
0001FC00
0003FC00
0007FC00
001FFC00
003FFC00
00FFFC00
01FFFC00
07FFFC00
1FFFFC00
7FFFFC00
FFFFFC00
FFFFFC00
7FFFFC00
7FF7FC00
3FC7FC00
3F07FC00
3C07FC00
1007FC00
0007FC00
0007FC00
0007FC00
0007FC00
0007FC00
0007FC00
0007FC00
0007FC00
0007FC00
0007FC00
0007FC00
0007FC00
0007FC00
0007FC00
0007FC00
0007FC00
0007FC00
0007FC00
0007FC00
0007FC00
0007FC00
0007FC00
3FFFFFFF
3FFFFFFF
3FFFFFFF
3FFFFFFF
3FFFFFFF
3FFFFFFF
3FFFFFFF
3FFFFFFF
ENDCHAR
STARTCHAR 0032
ENCODING 50
SWIDTH 488 0
DWIDTH 38 0
BBX 32 49 4 0
BITMAP
007FF000
03FFFE00
0FFFFF00
3FFFFFC0
7FFFFFE0
FFFFFFE0
FFFFFFF0
FFFFFFF8
7FE0FFF8
3F003FF8
3E001FF8
18000FFC
00000FFC
00000FFC
00000FFC
00000FFC
00000FF8
00001FF8
00003FF8
00003FF0
00007FF0
0000FFE0
0001FFE0
0003FFC0
0007FF80
000FFF00
001FFE00
003FFC00
007FF800
00FFF000
01FFE000
03FFC000
07FF8000
0FFF0000
0FFE0000
1FFC0000
1FF80000
3FF80000
3FF00000
7FF00000
7FE00000
7FFFFFFF
7FFFFFFF
FFFFFFFF
FFFFFFFF
FFFFFFFF
FFFFFFFF
FFFFFFFF
FFFFFFFF
ENDCHAR
STARTCHAR 0033
ENCODING 51
SWIDTH 488 0
DWIDTH 38 0
BBX 32 50 3 -1
BITMAP
007FF800
03FFFE00
0FFFFF80
3FFFFFC0
7FFFFFE0
3FFFFFF0
3FFFFFF8
1FFFFFF8
1FC07FF8
0E001FFC
08000FFC
00000FFC
00000FFC
00000FFC
00000FFC
00000FFC
00000FFC
00001FF8
00003FF8
0001FFF0
007FFFE0
007FFFC0
007FFF80
007FFFC0
007FFFE0
007FFFF0
007FFFF8
007FFFFC
00003FFE
00000FFE
000007FE
000003FF
000003FF
000003FF
000003FF
000003FF
000003FF
000003FF
000007FF
000007FE
38001FFE
3F807FFE
7FFFFFFC
7FFFFFFC
7FFFFFF8
7FFFFFF0
FFFFFFE0
7FFFFF80
0FFFFE00
00FFE000
ENDCHAR
STARTCHAR 0034
ENCODING 52
SWIDTH 488 0
DWIDTH 38 0
BBX 35 48 2 0
BITMAP
000007FC00
00000FFC00
00001FFC00
00003FFC00
00007FFC00
0000FFFC00
0001FFFC00
0003FFFC00
0003FFFC00
0007FFFC00
000FFFFC00
001FFFFC00
001FFFFC00
003FEFFC00
007FCFFC00
007F8FFC00
00FF8FFC00
01FF0FFC00
01FE0FFC00
03FE0FFC00
07FC0FFC00
07F80FFC00
0FF80FFC00
1FF00FFC00
1FF00FFC00
3FE00FFC00
3FC00FFC00
7FC00FFC00
7F800FFC00
FFFFFFFFE0
FFFFFFFFE0
FFFFFFFFE0
FFFFFFFFE0
FFFFFFFFE0
FFFFFFFFE0
FFFFFFFFE0
FFFFFFFFE0
00000FFC00
00000FFC00
00000FFC00
00000FFC00
00000FFC00
00000FFC00
00000FFC00
00000FFC00
00000FFC00
00000FFC00
00000FFC00
ENDCHAR
STARTCHAR 0035
ENCODING 53
SWIDTH 488 0
DWIDTH 38 0
BBX 32 49 3 -1
BITMAP
07FFFFFC
07FFFFFC
07FFFFFC
07FFFFFC
07FFFFFC
07FFFFFC
07FFFFFC
07FFFFFC
07F80000
07F80000
07F80000
07F80000
07F80000
07F80000
0FF80000
0FF80000
0FF80000
0FFC0000
0FFFF000
0FFFFE00
0FFFFF80
0FFFFFC0
0FFFFFE0
0FFFFFF0
1FFFFFF8
0007FFFC
00007FFC
00001FFE
00000FFE
000007FE
000007FF
000003FF
000003FF
000003FF
000003FF
000003FF
000003FF
000007FE
00000FFE
70001FFE
7F00FFFC
7FFFFFFC
7FFFFFF8
FFFFFFF0
FFFFFFE0
FFFFFFC0
FFFFFF00
3FFFFC00
01FFC000
ENDCHAR
STARTCHAR 0036
ENCODING 54
SWIDTH 488 0
DWIDTH 38 0
BBX 31 49 4 -1
BITMAP
00000FF8
0000FFF8
0003FFF8
000FFFF8
003FFFF8
007FFFF8
00FFFFF8
01FFFFF8
03FFFC00
07FFE000
0FFF8000
0FFF0000
1FFC0000
1FF80000
3FF80000
3FF00000
7FE00000
7FE3F000
7FFFFE00
7FFFFF80
FFFFFFE0
FFFFFFF0
FFFFFFF0
FFFFFFF8
FFFFFFFC
FFE03FFC
FF800FFE
FF8007FE
FF8007FE
FF8003FE
FF8003FE
FF8003FE
FF8003FE
FF8003FE
FF8003FE
FFC003FE
FFC007FE
7FE007FE
7FE00FFC
7FF01FFC
3FFC3FFC
3FFFFFF8
1FFFFFF8
1FFFFFF0
0FFFFFE0
07FFFFC0
01FFFF80
00FFFE00
001FF000
ENDCHAR
STARTCHAR 0037
ENCODING 55
SWIDTH 488 0
DWIDTH 38 0
BBX 31 48 4 0
BITMAP
FFFFFFFE
FFFFFFFE
FFFFFFFE
FFFFFFFE
FFFFFFFE
FFFFFFFE
FFFFFFFE
FFFFFFFE
00000FFC
00001FF8
00003FF8
00003FF0
00007FE0
00007FE0
0000FFC0
0000FFC0
0001FF80
0001FF80
0003FF00
0003FF00
0003FE00
0007FE00
0007FC00
000FFC00
000FFC00
000FF800
001FF800
001FF800
001FF000
003FF000
003FE000
003FE000
007FE000
007FE000
007FC000
00FFC000
00FFC000
00FFC000
00FF8000
01FF8000
01FF8000
01FF8000
01FF8000
01FF0000
01FF0000
03FF0000
03FF0000
03FF0000
ENDCHAR
STARTCHAR 0038
ENCODING 56
SWIDTH 488 0
DWIDTH 38 0
BBX 33 50 3 -1
BITMAP
001FFE0000
00FFFF8000
01FFFFE000
07FFFFF000
0FFFFFF800
0FFFFFFC00
1FFFFFFC00
3FFFFFFE00
3FF80FFE00
3FF007FE00
7FE003FF00
7FC003FF00
7FC001FF00
7FC001FF00
7FC001FE00
7FE003FE00
7FE003FE00
3FF007FE00
3FF807FC00
3FFE0FFC00
1FFF9FF800
0FFFFFF000
07FFFFE000
03FFFFC000
01FFFF8000
07FFFFE000
0FFFFFF000
1FFFFFF800
1FF0FFFC00
3FE03FFE00
7FE00FFF00
7FC007FF00
7FC001FF00
FF8001FF80
FF8000FF80
FF8000FF80
FF8000FF80
FF8000FF80
FF8001FF80
FFC001FF80
FFE003FF00
7FF80FFF00
7FFFFFFF00
3FFFFFFE00
3FFFFFFC00
1FFFFFF800
0FFFFFF000
03FFFFE000
00FFFF8000
001FF80000
ENDCHAR
STARTCHAR 0039
ENCODING 57
SWIDTH 488 0
DWIDTH 38 0
BBX 33 49 3 0
BITMAP
001FFC0000
00FFFF0000
01FFFFC000
03FFFFE000
07FFFFF000
0FFFFFF800
1FFFFFF800
1FFFFFFC00
3FF81FFC00
3FF00FFE00
7FE007FE00
7FE003FE00
7FC003FF00
7FC003FF00
7FC001FF00
FFC001FF00
FFC001FF00
7FC001FF00
7FC001FF00
7FC001FF80
7FE001FF80
7FF001FF80
3FF803FF00
3FFFFFFF00
3FFFFFFF00
1FFFFFFF00
0FFFFFFF00
07FFFFFF00
03FFFFFF00
01FFFFFE00
003FF7FE00
000007FE00
00000FFE00
00000FFC00
00001FFC00
00003FF800
00007FF800
0000FFF000
0003FFE000
000FFFE000
00FFFFC000
1FFFFF8000
0FFFFF0000
0FFFFE0000
0FFFF80000
0FFFF00000
0FFF800000
0FFE000000
0FE0000000
ENDCHAR
STARTCHAR 003A
ENCODING 58
SWIDTH 488 0
DWIDTH 38 0
BBX 13 38 13 -1
BITMAP
0200
1FC0
7FF0
7FF0
FFF8
FFF8
FFF8
FFF8
FFF8
FFF8
FFF8
7FF0
3FE0
1FC0
0000
0000
0000
0000
0000
0000
0000
0000
0000
0000
0F80
3FE0
7FF0
FFF8
FFF8
FFF8
FFF8
FFF8
FFF8
FFF8
FFF8
7FF0
3FE0
0F80
ENDCHAR
STARTCHAR 003B
ENCODING 59
SWIDTH 488 0
DWIDTH 38 0
BBX 17 49 9 -12
BITMAP
002000
01FC00
07FF00
07FF00
0FFF80
0FFF80
0FFF80
0FFF80
0FFF80
0FFF80
0FFF80
07FF00
03FE00
01FC00
000000
000000
000000
000000
000000
000000
000000
000000
000000
000000
00F800
03FE00
07FF00
0FFF00
0FFF80
0FFF80
1FFF80
1FFF80
0FFF80
0FFF80
0FFF80
07FF80
03FF80
00FF80
007F00
007F00
00FE00
03FE00
7FFC00
FFF800
7FF000
7FE000
7F8000
7E0000
700000
ENDCHAR
STARTCHAR 003C
ENCODING 60
SWIDTH 488 0
DWIDTH 38 0
BBX 33 34 3 3
BITMAP
0000000600
0000001E00
0000007E00
000003FE00
00000FFF00
00003FFF00
0001FFFF00
0007FFFF80
003FFFFF80
00FFFFFE00
03FFFFF000
1FFFFF8000
7FFFFE0000
FFFFF00000
FFFFC00000
FFFE000000
FFF8000000
FFF8000000
FFFE000000
FFFFC00000
FFFFF00000
7FFFFE0000
1FFFFF8000
03FFFFF000
00FFFFFE00
003FFFFF80
0007FFFF80
0001FFFF00
00003FFF00
00000FFF00
000003FE00
0000007E00
0000001E00
0000000600
ENDCHAR
STARTCHAR 003D
ENCODING 61
SWIDTH 488 0
DWIDTH 38 0
BBX 33 23 3 9
BITMAP
FFFFFFFF80
FFFFFFFF80
FFFFFFFF80
FFFFFFFF80
FFFFFFFF80
FFFFFFFF80
FFFFFFFF80
FFFFFFFF80
0000000000
0000000000
0000000000
0000000000
0000000000
0000000000
0000000000
FFFFFFFF80
FFFFFFFF80
FFFFFFFF80
FFFFFFFF80
FFFFFFFF80
FFFFFFFF80
FFFFFFFF80
FFFFFFFF80
ENDCHAR
STARTCHAR 003E
ENCODING 62
SWIDTH 488 0
DWIDTH 38 0
BBX 33 34 3 3
BITMAP
1000000000
3C00000000
3F00000000
3FE0000000
7FF8000000
7FFE000000
7FFFC00000
FFFFF00000
FFFFFE0000
3FFFFF8000
07FFFFE000
00FFFFFC00
003FFFFF00
0007FFFF80
0001FFFF80
00003FFF80
00000FFF80
000007FF80
00003FFF80
0000FFFF80
0007FFFF80
001FFFFF00
00FFFFFC00
07FFFFF000
1FFFFF8000
FFFFFE0000
FFFFF80000
7FFFC00000
7FFF000000
7FF8000000
3FE0000000
3F80000000
3C00000000
1000000000
ENDCHAR
STARTCHAR 003F
ENCODING 63
SWIDTH 488 0
DWIDTH 38 0
BBX 29 50 5 -1
BITMAP
00FFF000
0FFFFC00
3FFFFF00
FFFFFF80
7FFFFFC0
7FFFFFE0
3FFFFFF0
3FFFFFF0
3F00FFF0
1C007FF0
00003FF8
00001FF8
00001FF8
00001FF8
00003FF0
00003FF0
00007FF0
0000FFE0
0001FFC0
0003FFC0
000FFF80
000FFF00
001FFE00
003FFC00
007FF800
007FF000
00FFE000
00FFC000
00FF8000
00FF8000
00FF8000
00FF8000
00000000
00000000
00000000
00000000
00000000
001E0000
007F8000
00FFC000
01FFE000
01FFE000
03FFE000
03FFE000
03FFE000
01FFE000
01FFE000
00FFC000
007F8000
003E0000
ENDCHAR
STARTCHAR 0040
ENCODING 64
SWIDTH 488 0
DWIDTH 38 0
BBX 35 60 1 -11
BITMAP
0001FF8000
000FFFF000
003FFFF800
007FFFFC00
00FFFFFE00
01FFFFFF00
03FFFFFF80
07FE00FF80
07FC007FC0
0FF8003FC0
0FF0001FE0
1FE0001FE0
1FC0001FE0
1FC0001FE0
3FC0011FE0
3F801FFFE0
3F807FFFE0
7F80FFFFE0
7F81FFFFE0
7F03FFFFE0
7F03FFFFE0
7F07FFFFE0
7F07FF3FE0
7F07FC1FE0
7F0FF81FE0
FF0FF81FE0
FF0FF01FE0
FF0FF01FE0
FE0FF01FE0
FE0FF01FE0
FE0FF01FE0
FE0FF01FE0
FF0FF01FE0
FF0FF01FE0
7F0FF81FE0
7F0FF81FE0
7F07F81FE0
7F07FC1FE0
7F07FFFFE0
7F03FFFFE0
7F03FFFFE0
3F81FFFFE0
3F80FFFFE0
3F807FFFE0
3FC03FFFE0
1FC00FFF80
1FE0000000
0FF0000000
0FF0000000
07FC000000
07FE000000
03FF800000
01FFFE1F80
00FFFFFF80
007FFFFF80
003FFFFFC0
001FFFFFC0
0007FFFFC0
0000FFFFC0
000001C000
ENDCHAR
STARTCHAR 0041
ENCODING 65
SWIDTH 488 0
DWIDTH 38 0
BBX 37 48 1 0
BITMAP
0007FF0000
0007FF0000
0007FF8000
000FFF8000
000FFF8000
000FFFC000
001FFFC000
001FFFC000
001FFFE000
003FFFE000
003FDFE000
003FDFE000
007F9FF000
007F8FF000
007F8FF000
007F8FF800
00FF0FF800
00FF07F800
00FF07F800
01FF07FC00
01FE07FC00
01FE03FC00
03FE03FE00
03FE03FE00
03FC03FE00
03FC03FE00
07FC01FF00
07FC01FF00
07FC01FF00
0FFFFFFF80
0FFFFFFF80
0FFFFFFF80
0FFFFFFF80
1FFFFFFFC0
1FFFFFFFC0
1FFFFFFFC0
1FFFFFFFC0
3FF0007FE0
3FF0007FE0
3FE0007FE0
3FE0007FE0
7FE0003FF0
7FE0003FF0
7FE0003FF0
7FC0003FF0
FFC0003FF8
FFC0001FF8
FFC0001FF8
ENDCHAR
STARTCHAR 0042
ENCODING 66
SWIDTH 488 0
DWIDTH 38 0
BBX 32 50 4 -1
BITMAP
007F0000
FFFFFC00
FFFFFF00
FFFFFFC0
FFFFFFE0
FFFFFFF0
FFFFFFF8
FFFFFFF8
FFFFFFFC
FFC01FFC
FFC00FFC
FFC00FFC
FFC007FC
FFC007FC
FFC007FC
FFC007FC
FFC00FFC
FFC00FF8
FFC01FF8
FFC07FF0
FFFFFFF0
FFFFFFE0
FFFFFF80
FFFFFF80
FFFFFFE0
FFFFFFF0
FFFFFFFC
FFFFFFFC
FFC01FFE
FFC007FE
FFC003FF
FFC001FF
FFC001FF
FFC001FF
FFC001FF
FFC001FF
FFC001FF
FFC003FF
FFC003FF
FFC007FF
FFC01FFF
FFFFFFFE
FFFFFFFE
FFFFFFFC
FFFFFFF8
FFFFFFF0
FFFFFFE0
FFFFFF80
7FFFFE00
005F0000
ENDCHAR
STARTCHAR 0043
ENCODING 67
SWIDTH 488 0
DWIDTH 38 0
BBX 34 50 2 -1
BITMAP
0000FFF000
0007FFFE00
001FFFFF80
007FFFFFC0
00FFFFFFC0
01FFFFFFC0
03FFFFFF80
07FFFFFF80
07FFE03F80
0FFF000700
1FFE000100
1FFC000000
3FF8000000
3FF0000000
3FF0000000
7FE0000000
7FE0000000
7FE0000000
7FC0000000
FFC0000000
FFC0000000
FFC0000000
FFC0000000
FFC0000000
FFC0000000
FFC0000000
FFC0000000
FFC0000000
FFC0000000
FFC0000000
FFC0000000
7FC0000000
7FE0000000
7FE0000000
7FE0000000
7FF0000000
3FF0000000
3FF8000000
3FFC000000
1FFE000100
1FFF000780
0FFFF07F80
07FFFFFF80
07FFFFFF80
03FFFFFFC0
01FFFFFFC0
007FFFFFC0
003FFFFF80
000FFFFC00
0000FFE000
ENDCHAR
STARTCHAR 0044
ENCODING 68
SWIDTH 488 0
DWIDTH 38 0
BBX 33 50 4 -1
BITMAP
01FC000000
FFFFF00000
FFFFFC0000
FFFFFF0000
FFFFFF8000
FFFFFFC000
FFFFFFE000
FFFFFFF000
FFFFFFF800
FFC07FF800
FFC03FFC00
FFC01FFC00
FFC00FFE00
FFC007FE00
FFC007FE00
FFC003FF00
FFC003FF00
FFC003FF00
FFC001FF00
FFC001FF00
FFC001FF80
FFC001FF80
FFC001FF80
FFC001FF80
FFC001FF80
FFC001FF80
FFC001FF80
FFC001FF80
FFC001FF80
FFC001FF80
FFC001FF00
FFC003FF00
FFC003FF00
FFC003FF00
FFC003FF00
FFC007FE00
FFC007FE00
FFC00FFE00
FFC01FFC00
FFC03FFC00
FFC0FFF800
FFFFFFF800
FFFFFFF000
FFFFFFE000
FFFFFFC000
FFFFFF8000
FFFFFE0000
FFFFF80000
FFFFE00000
00F4000000
ENDCHAR
STARTCHAR 0045
ENCODING 69
SWIDTH 488 0
DWIDTH 38 0
BBX 31 48 5 0
BITMAP
FFFFFFF8
FFFFFFF8
FFFFFFF8
FFFFFFF8
FFFFFFF8
FFFFFFF8
FFFFFFF8
FFFFFFF8
FF800000
FF800000
FF800000
FF800000
FF800000
FF800000
FF800000
FF800000
FF800000
FF800000
FF800000
FFFFFFE0
FFFFFFE0
FFFFFFE0
FFFFFFE0
FFFFFFE0
FFFFFFE0
FFFFFFE0
FFFFFFE0
FF800000
FF800000
FF800000
FF800000
FF800000
FF800000
FF800000
FF800000
FF800000
FF800000
FF800000
FF800000
FF800000
FFFFFFFE
FFFFFFFE
FFFFFFFE
FFFFFFFE
FFFFFFFE
FFFFFFFE
FFFFFFFE
FFFFFFFE
ENDCHAR
STARTCHAR 0046
ENCODING 70
SWIDTH 488 0
DWIDTH 38 0
BBX 29 48 5 0
BITMAP
FFFFFFF8
FFFFFFF8
FFFFFFF8
FFFFFFF8
FFFFFFF8
FFFFFFF8
FFFFFFF8
FFFFFFF8
FF800000
FF800000
FF800000
FF800000
FF800000
FF800000
FF800000
FF800000
FF800000
FF800000
FF800000
FFFFFFE0
FFFFFFE0
FFFFFFE0
FFFFFFE0
FFFFFFE0
FFFFFFE0
FFFFFFE0
FFFFFFE0
FF800000
FF800000
FF800000
FF800000
FF800000
FF800000
FF800000
FF800000
FF800000
FF800000
FF800000
FF800000
FF800000
FF800000
FF800000
FF800000
FF800000
FF800000
FF800000
FF800000
FF800000
ENDCHAR
STARTCHAR 0047
ENCODING 71
SWIDTH 488 0
DWIDTH 38 0
BBX 34 50 2 -1
BITMAP
0001FFE000
000FFFFE00
001FFFFF80
007FFFFFC0
00FFFFFFC0
01FFFFFF80
03FFFFFF80
07FFFFFF80
0FFFE03F00
0FFF000700
1FFE000100
1FFC000000
3FF8000000
3FF0000000
3FF0000000
7FE0000000
7FE0000000
7FE0000000
7FC0000000
FFC0000000
FFC0000000
FFC0000000
FFC0000000
FFC0000000
FFC000FFC0
FFC000FFC0
FFC000FFC0
FFC000FFC0
FFC000FFC0
FFC000FFC0
FFC000FFC0
7FC000FFC0
7FE000FFC0
7FE000FFC0
7FE000FFC0
7FE000FFC0
3FF000FFC0
3FF000FFC0
3FF800FFC0
1FFC00FFC0
1FFF00FFC0
0FFFE1FFC0
07FFFFFFC0
07FFFFFFC0
03FFFFFFC0
01FFFFFFC0
00FFFFFFC0
003FFFFFC0
000FFFFF00
0001FFE000
ENDCHAR
STARTCHAR 0048
ENCODING 72
SWIDTH 488 0
DWIDTH 38 0
BBX 32 48 3 0
BITMAP
FFC001FF
FFC001FF
FFC001FF
FFC001FF
FFC001FF
FFC001FF
FFC001FF
FFC001FF
FFC001FF
FFC001FF
FFC001FF
FFC001FF
FFC001FF
FFC001FF
FFC001FF
FFC001FF
FFC001FF
FFC001FF
FFC001FF
FFFFFFFF
FFFFFFFF
FFFFFFFF
FFFFFFFF
FFFFFFFF
FFFFFFFF
FFFFFFFF
FFFFFFFF
FFC001FF
FFC001FF
FFC001FF
FFC001FF
FFC001FF
FFC001FF
FFC001FF
FFC001FF
FFC001FF
FFC001FF
FFC001FF
FFC001FF
FFC001FF
FFC001FF
FFC001FF
FFC001FF
FFC001FF
FFC001FF
FFC001FF
FFC001FF
FFC001FF
ENDCHAR
STARTCHAR 0049
ENCODING 73
SWIDTH 488 0
DWIDTH 38 0
BBX 31 48 4 0
BITMAP
FFFFFFFE
FFFFFFFE
FFFFFFFE
FFFFFFFE
FFFFFFFE
FFFFFFFE
FFFFFFFE
FFFFFFFE
001FF000
001FF000
001FF000
001FF000
001FF000
001FF000
001FF000
001FF000
001FF000
001FF000
001FF000
001FF000
001FF000
001FF000
001FF000
001FF000
001FF000
001FF000
001FF000
001FF000
001FF000
001FF000
001FF000
001FF000
001FF000
001FF000
001FF000
001FF000
001FF000
001FF000
001FF000
001FF000
FFFFFFFE
FFFFFFFE
FFFFFFFE
FFFFFFFE
FFFFFFFE
FFFFFFFE
FFFFFFFE
FFFFFFFE
ENDCHAR
STARTCHAR 004A
ENCODING 74
SWIDTH 488 0
DWIDTH 38 0
BBX 31 49 3 -1
BITMAP
07FFFFFE
07FFFFFE
07FFFFFE
07FFFFFE
07FFFFFE
07FFFFFE
07FFFFFE
07FFFFFE
000007FE
000007FE
000007FE
000007FE
000007FE
000007FE
000007FE
000007FE
000007FE
000007FE
000007FE
000007FE
000007FE
000007FE
000007FE
000007FE
000007FE
000007FE
000007FE
000007FE
000007FE
000007FE
000007FE
000007FE
000007FE
000007FE
000007FE
000007FE
000007FE
08000FFC
1C001FFC
1F003FFC
3FF3FFF8
3FFFFFF8
7FFFFFF0
7FFFFFF0
FFFFFFE0
7FFFFFC0
1FFFFF00
07FFFC00
00FFE000
ENDCHAR
STARTCHAR 004B
ENCODING 75
SWIDTH 488 0
DWIDTH 38 0
BBX 35 48 3 0
BITMAP
FFC003FF80
FFC003FF80
FFC007FF00
FFC007FE00
FFC00FFE00
FFC00FFC00
FFC01FFC00
FFC01FF800
FFC03FF000
FFC07FF000
FFC07FE000
FFC0FFC000
FFC1FFC000
FFC1FF8000
FFC3FF0000
FFC7FF0000
FFC7FE0000
FFCFFC0000
FFDFF80000
FFFFF80000
FFFFF00000
FFFFE00000
FFFFE00000
FFFFF00000
FFFFF80000
FFFFFC0000
FFDFFE0000
FFCFFF0000
FFC7FF0000
FFC7FF8000
FFC3FFC000
FFC1FFE000
FFC0FFE000
FFC07FF000
FFC07FF800
FFC03FF800
FFC01FFC00
FFC01FFC00
FFC00FFE00
FFC00FFE00
FFC007FF00
FFC007FF00
FFC003FF80
FFC003FF80
FFC001FFC0
FFC001FFC0
FFC000FFE0
FFC000FFE0
ENDCHAR
STARTCHAR 004C
ENCODING 76
SWIDTH 488 0
DWIDTH 38 0
BBX 30 48 6 0
BITMAP
FF800000
FF800000
FF800000
FF800000
FF800000
FF800000
FF800000
FF800000
FF800000
FF800000
FF800000
FF800000
FF800000
FF800000
FF800000
FF800000
FF800000
FF800000
FF800000
FF800000
FF800000
FF800000
FF800000
FF800000
FF800000
FF800000
FF800000
FF800000
FF800000
FF800000
FF800000
FF800000
FF800000
FF800000
FF800000
FF800000
FF800000
FF800000
FF800000
FF800000
FFFFFFFC
FFFFFFFC
FFFFFFFC
FFFFFFFC
FFFFFFFC
FFFFFFFC
FFFFFFFC
FFFFFFFC
ENDCHAR
STARTCHAR 004D
ENCODING 77
SWIDTH 488 0
DWIDTH 38 0
BBX 35 48 2 0
BITMAP
1FE000FF00
3FE000FF00
3FE001FF00
3FF001FF80
3FF001FF80
3FF003FF80
3FF803FF80
3FF803FF80
3FF807FF80
3FFC07FF80
3FFC07FF80
3FFC0FFF80
7F7E0FDF80
7F7E0FDF80
7F7E1FDF80
7F3E1F9FC0
7F3F1F9FC0
7F3F3F9FC0
7F3F3F9FC0
7F1FBF1FC0
7F1FFF1FC0
7F1FFF1FC0
7F0FFE1FC0
7F0FFE1FC0
7F0FFE1FC0
7F0FFC1FC0
7F07FC1FC0
7F07FC1FC0
7F07FC1FC0
7F07F81FC0
FF03F81FC0
FF00003FE0
FF00003FE0
FF00003FE0
FF00003FE0
FF00003FE0
FF00003FE0
FF00003FE0
FF00003FE0
FF00003FE0
FF80003FE0
FF80003FE0
FF80003FE0
FF80003FE0
FF80003FE0
FF80003FE0
FF80003FE0
FF80003FE0
ENDCHAR
STARTCHAR 004E
ENCODING 78
SWIDTH 488 0
DWIDTH 38 0
BBX 31 48 4 0
BITMAP
FF0001FE
FF0001FE
FF8001FE
FF8001FE
FFC001FE
FFE001FE
FFE001FE
FFF001FE
FFF001FE
FFF801FE
FFF801FE
FFFC01FE
FFFC01FE
FFFE01FE
FFFE01FE
FFFF01FE
FFFF81FE
FF7F81FE
FF3FC1FE
FF3FC1FE
FF1FE1FE
FF1FE1FE
FF0FE1FE
FF0FF1FE
FF07F1FE
FF07F9FE
FF03F9FE
FF03FDFE
FF01FDFE
FF01FFFE
FF00FFFE
FF00FFFE
FF007FFE
FF007FFE
FF003FFE
FF003FFE
FF001FFE
FF001FFE
FF001FFE
FF000FFE
FF000FFE
FF0007FE
FF0007FE
FF0003FE
FF0003FE
FF0001FE
FF0001FE
FF0001FE
ENDCHAR
STARTCHAR 004F
ENCODING 79
SWIDTH 488 0
DWIDTH 38 0
BBX 35 50 2 -1
BITMAP
000FFE0000
003FFF8000
00FFFFE000
01FFFFF000
03FFFFF800
07FFFFFC00
0FFFFFFE00
0FFFFFFE00
1FFE0FFF00
1FF807FF00
3FF803FF80
3FF001FF80
3FE000FF80
7FE000FFC0
7FE000FFC0
7FE000FFC0
7FC0007FC0
7FC0007FC0
FFC0007FC0
FFC0007FE0
FFC0007FE0
FFC0007FE0
FFC0007FE0
FFC0007FE0
FFC0007FE0
FFC0007FE0
FFC0007FE0
FFC0007FE0
FFC0007FE0
FFC0007FE0
FFC0007FE0
FFC0007FC0
7FC0007FC0
7FC000FFC0
7FE000FFC0
7FE000FFC0
7FE000FF80
3FE001FF80
3FF001FF80
3FF803FF00
1FFC07FF00
1FFF1FFF00
0FFFFFFE00
0FFFFFFC00
07FFFFFC00
03FFFFF800
01FFFFF000
00FFFFC000
003FFF8000
0007FC0000
ENDCHAR
STARTCHAR 0050
ENCODING 80
SWIDTH 488 0
DWIDTH 38 0
BBX 33 49 4 0
BITMAP
00FF800000
FFFFFC0000
FFFFFF8000
FFFFFFE000
FFFFFFF000
FFFFFFF800
FFFFFFFC00
FFFFFFFE00
FFFFFFFE00
FFC01FFF00
FFC007FF00
FFC003FF00
FFC003FF00
FFC001FF80
FFC001FF80
FFC001FF80
FFC001FF80
FFC001FF80
FFC001FF80
FFC003FF80
FFC003FF00
FFC003FF00
FFC007FF00
FFC01FFF00
FFFFFFFE00
FFFFFFFE00
FFFFFFFC00
FFFFFFF800
FFFFFFF000
FFFFFFE000
FFFFFF8000
FFFFFE0000
FFFFC00000
FFC0000000
FFC0000000
FFC0000000
FFC0000000
FFC0000000
FFC0000000
FFC0000000
FFC0000000
FFC0000000
FFC0000000
FFC0000000
FFC0000000
FFC0000000
FFC0000000
FFC0000000
FFC0000000
ENDCHAR
STARTCHAR 0051
ENCODING 81
SWIDTH 488 0
DWIDTH 38 0
BBX 35 62 2 -13
BITMAP
0007FC0000
003FFF8000
007FFFC000
01FFFFF000
03FFFFF800
07FFFFFC00
07FFFFFC00
0FFFFFFE00
1FFF1FFF00
1FFC07FF00
3FF803FF80
3FF001FF80
3FE001FF80
7FE000FFC0
7FE000FFC0
7FE000FFC0
7FC000FFC0
7FC0007FC0
FFC0007FC0
FFC0007FE0
FFC0007FE0
FFC0007FE0
FFC0007FE0
FFC0007FE0
FFC0007FE0
FFC0007FE0
FFC0007FE0
FFC0007FE0
FFC0007FE0
FFC0007FE0
FFC0007FE0
FFC0007FC0
7FC0007FC0
7FC0007FC0
7FE000FFC0
7FE000FFC0
7FE000FFC0
3FE001FF80
3FF001FF80
3FF003FF80
1FF807FF00
1FFE0FFF00
0FFFFFFE00
0FFFFFFE00
07FFFFFC00
03FFFFF800
01FFFFF000
00FFFFE000
003FFF8000
000FFE0000
0007FC0000
0003FC0000
0003FF0000
0003FFE000
0001FFFC00
0000FFFFC0
00007FFFC0
00003FFFC0
00001FFFC0
000007FF80
000000FF80
0000000F80
ENDCHAR
STARTCHAR 0052
ENCODING 82
SWIDTH 488 0
DWIDTH 38 0
BBX 34 49 4 0
BITMAP
00FF000000
FFFFF80000
FFFFFE0000
FFFFFF8000
FFFFFFC000
FFFFFFE000
FFFFFFF000
FFFFFFF800
FFFFFFF800
FFC07FFC00
FFC01FFC00
FFC00FFC00
FFC00FFE00
FFC007FE00
FFC007FE00
FFC007FE00
FFC007FE00
FFC007FE00
FFC007FE00
FFC00FFE00
FFC00FFC00
FFC01FFC00
FFC07FFC00
FFFFFFF800
FFFFFFF800
FFFFFFF000
FFFFFFE000
FFFFFFC000
FFFFFF0000
FFFFFF0000
FFFFFF0000
FFC1FF8000
FFC1FFC000
FFC0FFC000
FFC07FE000
FFC07FE000
FFC03FF000
FFC03FF800
FFC01FF800
FFC00FFC00
FFC00FFC00
FFC007FE00
FFC007FE00
FFC003FF00
FFC003FF00
FFC001FF80
FFC001FF80
FFC001FF80
FFC000FFC0
ENDCHAR
STARTCHAR 0053
ENCODING 83
SWIDTH 488 0
DWIDTH 38 0
BBX 33 50 3 -1
BITMAP
001FFF0000
00FFFFE000
01FFFFFC00
07FFFFFC00
0FFFFFFC00
1FFFFFFC00
1FFFFFF800
3FFFFFF800
3FFC01F800
7FF0003000
7FE0000000
7FE0000000
7FC0000000
7FC0000000
7FE0000000
7FE0000000
7FF0000000
7FF8000000
7FFE000000
3FFF800000
3FFFF00000
1FFFFC0000
0FFFFF0000
07FFFFC000
03FFFFF000
00FFFFF800
003FFFFC00
000FFFFC00
0001FFFE00
00007FFF00
00001FFF00
000007FF00
000003FF00
000001FF80
000001FF80
000001FF80
000001FF80
000001FF80
000001FF80
180003FF00
3E0007FF00
3FC01FFF00
7FFFFFFE00
7FFFFFFE00
7FFFFFFC00
FFFFFFF800
FFFFFFF000
3FFFFFE000
07FFFF8000
007FF80000
ENDCHAR
STARTCHAR 0054
ENCODING 84
SWIDTH 488 0
DWIDTH 38 0
BBX 35 48 2 0
BITMAP
FFFFFFFFE0
FFFFFFFFE0
FFFFFFFFE0
FFFFFFFFE0
FFFFFFFFE0
FFFFFFFFE0
FFFFFFFFE0
FFFFFFFFE0
0007FC0000
0007FC0000
0007FC0000
0007FC0000
0007FC0000
0007FC0000
0007FC0000
0007FC0000
0007FC0000
0007FC0000
0007FC0000
0007FC0000
0007FC0000
0007FC0000
0007FC0000
0007FC0000
0007FC0000
0007FC0000
0007FC0000
0007FC0000
0007FC0000
0007FC0000
0007FC0000
0007FC0000
0007FC0000
0007FC0000
0007FC0000
0007FC0000
0007FC0000
0007FC0000
0007FC0000
0007FC0000
0007FC0000
0007FC0000
0007FC0000
0007FC0000
0007FC0000
0007FC0000
0007FC0000
0007FC0000
ENDCHAR
STARTCHAR 0055
ENCODING 85
SWIDTH 488 0
DWIDTH 38 0
BBX 33 49 3 -1
BITMAP
FFC001FF80
FFC001FF80
FFC001FF80
FFC001FF80
FFC001FF80
FFC001FF80
FFC001FF80
FFC001FF80
FFC001FF80
FFC001FF80
FFC001FF80
FFC001FF80
FFC001FF80
FFC001FF80
FFC001FF80
FFC001FF80
FFC001FF80
FFC001FF80
FFC001FF80
FFC001FF80
FFC001FF80
FFC001FF80
FFC001FF80
FFC001FF80
FFC001FF80
FFC001FF80
FFC001FF80
FFC001FF80
FFC001FF80
FFC001FF80
FFC001FF80
FFC001FF80
FFC001FF80
FFC001FF80
FFC001FF80
FFC001FF80
FFC001FF00
7FE003FF00
7FE003FF00
7FF007FF00
7FFC3FFE00
3FFFFFFE00
3FFFFFFC00
1FFFFFFC00
0FFFFFF800
07FFFFF000
03FFFFE000
00FFFF8000
001FFC0000
ENDCHAR
STARTCHAR 0056
ENCODING 86
SWIDTH 488 0
DWIDTH 38 0
BBX 37 48 1 0
BITMAP
FFC0001FF8
FFC0001FF8
7FC0003FF0
7FE0003FF0
7FE0003FF0
7FE0003FF0
7FE0003FF0
3FE0003FE0
3FF0007FE0
3FF0007FE0
3FF0007FE0
1FF0007FC0
1FF0007FC0
1FF000FFC0
1FF800FFC0
0FF800FF80
0FF800FF80
0FF800FF80
0FFC01FF80
07FC01FF00
07FC01FF00
07FC01FF00
03FC01FF00
03FE03FE00
03FE03FE00
03FE03FE00
01FE03FC00
01FF07FC00
01FF07FC00
00FF07F800
00FF07F800
00FF8FF800
00FF8FF800
007F8FF000
007F8FF000
007FDFF000
003FDFE000
003FDFE000
003FFFE000
001FFFC000
001FFFC000
001FFFC000
000FFF8000
000FFF8000
000FFF8000
0007FF0000
0007FF0000
0007FF0000
ENDCHAR
STARTCHAR 0057
ENCODING 87
SWIDTH 488 0
DWIDTH 38 0
BBX 35 48 2 0
BITMAP
FF80003FE0
FF80003FE0
FF80003FE0
FF80003FE0
FF80003FE0
FF80003FE0
FF80003FE0
FF80003FE0
FF80003FE0
FF80003FE0
FF00003FE0
FF00003FE0
FF00003FE0
FF00003FE0
FF00003FE0
FF00003FE0
FF00003FC0
FF03F83FC0
FF03F83FC0
FF07FC3FC0
7F07FC3FC0
7F07FC3FC0
7F0FFE1FC0
7F0FFE1FC0
7F0FFE1FC0
7F0FFE1FC0
7F1FFF1FC0
7F1FBF1FC0
7F1FBF1FC0
7F3FBF1FC0
7F3F1F9FC0
7F3F1F9FC0
7F7F1F9FC0
7F7E0FDFC0
7F7E0FDF80
7F7E0FDF80
3FFC07DF80
3FFC07FF80
3FFC07FF80
3FF803FF80
3FF803FF80
3FF803FF80
3FF001FF80
3FF001FF80
3FF001FF80
3FE000FF80
3FE000FF80
1FE000FF00
ENDCHAR
STARTCHAR 0058
ENCODING 88
SWIDTH 488 0
DWIDTH 38 0
BBX 37 48 1 0
BITMAP
7FE0003FF0
3FF0003FE0
3FF0007FE0
1FF8007FC0
1FF800FFC0
0FFC00FF80
0FFC01FF80
07FE01FF00
07FE03FF00
03FF03FE00
01FF07FC00
01FF87FC00
00FF8FF800
00FFDFF800
007FDFF000
007FFFF000
003FFFE000
003FFFE000
001FFFC000
000FFFC000
000FFF8000
0007FF0000
0007FF0000
0007FF8000
000FFF8000
000FFFC000
001FFFC000
003FFFE000
003FFFF000
007FFFF000
007FDFF800
00FFCFF800
00FF8FFC00
01FF8FFC00
01FF07FE00
03FF07FE00
03FE03FF00
07FE03FF00
0FFC01FF80
0FFC01FF80
1FF800FFC0
1FF800FFC0
3FF800FFE0
3FF0007FE0
7FF0007FF0
7FE0003FF0
FFE0003FF0
FFC0003FF8
ENDCHAR
STARTCHAR 0059
ENCODING 89
SWIDTH 488 0
DWIDTH 38 0
BBX 37 48 1 0
BITMAP
FFC0001FF8
7FE0003FF0
7FE0003FF0
7FE0003FF0
3FF0007FE0
3FF0007FE0
1FF0007FC0
1FF800FFC0
1FF800FFC0
0FFC00FF80
0FFC01FF80
07FC01FF00
07FE01FF00
03FE03FF00
03FF03FE00
03FF07FE00
01FF07FC00
01FF87FC00
00FF8FF800
00FFCFF800
007FDFF000
007FFFF000
003FFFE000
003FFFE000
001FFFC000
001FFFC000
000FFF8000
000FFF8000
0007FF0000
0003FE0000
0003FE0000
0003FE0000
0003FE0000
0003FE0000
0003FE0000
0003FE0000
0003FE0000
0003FE0000
0003FE0000
0003FE0000
0003FE0000
0003FE0000
0003FE0000
0003FE0000
0003FE0000
0003FE0000
0003FE0000
0003FE0000
ENDCHAR
STARTCHAR 005A
ENCODING 90
SWIDTH 488 0
DWIDTH 38 0
BBX 31 48 4 0
BITMAP
7FFFFFFE
7FFFFFFE
7FFFFFFE
7FFFFFFE
7FFFFFFE
7FFFFFFE
7FFFFFFE
7FFFFFFC
00001FF8
00003FF8
00007FF0
00007FE0
0000FFE0
0000FFC0
0001FF80
0001FF80
0003FF00
0007FF00
0007FE00
000FFC00
000FFC00
001FF800
003FF800
003FF000
007FE000
007FE000
00FFC000
00FFC000
01FF8000
03FF0000
03FF0000
07FE0000
07FE0000
0FFC0000
0FFC0000
1FF80000
1FF80000
3FF00000
3FE00000
7FE00000
7FFFFFFE
FFFFFFFE
FFFFFFFE
FFFFFFFE
FFFFFFFE
FFFFFFFE
FFFFFFFE
FFFFFFFE
ENDCHAR
STARTCHAR 005B
ENCODING 91
SWIDTH 488 0
DWIDTH 38 0
BBX 21 67 9 -13
BITMAP
FFFFF8
FFFFF8
FFFFF8
FFFFF8
FFFFF8
FFFFF8
FFFFF8
FF8000
FF8000
FF8000
FF8000
FF8000
FF8000
FF8000
FF8000
FF8000
FF8000
FF8000
FF8000
FF8000
FF8000
FF8000
FF8000
FF8000
FF8000
FF8000
FF8000
FF8000
FF8000
FF8000
FF8000
FF8000
FF8000
FF8000
FF8000
FF8000
FF8000
FF8000
FF8000
FF8000
FF8000
FF8000
FF8000
FF8000
FF8000
FF8000
FF8000
FF8000
FF8000
FF8000
FF8000
FF8000
FF8000
FF8000
FF8000
FF8000
FF8000
FF8000
FF8000
FFFFF8
FFFFF8
FFFFF8
FFFFF8
FFFFF8
FFFFF8
FFFFF8
FFFFF8
ENDCHAR
STARTCHAR 005C
ENCODING 92
SWIDTH 488 0
DWIDTH 38 0
BBX 31 67 4 -13
BITMAP
FFC00000
FFC00000
7FE00000
7FE00000
7FE00000
3FF00000
3FF00000
3FF00000
1FF00000
1FF80000
1FF80000
0FF80000
0FFC0000
0FFC0000
07FC0000
07FE0000
07FE0000
03FE0000
03FF0000
03FF0000
01FF0000
01FF8000
01FF8000
00FF8000
00FFC000
00FFC000
00FFC000
007FE000
007FE000
007FE000
003FF000
003FF000
003FF000
001FF800
001FF800
001FF800
000FFC00
000FFC00
000FFC00
0007FE00
0007FE00
0007FE00
0003FF00
0003FF00
0003FF00
0001FF00
0001FF80
0001FF80
0000FF80
0000FFC0
0000FFC0
00007FC0
00007FE0
00007FE0
00003FE0
00003FF0
00003FF0
00003FF0
00001FF8
00001FF8
00001FF8
00000FFC
00000FFC
00000FFC
000007FE
000007FE
000007FE
ENDCHAR
STARTCHAR 005D
ENCODING 93
SWIDTH 488 0
DWIDTH 38 0
BBX 22 67 8 -13
BITMAP
FFFFFC
FFFFFC
FFFFFC
FFFFFC
FFFFFC
FFFFFC
FFFFFC
0007FC
0007FC
0007FC
0007FC
0007FC
0007FC
0007FC
0007FC
0007FC
0007FC
0007FC
0007FC
0007FC
0007FC
0007FC
0007FC
0007FC
0007FC
0007FC
0007FC
0007FC
0007FC
0007FC
0007FC
0007FC
0007FC
0007FC
0007FC
0007FC
0007FC
0007FC
0007FC
0007FC
0007FC
0007FC
0007FC
0007FC
0007FC
0007FC
0007FC
0007FC
0007FC
0007FC
0007FC
0007FC
0007FC
0007FC
0007FC
0007FC
0007FC
0007FC
0007FC
FFFFFC
FFFFFC
FFFFFC
FFFFFC
FFFFFC
FFFFFC
FFFFFC
FFFFFC
ENDCHAR
STARTCHAR 005E
ENCODING 94
SWIDTH 488 0
DWIDTH 38 0
BBX 36 28 2 20
BITMAP
0007FC0000
0007FE0000
000FFE0000
001FFF0000
001FFF8000
003FFF8000
003FFFC000
007FFFC000
00FFFFE000
00FFFFF000
01FFFFF000
01FFFFF800
03FFBFF800
07FF1FFC00
07FF0FFE00
0FFE0FFE00
0FFE07FF00
1FFC07FF00
1FFC03FF80
3FF801FFC0
7FF001FFC0
7FF000FFE0
FFE000FFE0
FFE0007FF0
FFC0007FE0
3FC0003F80
0F80001E00
0100001800
ENDCHAR
STARTCHAR 005F
ENCODING 95
SWIDTH 488 0
DWIDTH 38 0
BBX 37 8 1 -13
BITMAP
FFFFFFFFF8
FFFFFFFFF8
FFFFFFFFF8
FFFFFFFFF8
FFFFFFFFF8
FFFFFFFFF8
FFFFFFFFF8
FFFFFFFFF8
ENDCHAR
STARTCHAR 0060
ENCODING 96
SWIDTH 488 0
DWIDTH 38 0
BBX 16 14 12 40
BITMAP
0800
0C00
1F00
3F80
3FE0
7FF0
7FF8
FFFE
3FFF
0FFF
03FF
00FE
003C
000C
ENDCHAR
STARTCHAR 0061
ENCODING 97
SWIDTH 488 0
DWIDTH 38 0
BBX 31 38 3 -1
BITMAP
03FFFE00
0FFFFF80
0FFFFFE0
0FFFFFF0
0FFFFFF8
07FFFFF8
07FFFFFC
07FFFFFC
04001FFE
000007FE
000007FE
000003FE
000003FE
000003FE
000383FE
00FFFFFE
03FFFFFE
0FFFFFFE
1FFFFFFE
3FFFFFFE
3FFFFFFE
7FFC03FE
7FE003FE
7FC003FE
FFC003FE
FFC003FE
FFC003FE
FFC003FE
7FE003FE
7FF803FE
7FFFFFFE
3FFFFFFE
3FFFFFFE
1FFFFFFE
0FFFFFFE
07FFFFFE
01FFFFF8
001FFE00
ENDCHAR
STARTCHAR 0062
ENCODING 98
SWIDTH 488 0
DWIDTH 38 0
BBX 32 55 5 -1
BITMAP
01800000
7F800000
FF800000
FF800000
FF800000
FF800000
FF800000
FF800000
FF800000
FF800000
FF800000
FF800000
FF800000
FF800000
FF800000
FF800000
FF800000
FF9FFC00
FFFFFF00
FFFFFFC0
FFFFFFE0
FFFFFFF0
FFFFFFF0
FFFFFFF8
FFFFFFF8
FFF03FFC
FF801FFC
FF800FFE
FF8007FE
FF8007FE
FF8007FE
FF8007FE
FF8003FE
FF8003FE
FF8003FF
FF8003FF
FF8003FF
FF8003FF
FF8003FE
FF8003FE
FF8007FE
FF8007FE
FF8007FE
FF800FFC
FF801FFC
FF803FFC
FFE1FFF8
FFFFFFF8
FFFFFFF0
FFFFFFE0
FFFFFFC0
FFFFFF80
FFFFFF00
3FFFF800
00FFC000
ENDCHAR
STARTCHAR 0063
ENCODING 99
SWIDTH 488 0
DWIDTH 38 0
BBX 33 38 3 -1
BITMAP
0003FFFC00
001FFFFF80
007FFFFF00
01FFFFFF00
03FFFFFF00
07FFFFFF00
0FFFFFFE00
0FFFFFFE00
1FFF800E00
3FFE000000
3FF8000000
3FF0000000
7FF0000000
7FE0000000
7FE0000000
7FC0000000
FFC0000000
FFC0000000
FFC0000000
FFC0000000
FFC0000000
7FC0000000
7FE0000000
7FE0000000
7FE0000000
7FF0000000
3FF8000000
3FFC000000
1FFF000100
1FFFFDFF00
0FFFFFFF00
07FFFFFF00
03FFFFFF80
01FFFFFF80
00FFFFFF80
003FFFFF80
000FFFFF00
0000FFE000
ENDCHAR
STARTCHAR 0064
ENCODING 100
SWIDTH 488 0
DWIDTH 38 0
BBX 31 55 2 -1
BITMAP
00000006
000001FE
000003FE
000003FE
000003FE
000003FE
000003FE
000003FE
000003FE
000003FE
000003FE
000003FE
000003FE
000003FE
000003FE
000003FE
000003FE
003FF3FE
01FFFFFE
03FFFFFE
07FFFFFE
0FFFFFFE
1FFFFFFE
1FFFFFFE
3FFFFFFE
3FFC0FFE
3FF003FE
7FF003FE
7FE003FE
7FE003FE
7FC003FE
FFC003FE
FFC003FE
FFC003FE
FFC003FE
FFC003FE
FFC003FE
FFC003FE
FFC003FE
FFC003FE
FFE003FE
7FE003FE
7FE003FE
7FF003FE
7FF003FE
3FFC03FE
3FFF8FFE
1FFFFFFE
0FFFFFFE
0FFFFFFE
07FFFFFE
03FFFFFE
00FFFFFE
003FFFF8
0007FE00
ENDCHAR
STARTCHAR 0065
ENCODING 101
SWIDTH 488 0
DWIDTH 38 0
BBX 34 38 2 -1
BITMAP
000FFF0000
003FFFC000
00FFFFF000
01FFFFF800
03FFFFFC00
07FFFFFE00
0FFFFFFF00
1FFFFFFF00
1FFC03FF80
3FF801FF80
3FF000FF80
3FE000FF80
7FE0007FC0
7FE0007FC0
7FC0007FC0
7FFFFFFFC0
FFFFFFFFC0
FFFFFFFFC0
FFFFFFFFC0
FFFFFFFFC0
FFFFFFFFC0
FFFFFFFFC0
7FC0000000
7FC0000000
7FE0000000
7FE0000000
3FF0000000
3FF8000000
3FFE000E00
1FFFF7FE00
0FFFFFFE00
0FFFFFFE00
07FFFFFF00
03FFFFFF00
00FFFFFF00
007FFFFF00
000FFFFC00
0001FF8000
ENDCHAR
STARTCHAR 0066
ENCODING 102
SWIDTH 488 0
DWIDTH 38 0
BBX 35 54 3 0
BITMAP
00001FF000
0000FFFF80
0003FFFFE0
000FFFFFE0
001FFFFFE0
003FFFFFE0
003FFFFFC0
007FFFFFC0
007FFC1FC0
007FE001C0
00FFE00000
00FFC00000
00FFC00000
00FFC00000
00FF800000
00FF800000
00FF800000
FFFFFFFF00
FFFFFFFF00
FFFFFFFF00
FFFFFFFF00
FFFFFFFF00
FFFFFFFF00
FFFFFFFF00
FFFFFFFF00
00FF800000
00FF800000
00FF800000
00FF800000
00FF800000
00FF800000
00FF800000
00FF800000
00FF800000
00FF800000
00FF800000
00FF800000
00FF800000
00FF800000
00FF800000
00FF800000
00FF800000
00FF800000
00FF800000
00FF800000
00FF800000
00FF800000
00FF800000
00FF800000
00FF800000
00FF800000
00FF800000
00FF800000
00FF800000
ENDCHAR
STARTCHAR 0067
ENCODING 103
SWIDTH 488 0
DWIDTH 38 0
BBX 31 50 3 -13
BITMAP
001FFFC0
007FFFFE
01FFFFFE
07FFFFFE
0FFFFFFE
1FFFFFFE
3FFFFFFE
3FFF9FFE
7FF807FE
7FF007FE
7FE007FE
FFC007FE
FFC007FE
FFC007FE
FFC007FE
FF8007FE
FF8007FE
FF8007FE
FF8007FE
FF8007FE
FF8007FE
FFC007FE
FFC007FE
FFC007FE
FFE007FE
7FF007FE
7FFC3FFE
3FFFFFFE
3FFFFFFE
1FFFFFFE
0FFFFFFE
07FFFFFE
03FFFFFE
00FFF7FE
000607FE
000007FE
000007FE
000007FE
000007FC
00000FFC
30001FFC
3F007FFC
7FFFFFF8
7FFFFFF8
7FFFFFF0
7FFFFFE0
7FFFFFC0
FFFFFF80
1FFFFC00
01FFE000
ENDCHAR
STARTCHAR 0068
ENCODING 104
SWIDTH 488 0
DWIDTH 38 0
BBX 29 54 5 0
BITMAP
01800000
7F800000
FF800000
FF800000
FF800000
FF800000
FF800000
FF800000
FF800000
FF800000
FF800000
FF800000
FF800000
FF800000
FF800000
FF800000
FF800000
FFBFF800
FFFFFE00
FFFFFF80
FFFFFFC0
FFFFFFC0
FFFFFFE0
FFFFFFF0
FFFFFFF0
FFE07FF0
FF803FF8
FF801FF8
FF801FF8
FF801FF8
FF801FF8
FF800FF8
FF800FF8
FF800FF8
FF800FF8
FF800FF8
FF800FF8
FF800FF8
FF800FF8
FF800FF8
FF800FF8
FF800FF8
FF800FF8
FF800FF8
FF800FF8
FF800FF8
FF800FF8
FF800FF8
FF800FF8
FF800FF8
FF800FF8
FF800FF8
FF800FF8
FF800FF8
ENDCHAR
STARTCHAR 0069
ENCODING 105
SWIDTH 488 0
DWIDTH 38 0
BBX 33 54 3 -1
BITMAP
003F000000
007F800000
00FFC00000
01FFE00000
01FFE00000
01FFE00000
01FFE00000
01FFE00000
01FFE00000
00FFC00000
007F800000
003F000000
0000000000
0000000000
0000000000
0000000000
FFFFE00000
FFFFE00000
FFFFE00000
FFFFE00000
FFFFE00000
FFFFE00000
FFFFE00000
FFFFE00000
003FE00000
003FE00000
003FE00000
003FE00000
003FE00000
003FE00000
003FE00000
003FE00000
003FE00000
003FE00000
003FE00000
003FE00000
003FE00000
003FE00000
003FE00000
003FE00000
003FF00000
003FF00000
003FF00000
003FF00000
001FF80300
001FFFFF00
001FFFFF80
001FFFFF80
000FFFFF80
0007FFFF80
0007FFFF80
0001FFFF80
0000FFFE00
00001FE000
ENDCHAR
STARTCHAR 006A
ENCODING 106
SWIDTH 488 0
DWIDTH 38 0
BBX 27 66 4 -13
BITMAP
00007E00
0000FF00
0001FF80
0003FFC0
0003FFC0
0003FFC0
0003FFC0
0003FFC0
0003FFC0
0001FF80
0000FF00
00007E00
00000000
00000000
00000000
00000000
1FFFFFE0
1FFFFFE0
1FFFFFE0
1FFFFFE0
1FFFFFE0
1FFFFFE0
1FFFFFE0
1FFFFFE0
00003FE0
00003FE0
00003FE0
00003FE0
00003FE0
00003FE0
00003FE0
00003FE0
00003FE0
00003FE0
00003FE0
00003FE0
00003FE0
00003FE0
00003FE0
00003FE0
00003FE0
00003FE0
00003FE0
00003FE0
00003FE0
00003FE0
00003FE0
00003FE0
00003FE0
00003FE0
00003FE0
00003FE0
00007FE0
00007FE0
00007FE0
30007FE0
3E00FFC0
3FC3FFC0
7FFFFFC0
7FFFFF80
7FFFFF80
FFFFFF00
FFFFFE00
7FFFFC00
1FFFF800
01FFC000
ENDCHAR
STARTCHAR 006B
ENCODING 107
SWIDTH 488 0
DWIDTH 38 0
BBX 33 54 5 0
BITMAP
01C0000000
7FC0000000
FFC0000000
FFC0000000
FFC0000000
FFC0000000
FFC0000000
FFC0000000
FFC0000000
FFC0000000
FFC0000000
FFC0000000
FFC0000000
FFC0000000
FFC0000000
FFC0000000
FFC0000000
FFC00FFE00
FFC01FFE00
FFC01FFC00
FFC03FF800
FFC07FF000
FFC07FE000
FFC0FFC000
FFC1FFC000
FFC1FF8000
FFC3FF0000
FFC7FE0000
FFCFFC0000
FFCFF80000
FFDFF00000
FFFFE00000
FFFFC00000
FFFF800000
FFFFC00000
FFFFE00000
FFFFF00000
FFFFF80000
FFDFFC0000
FFCFFE0000
FFC7FF0000
FFC3FF0000
FFC1FF8000
FFC1FFC000
FFC0FFE000
FFC07FF000
FFC07FF000
FFC03FF800
FFC01FFC00
FFC01FFC00
FFC00FFE00
FFC007FF00
FFC007FF00
FFC003FF80
ENDCHAR
STARTCHAR 006C
ENCODING 108
SWIDTH 488 0
DWIDTH 38 0
BBX 33 55 3 -1
BITMAP
FFFFE00000
FFFFE00000
FFFFE00000
FFFFE00000
FFFFE00000
FFFFE00000
FFFFE00000
FFFFE00000
003FE00000
003FE00000
003FE00000
003FE00000
003FE00000
003FE00000
003FE00000
003FE00000
003FE00000
003FE00000
003FE00000
003FE00000
003FE00000
003FE00000
003FE00000
003FE00000
003FE00000
003FE00000
003FE00000
003FE00000
003FE00000
003FE00000
003FE00000
003FE00000
003FE00000
003FE00000
003FE00000
003FE00000
003FE00000
003FE00000
003FE00000
003FE00000
003FE00000
003FF00000
003FF00000
003FF00000
003FF00000
003FF80300
001FFF7F00
001FFFFF80
001FFFFF80
000FFFFF80
0007FFFF80
0007FFFF80
0003FFFF80
0000FFFE00
00001FE000
ENDCHAR
STARTCHAR 006D
ENCODING 109
SWIDTH 488 0
DWIDTH 38 0
BBX 35 37 2 0
BITMAP
03FE03F000
3FFF9FFE00
FFFFFFFF00
FFFFFFFF80
FFFFFFFF80
FFFFFFFFC0
FFFFFFFFC0
FFFFFFFFC0
FF0FF87FC0
FF07F83FC0
FF07F83FC0
FF07F81FE0
FF07F81FE0
FF03F81FE0
FF03F81FE0
FF03F81FE0
FF03F81FE0
FF03F81FE0
FF03F81FE0
FF03F81FE0
FF03F81FE0
FF03F81FE0
FF03F81FE0
FF00001FE0
FF00001FE0
FF00001FE0
FF00001FE0
FF00001FE0
FF00001FE0
FF00001FE0
FF00001FE0
FF00001FE0
FF00001FE0
FF00001FE0
FF00001FE0
FF00001FE0
FF00001FE0
ENDCHAR
STARTCHAR 006E
ENCODING 110
SWIDTH 488 0
DWIDTH 38 0
BBX 29 37 5 0
BITMAP
07FFF800
FFFFFE00
FFFFFF00
FFFFFFC0
FFFFFFC0
FFFFFFE0
FFFFFFF0
FFFFFFF0
FF807FF0
FF803FF8
FF801FF8
FF801FF8
FF801FF8
FF801FF8
FF800FF8
FF800FF8
FF800FF8
FF800FF8
FF800FF8
FF800FF8
FF800FF8
FF800FF8
FF800FF8
FF800FF8
FF800FF8
FF800FF8
FF800FF8
FF800FF8
FF800FF8
FF800FF8
FF800FF8
FF800FF8
FF800FF8
FF800FF8
FF800FF8
FF800FF8
FF800FF8
ENDCHAR
STARTCHAR 006F
ENCODING 111
SWIDTH 488 0
DWIDTH 38 0
BBX 35 38 2 -1
BITMAP
000FFF0000
007FFFC000
00FFFFE000
03FFFFF800
07FFFFFC00
0FFFFFFE00
0FFFFFFE00
1FFFFFFF00
1FFC07FF00
3FF803FF80
3FF001FF80
7FF000FFC0
7FE000FFC0
7FE000FFC0
7FC0007FC0
FFC0007FE0
FFC0007FE0
FFC0007FE0
FFC0007FE0
FFC0007FE0
FFC0007FE0
FFC0007FE0
7FC0007FC0
7FE000FFC0
7FE000FFC0
7FE000FFC0
7FF001FF80
3FF003FF80
3FF807FF80
1FFF1FFF00
1FFFFFFF00
0FFFFFFE00
07FFFFFC00
03FFFFF800
01FFFFF000
00FFFFE000
003FFF8000
0007FC0000
ENDCHAR
STARTCHAR 0070
ENCODING 112
SWIDTH 488 0
DWIDTH 38 0
BBX 31 50 5 -13
BITMAP
07FFF000
FFFFFE00
FFFFFF00
FFFFFFC0
FFFFFFE0
FFFFFFF0
FFFFFFF0
FFFFFFF8
FF807FF8
FF801FFC
FF801FFC
FF800FFE
FF8007FE
FF8007FE
FF8007FE
FF8007FE
FF8003FE
FF8003FE
FF8003FE
FF8003FE
FF8003FE
FF8003FE
FF8007FE
FF8007FE
FF8007FE
FF8007FE
FF800FFE
FF800FFC
FFC01FFC
FFFCFFFC
FFFFFFF8
FFFFFFF0
FFFFFFF0
FFFFFFE0
FFFFFFC0
FFFFFF80
FFBFFE00
FF83F000
FF800000
FF800000
FF800000
FF800000
FF800000
FF800000
FF800000
FF800000
FF800000
FF800000
FF800000
FF800000
ENDCHAR
STARTCHAR 0071
ENCODING 113
SWIDTH 488 0
DWIDTH 38 0
BBX 32 50 2 -13
BITMAP
000FFFE0
003FFFFF
00FFFFFF
03FFFFFF
07FFFFFF
0FFFFFFF
0FFFFFFF
1FFFFFFF
1FFE03FF
3FF803FF
3FF003FF
7FF003FF
7FE003FF
7FE003FF
7FE003FF
7FC003FF
FFC003FF
FFC003FF
FFC003FF
FFC003FF
FFC003FF
FFC003FF
7FC003FF
7FE003FF
7FE003FF
7FE003FF
7FF003FF
3FF003FF
3FF803FF
3FFF3FFF
1FFFFFFF
1FFFFFFF
0FFFFFFF
07FFFFFF
03FFFFFF
01FFFFFF
007FFBFF
001FC3FF
000003FF
000003FF
000003FF
000003FF
000003FF
000003FF
000003FF
000003FF
000003FF
000003FF
000003FF
000003FF
ENDCHAR
STARTCHAR 0072
ENCODING 114
SWIDTH 488 0
DWIDTH 38 0
BBX 29 37 7 0
BITMAP
00FFFF80
0FFFFFF8
7FFFFFF0
FFFFFFF0
FFFFFFF0
FFFFFFF0
FFFFFFF0
FFFFFFF0
FFFFFFE0
FFE001E0
FFC00000
FFC00000
FFC00000
FFC00000
FFC00000
FFC00000
FFC00000
FFC00000
FFC00000
FFC00000
FFC00000
FFC00000
FFC00000
FFC00000
FFC00000
FFC00000
FFC00000
FFC00000
FFC00000
FFC00000
FFC00000
FFC00000
FFC00000
FFC00000
FFC00000
FFC00000
FFC00000
ENDCHAR
STARTCHAR 0073
ENCODING 115
SWIDTH 488 0
DWIDTH 38 0
BBX 30 38 4 -1
BITMAP
007FFF80
01FFFFF0
07FFFFF8
0FFFFFF0
1FFFFFF0
1FFFFFF0
3FFFFFF0
3FFFFFF0
7FF001F0
7FE00000
7FE00000
7FE00000
7FF00000
7FFC0000
3FFF0000
3FFFE000
1FFFFC00
0FFFFF00
07FFFFC0
03FFFFE0
00FFFFF0
001FFFF8
0003FFF8
00007FFC
00001FFC
00000FFC
000007FC
200007FC
7C000FFC
7FC03FFC
7FFFFFFC
7FFFFFF8
7FFFFFF8
FFFFFFF0
FFFFFFE0
3FFFFF80
07FFFE00
007FE000
ENDCHAR
STARTCHAR 0074
ENCODING 116
SWIDTH 488 0
DWIDTH 38 0
BBX 34 48 3 -1
BITMAP
0007C00000
00FFC00000
00FFC00000
00FFC00000
00FFC00000
00FFC00000
00FFC00000
00FFC00000
00FFC00000
00FFC00000
FFFFFFFF80
FFFFFFFF80
FFFFFFFF80
FFFFFFFF80
FFFFFFFF80
FFFFFFFF80
FFFFFFFF80
FFFFFFFF80
00FFC00000
00FFC00000
00FFC00000
00FFC00000
00FFC00000
00FFC00000
00FFC00000
00FFC00000
00FFC00000
00FFC00000
00FFC00000
00FFC00000
00FFC00000
00FFC00000
00FFC00000
00FFC00000
00FFC00000
00FFC00000
00FFC00000
00FFE00000
00FFE00380
007FFEFF80
007FFFFF80
007FFFFF80
003FFFFF80
003FFFFF80
001FFFFF80
000FFFFFC0
0003FFFF00
00007FE000
ENDCHAR
STARTCHAR 0075
ENCODING 117
SWIDTH 488 0
DWIDTH 38 0
BBX 29 38 5 -1
BITMAP
FF801FF8
FF801FF8
FF801FF8
FF801FF8
FF801FF8
FF801FF8
FF801FF8
FF801FF8
FF801FF8
FF801FF8
FF801FF8
FF801FF8
FF801FF8
FF801FF8
FF801FF8
FF801FF8
FF801FF8
FF801FF8
FF801FF8
FF801FF8
FF801FF8
FF801FF8
FF801FF8
FF801FF8
FFC01FF8
FFC01FF8
FFC01FF8
FFE01FF8
FFF01FF8
7FFFFFF8
7FFFFFF8
3FFFFFF8
3FFFFFF8
1FFFFFF8
0FFFFFF8
07FFFFF8
01FFFFC0
003FF800
ENDCHAR
STARTCHAR 0076
ENCODING 118
SWIDTH 488 0
DWIDTH 38 0
BBX 37 37 1 0
BITMAP
FFC0001FF8
FFC0001FF0
7FE0001FF0
7FE0003FF0
7FE0003FF0
3FE0003FE0
3FF0007FE0
3FF0007FE0
1FF0007FC0
1FF800FFC0
1FF800FFC0
0FF800FF80
0FFC01FF80
0FFC01FF00
07FC01FF00
07FE03FF00
07FE03FE00
03FE07FE00
03FF07FE00
03FF07FC00
01FF0FFC00
01FF8FF800
00FF8FF800
00FF9FF000
00FFDFF000
007FFFE000
007FFFE000
003FFFE000
003FFFC000
001FFFC000
001FFF8000
001FFF8000
000FFF0000
000FFF0000
0007FE0000
0007FE0000
0003FC0000
ENDCHAR
STARTCHAR 0077
ENCODING 119
SWIDTH 488 0
DWIDTH 38 0
BBX 37 37 1 0
BITMAP
FF000007F8
FF000007F8
FF000007F8
FF000007F8
FF000007F8
FF000007F8
FF000007F0
7F000007F0
7F01FC07F0
7F01FC0FF0
7F81FE0FF0
7F83FE0FF0
7F83FE0FF0
7F83FE0FF0
7F83FF0FF0
7F87FF0FE0
3F87FF0FE0
3F87FF0FE0
3F87FF8FE0
3F8FFF8FE0
3F8FFF8FE0
3F8FDF8FC0
3F9FDFCFC0
1FDF9FDFC0
1FDF8FDFC0
1FFF8FFFC0
1FFF0FFFC0
1FFF07FF80
1FFF07FF80
0FFE07FF80
0FFE03FF80
0FFE03FF80
0FFC03FF00
0FFC01FF00
07FC01FF00
07F801FF00
07F800FE00
ENDCHAR
STARTCHAR 0078
ENCODING 120
SWIDTH 488 0
DWIDTH 38 0
BBX 35 37 2 0
BITMAP
FFC0007FE0
FFC0007FC0
7FE000FFC0
3FF001FF80
1FF801FF00
1FF803FF00
0FFC07FE00
07FE07FC00
07FE0FFC00
03FF1FF800
01FF9FF000
00FFBFF000
00FFFFE000
007FFFC000
003FFFC000
001FFF8000
001FFF0000
000FFE0000
000FFF0000
001FFF0000
001FFF8000
003FFFC000
007FFFE000
00FFFFE000
00FFFFF000
01FF3FF800
03FF1FF800
07FE0FFC00
07FC0FFE00
0FFC07FE00
1FF803FF00
1FF003FF00
3FF001FF80
3FE001FFC0
7FE000FFC0
FFC0007FE0
FFC0007FE0
ENDCHAR
STARTCHAR 0079
ENCODING 121
SWIDTH 488 0
DWIDTH 38 0
BBX 35 50 2 -13
BITMAP
7FE0007FE0
7FE0007FC0
7FE000FFC0
3FF000FFC0
3FF000FFC0
3FF000FF80
1FF000FF80
1FF801FF80
1FF801FF00
1FF801FF00
0FFC01FF00
0FFC03FF00
0FFC03FE00
07FC03FE00
07FE03FE00
07FE07FC00
03FE07FC00
03FF07FC00
01FF07FC00
01FF0FF800
01FF8FF800
00FF8FF800
00FFCFF000
00FFDFF000
007FDFF000
007FFFE000
003FFFE000
003FFFE000
001FFFC000
001FFFC000
001FFF8000
000FFF8000
000FFF8000
0007FF0000
0007FF0000
0003FE0000
0003FE0000
0007FE0000
000FFC0000
000FFC0000
001FF80000
707FF80000
7FFFF00000
7FFFE00000
FFFFE00000
FFFFC00000
FFFF800000
FFFF000000
FFFC000000
3FF0000000
ENDCHAR
STARTCHAR 007A
ENCODING 122
SWIDTH 488 0
DWIDTH 38 0
BBX 29 37 5 0
BITMAP
7FFFFFF0
7FFFFFF0
7FFFFFF0
7FFFFFF0
7FFFFFF0
7FFFFFF0
7FFFFFF0
7FFFFFF0
0000FFE0
0001FFC0
0003FFC0
0003FF80
0007FF00
000FFE00
000FFC00
001FF800
003FF800
007FF000
007FE000
00FFC000
01FFC000
01FF8000
03FF0000
07FE0000
0FFE0000
0FFC0000
1FF80000
3FF80000
3FF00000
7FFFFFF8
7FFFFFF8
FFFFFFF8
FFFFFFF8
FFFFFFF8
FFFFFFF8
FFFFFFF8
FFFFFFF8
ENDCHAR
STARTCHAR 007B
ENCODING 123
SWIDTH 488 0
DWIDTH 38 0
BBX 29 67 5 -13
BITMAP
0001FFF8
0007FFF8
001FFFF8
001FFFF8
003FFFF8
007FFFF8
007FFFF8
007FF000
007FC000
007FC000
007FC000
007F8000
007F8000
007F8000
007F8000
007F8000
007F8000
007F8000
007F8000
007F8000
007F8000
007F8000
007F8000
00FF8000
00FF8000
00FF8000
00FF8000
00FF8000
01FF0000
FFFF0000
FFFE0000
FFFC0000
FFF00000
FFC00000
FFF80000
FFFC0000
FFFE0000
03FF0000
01FF0000
00FF8000
00FF8000
00FF8000
00FF8000
007F8000
007F8000
007F8000
007F8000
007F8000
007F8000
007F8000
007F8000
007F8000
007F8000
007F8000
007F8000
007FC000
007FC000
007FC000
007FE000
007FFFF8
007FFFF8
003FFFF8
003FFFF8
001FFFF8
000FFFF8
0007FFF8
00007FF8
ENDCHAR
STARTCHAR 007C
ENCODING 124
SWIDTH 488 0
DWIDTH 38 0
BBX 9 67 15 -13
BITMAP
FF80
FF80
FF80
FF80
FF80
FF80
FF80
FF80
FF80
FF80
FF80
FF80
FF80
FF80
FF80
FF80
FF80
FF80
FF80
FF80
FF80
FF80
FF80
FF80
FF80
FF80
FF80
FF80
FF80
FF80
FF80
FF80
FF80
FF80
FF80
FF80
FF80
FF80
FF80
FF80
FF80
FF80
FF80
FF80
FF80
FF80
FF80
FF80
FF80
FF80
FF80
FF80
FF80
FF80
FF80
FF80
FF80
FF80
FF80
FF80
FF80
FF80
FF80
FF80
FF80
FF80
FF80
ENDCHAR
STARTCHAR 007D
ENCODING 125
SWIDTH 488 0
DWIDTH 38 0
BBX 29 67 5 -13
BITMAP
FFFC0000
FFFF0000
FFFF8000
FFFFC000
FFFFE000
FFFFE000
FFFFF000
007FF000
003FF000
001FF000
001FF000
001FF000
001FF000
001FF000
001FF000
001FF000
001FF000
001FF000
001FF000
001FF000
001FF000
001FF000
001FF000
001FF000
000FF000
000FF000
000FF800
000FF800
0007FC00
0007FFF8
0003FFF8
0001FFF8
00007FF8
00003FF8
0000FFF8
0003FFF8
0007FFF8
0007FC00
000FF800
000FF800
000FF800
000FF000
001FF000
001FF000
001FF000
001FF000
001FF000
001FF000
001FF000
001FF000
001FF000
001FF000
001FF000
001FF000
001FF000
001FF000
001FF000
001FF000
003FF000
FFFFF000
FFFFF000
FFFFE000
FFFFE000
FFFFC000
FFFF8000
FFFE0000
FFF00000
ENDCHAR
STARTCHAR 007E
ENCODING 126
SWIDTH 488 0
DWIDTH 38 0
BBX 36 15 2 13
BITMAP
0070000000
03FE000F80
07FF800FF0
0FFFE00FF0
1FFFF81FE0
3FFFFF7FE0
3FFFFFFFE0
7FFFFFFFC0
7FFFFFFFC0
FFCFFFFF80
FF01FFFF80
FF00FFFF00
FE003FFE00
1E000FF800
000001C000
ENDCHAR
STARTCHAR 00A0
ENCODING 160
SWIDTH 488 0
DWIDTH 38 0
BBX 0 0 0 0
BITMAP
ENDCHAR
STARTCHAR 00A1
ENCODING 161
SWIDTH 488 0
DWIDTH 38 0
BBX 13 49 13 -13
BITMAP
0F80
3FE0
7FF0
FFF0
FFF8
FFF8
FFF8
FFF8
FFF8
7FF0
7FE0
1FC0
0200
0000
0000
0000
0000
0000
3FC0
3FC0
3FE0
3FE0
3FE0
3FE0
3FE0
7FE0
7FE0
7FF0
7FF0
7FF0
7FF0
7FF0
7FF0
7FF0
7FF0
7FF0
7FF0
7FF0
7FF0
7FF0
7FF0
7FF0
7FF0
7FF0
7FF0
7FF0
7FF0
7FF0
7FF0
ENDCHAR
STARTCHAR 00A2
ENCODING 162
SWIDTH 488 0
DWIDTH 38 0
BBX 31 56 4 -8
BITMAP
0003FF00
0003FF00
0003FF00
0003FF00
0003FF00
0003FF00
0003FF00
0003FF00
0003FF00
0003FF00
000FFFF8
007FFFFE
01FFFFFC
03FFFFFC
07FFFFFC
0FFFFFFC
1FFFFFF8
3FFFFFF8
3FFF0038
7FF80000
7FF00000
FFE00000
FFC00000
FFC00000
FFC00000
FFC00000
FF800000
FF800000
FF800000
FF800000
FFC00000
FFC00000
FFC00000
FFE00000
7FF00000
7FF80000
7FFE000C
3FFFFFFC
1FFFFFFC
1FFFFFFE
0FFFFFFE
07FFFFFE
01FFFFFE
00FFFFFE
003FFFFE
0003FFE0
0003FF00
0003FF00
0003FF00
0003FF00
0003FF00
0003FF00
0003FF00
0003FF00
0003FF00
0003FF00
ENDCHAR
STARTCHAR 00A3
ENCODING 163
SWIDTH 488 0
DWIDTH 38 0
BBX 32 49 3 0
BITMAP
0000FFE0
0007FFFC
000FFFFF
003FFFFE
003FFFFE
007FFFFE
00FFFFFC
00FFFFFC
01FFE03C
01FFC000
01FF8000
03FF0000
03FF0000
03FE0000
03FE0000
03FE0000
03FE0000
03FE0000
03FE0000
03FE0000
03FE0000
03FE0000
FFFFFFE0
FFFFFFE0
FFFFFFE0
FFFFFFE0
FFFFFFE0
FFFFFFE0
FFFFFFE0
FFFFFFE0
03FE0000
03FE0000
03FE0000
03FE0000
03FE0000
03FE0000
03FE0000
07FE0000
07FE0000
07FE0000
07FC0000
07FFFFFF
07FFFFFF
07FFFFFF
07FFFFFF
0FFFFFFF
0FFFFFFF
0FFFFFFF
0FFFFFFF
ENDCHAR
STARTCHAR 00A4
ENCODING 164
SWIDTH 488 0
DWIDTH 38 0
BBX 35 34 2 8
BITMAP
0600000C00
0F00001E00
1F80003F00
3FC3F87F80
7FFFFFFFC0
FFFFFFFFE0
FFFFFFFFE0
7FFFFFFFC0
3FFFFFFF80
1FFFFFFF00
0FFFFFFE00
0FFE0FFE00
0FF803FE00
1FF803FF00
1FF001FF00
1FF001FF00
1FF001FF00
1FF001FF00
1FF001FF00
1FF001FF00
1FF803FF00
0FFC07FE00
0FFE0FFE00
0FFFFFFE00
1FFFFFFF00
3FFFFFFF80
7FFFFFFFC0
FFFFFFFFE0
FFFFFFFFE0
7FEFFEFFC0
3FC1607F80
1F80003F00
0F00001E00
0600000C00
ENDCHAR
STARTCHAR 00A5
ENCODING 165
SWIDTH 488 0
DWIDTH 38 0
BBX 37 48 1 0
BITMAP
FFC0001FF8
7FE0001FF0
7FE0003FF0
7FE0003FF0
3FF0003FE0
3FF0007FE0
1FF8007FC0
1FF800FFC0
0FF800FF80
0FFC00FF80
07FC01FF00
07FE01FF00
03FE03FE00
03FE03FE00
01FF03FE00
01FF07FC00
00FF87FC00
00FF8FF800
007FCFF000
003FDFF000
003FFFE000
001FFFE000
1FFFFFFFC0
1FFFFFFFC0
1FFFFFFFC0
1FFFFFFFC0
1FFFFFFFC0
1FFFFFFFC0
1FFFFFFFC0
0003FE0000
0003FE0000
0003FE0000
0003FE0000
1FFFFFFFC0
1FFFFFFFC0
1FFFFFFFC0
1FFFFFFFC0
1FFFFFFFC0
1FFFFFFFC0
1FFFFFFFC0
0003FE0000
0003FE0000
0003FE0000
0003FE0000
0003FE0000
0003FE0000
0003FE0000
0003FE0000
ENDCHAR
STARTCHAR 00A6
ENCODING 166
SWIDTH 488 0
DWIDTH 38 0
BBX 9 67 15 -13
BITMAP
FF80
FF80
FF80
FF80
FF80
FF80
FF80
FF80
FF80
FF80
FF80
FF80
FF80
FF80
FF80
FF80
FF80
FF80
FF80
FF80
FF80
FF80
FF80
FF80
FF80
FF80
FF80
0000
0000
0000
0000
0000
0000
0000
0000
0000
0000
0000
0000
FF80
FF80
FF80
FF80
FF80
FF80
FF80
FF80
FF80
FF80
FF80
FF80
FF80
FF80
FF80
FF80
FF80
FF80
FF80
FF80
FF80
FF80
FF80
FF80
FF80
FF80
FF80
FF80
ENDCHAR
STARTCHAR 00A7
ENCODING 167
SWIDTH 488 0
DWIDTH 38 0
BBX 31 57 4 -8
BITMAP
001FFF00
00FFFFF0
01FFFFFC
07FFFFFC
0FFFFFF8
0FFFFFF8
1FFFFFF8
1FFFFFF0
1FFC01F0
1FF80030
3FF80000
3FF80000
1FF80000
1FFC0000
1FFF0000
0FFFE000
07FFFC00
07FFFF00
07FFFFC0
0FFFFFE0
1FFFFFF0
3FFFFFF8
3FE1FFFC
7FC07FFC
7F801FFC
7F8007FE
FF8003FE
FF8003FE
FF8003FE
FF8003FE
FFC003FE
7FE003FC
7FF807FC
3FFF07F8
3FFFEFF8
1FFFFFF0
0FFFFFE0
03FFFFC0
01FFFFE0
003FFFF0
000FFFF8
0001FFF8
00003FFC
00001FFC
00000FFC
00000FFC
30001FFC
3E003FFC
7FFFFFFC
7FFFFFF8
7FFFFFF8
FFFFFFF0
FFFFFFF0
FFFFFFC0
3FFFFF80
07FFFE00
000F8000
ENDCHAR
STARTCHAR 00A8
ENCODING 168
SWIDTH 488 0
DWIDTH 38 0
BBX 27 10 6 42
BITMAP
1F803F00
3FC07FC0
7FE0FFC0
7FE0FFE0
FFE0FFE0
FFE0FFE0
7FE0FFC0
7FE0FFC0
3FC07F80
1F001F00
ENDCHAR
STARTCHAR 00A9
ENCODING 169
SWIDTH 488 0
DWIDTH 38 0
BBX 35 38 2 -1
BITMAP
0007FC0000
003FFF8000
00FFFFE000
01FFFFF000
03FFFFF800
07FC07FC00
0FF001FE00
1FC0007F00
3F80003F80
3F00F81F80
7F07FE1FC0
7E0FFE0FC0
7C1FFC0FC0
7C3FFC07E0
FC3F0007E0
F83E0007E0
F87C0003E0
F87C0003E0
F87C0003E0
F87C0003E0
F87C0003E0
F87C0003E0
F87E0007E0
FC3F0007E0
FC3FFC07E0
7C1FFE0FC0
7E0FFE0FC0
7E07FE1FC0
3F01F81F80
3F80003F80
1FC0007F00
0FF001FE00
07FC07FC00
03FFFFF800
01FFFFF000
00FFFFE000
003FFF8000
0007FC0000
ENDCHAR
STARTCHAR 00AA
ENCODING 170
SWIDTH 488 0
DWIDTH 38 0
BBX 24 28 8 21
BITMAP
07FF80
1FFFE0
1FFFF8
1FFFFC
1FFFFC
1FFFFE
0E07FE
0001FE
0000FE
0000FE
0000FF
07FFFF
1FFFFF
3FFFFF
7FFFFF
7FFFFF
FF80FF
FF00FF
FF00FF
FF00FF
FF00FF
FFC0FF
7FFFFF
7FFFFF
3FFFFF
1FFFFF
07FFFC
001E00
ENDCHAR
STARTCHAR 00AB
ENCODING 171
SWIDTH 488 0
DWIDTH 38 0
BBX 31 32 4 4
BITMAP
00200020
00380070
007C00FC
00FE00FE
00FE01FC
01FC03FC
03FC03F8
03F807F8
07F80FF0
0FF00FF0
0FE01FE0
1FE01FC0
3FC03FC0
3FC07F80
7F807F80
FF80FF00
FF00FF00
7F80FF80
7FC07F80
3FC03FC0
1FE03FC0
1FE01FE0
0FF00FE0
07F00FF0
07F807F0
03F803F8
01FC03FC
01FE01FC
00FE00FE
007E00FE
007C0078
00300070
ENDCHAR
STARTCHAR 00AC
ENCODING 172
SWIDTH 488 0
DWIDTH 38 0
BBX 32 25 3 3
BITMAP
FFFFFFFF
FFFFFFFF
FFFFFFFF
FFFFFFFF
FFFFFFFF
FFFFFFFF
FFFFFFFF
FFFFFFFF
000000FF
000000FF
000000FF
000000FF
000000FF
000000FF
000000FF
000000FF
000000FF
000000FF
000000FF
000000FF
000000FF
000000FF
000000FF
000000FF
000000FF
ENDCHAR
STARTCHAR 00AD
ENCODING 173
SWIDTH 488 0
DWIDTH 38 0
BBX 21 10 9 15
BITMAP
FFFFF8
FFFFF8
FFFFF8
FFFFF8
FFFFF8
FFFFF8
FFFFF8
FFFFF8
FFFFF8
FFFFF8
ENDCHAR
STARTCHAR 00AE
ENCODING 174
SWIDTH 488 0
DWIDTH 38 0
BBX 35 38 2 -1
BITMAP
0007FC0000
003FFF8000
00FFFFE000
01FFFFF000
03FFFFF800
07FC07FC00
0FF001FE00
1FC0007F00
3F80003F80
3F07E01F80
7F1FFC1FC0
7E1FFE0FC0
7C1FFF0FC0
7C1E1F07E0
FC1E0F87E0
F81E0787E0
F81E0783E0
F81E0F83E0
F81E7F03E0
F81FFF03E0
F81FFE03E0
F81FFC03E0
F81E3C07E0
FC1E1E07E0
FC1E1F07E0
7C1E0F0FC0
7E1E0F8FC0
7E1E079FC0
3F00001F80
3F80003F80
1FC0007F00
0FF001FE00
07FC07FC00
03FFFFF800
01FFFFF000
00FFFFE000
003FFF8000
0007FC0000
ENDCHAR
STARTCHAR 00AF
ENCODING 175
SWIDTH 488 0
DWIDTH 38 0
BBX 23 6 8 44
BITMAP
FFFFFE
FFFFFE
FFFFFE
FFFFFE
FFFFFE
FFFFFE
ENDCHAR
STARTCHAR 00B0
ENCODING 176
SWIDTH 488 0
DWIDTH 38 0
BBX 23 21 8 33
BITMAP
01FF00
07FFC0
0FFFF0
1FFFF0
3FFFF8
7FFFFC
7FC7FC
7F01FC
7F01FE
FE00FE
FE00FE
FE00FE
7F01FE
7F01FC
7FC7FC
7FFFFC
3FFFF8
1FFFF0
0FFFE0
07FFC0
01FF00
ENDCHAR
STARTCHAR 00B1
ENCODING 177
SWIDTH 488 0
DWIDTH 38 0
BBX 33 43 3 0
BITMAP
000FF80000
000FF80000
000FF80000
000FF80000
000FF80000
000FF80000
000FF80000
000FF80000
000FF80000
000FF80000
000FF80000
000FF80000
FFFFFFFF80
FFFFFFFF80
FFFFFFFF80
FFFFFFFF80
FFFFFFFF80
FFFFFFFF80
FFFFFFFF80
FFFFFFFF80
000FF80000
000FF80000
000FF80000
000FF80000
000FF80000
000FF80000
000FF80000
000FF80000
000FF80000
000FF80000
000FF80000
000FF80000
0000000000
0000000000
0000000000
FFFFFFFF80
FFFFFFFF80
FFFFFFFF80
FFFFFFFF80
FFFFFFFF80
FFFFFFFF80
FFFFFFFF80
FFFFFFFF80
ENDCHAR
STARTCHAR 00B2
ENCODING 178
SWIDTH 488 0
DWIDTH 38 0
BBX 21 28 9 21
BITMAP
03FE00
1FFF80
3FFFC0
FFFFE0
FFFFF0
7FFFF0
3FFFF0
3C0FF0
100FF0
000FF0
000FF0
001FF0
003FE0
007FC0
00FFC0
01FF80
03FE00
07FC00
0FF800
1FF000
3FE000
3FC000
3FFFF8
7FFFF8
7FFFF8
7FFFF8
7FFFF8
7FFFF8
ENDCHAR
STARTCHAR 00B3
ENCODING 179
SWIDTH 488 0
DWIDTH 38 0
BBX 21 29 9 20
BITMAP
07FE00
3FFF80
FFFFC0
7FFFE0
7FFFE0
3FFFE0
3E1FE0
100FF0
000FE0
000FE0
001FE0
03FFC0
03FF80
03FFC0
03FFE0
03FFF0
03FFF0
000FF8
0007F8
0007F8
0007F8
700FF8
7FFFF0
7FFFF0
FFFFF0
FFFFE0
FFFFC0
3FFF00
01C000
ENDCHAR
STARTCHAR 00B4
ENCODING 180
SWIDTH 488 0
DWIDTH 38 0
BBX 17 13 12 41
BITMAP
003800
007C00
01FC00
03FE00
07FF00
1FFF00
3FFF80
FFFE00
FFF800
7FE000
3F8000
3E0000
180000
ENDCHAR
STARTCHAR 00B5
ENCODING 181
SWIDTH 488 0
DWIDTH 38 0
BBX 29 50 5 -13
BITMAP
FF801FF8
FF801FF8
FF801FF8
FF801FF8
FF801FF8
FF801FF8
FF801FF8
FF801FF8
FF801FF8
FF801FF8
FF801FF8
FF801FF8
FF801FF8
FF801FF8
FF801FF8
FF801FF8
FF801FF8
FF801FF8
FF801FF8
FF801FF8
FF801FF8
FF801FF8
FF801FF8
FF801FF8
FF801FF8
FFC01FF8
FFC01FF8
FFE01FF8
FFE01FF8
FFFEFFF8
FFFFFFF8
FFFFFFF8
FFFFFFF8
FFFFFFF8
FFFFFFF8
FFFFFFF8
FFFFFFC0
FF8FF800
FF800000
FF800000
FF800000
FF800000
FF800000
FF800000
FF800000
FF800000
FF800000
FF800000
FF800000
FF800000
ENDCHAR
STARTCHAR 00B6
ENCODING 182
SWIDTH 488 0
DWIDTH 38 0
BBX 34 62 1 -13
BITMAP
00007E0000
001FFFFF80
007FFFFFC0
01FFFFFFC0
07FFFFFFC0
0FFFFFFFC0
1FFFFFFFC0
1FFFFFFFC0
3FFFF01FC0
3FFFF01FC0
7FFFF01FC0
7FFFF01FC0
7FFFF01FC0
7FFFF01FC0
FFFFF01FC0
FFFFF01FC0
FFFFF01FC0
7FFFF01FC0
7FFFF01FC0
7FFFF01FC0
7FFFF01FC0
7FFFF01FC0
7FFFF01FC0
3FFFF01FC0
3FFFF01FC0
1FFFF01FC0
0FFFF01FC0
07FFF01FC0
03FFF01FC0
00FFF01FC0
001FF01FC0
000FF01FC0
000FF01FC0
000FF01FC0
000FF01FC0
000FF01FC0
000FF01FC0
000FF01FC0
000FF01FC0
000FF01FC0
000FF01FC0
000FF01FC0
000FF01FC0
000FF01FC0
000FF01FC0
000FF01FC0
000FF01FC0
000FF01FC0
000FF01FC0
000FF01FC0
000FF01FC0
000FF01FC0
000FF01FC0
000FF01FC0
000FF01FC0
000FF01FC0
000FF01FC0
000FF01FC0
000FF01FC0
000FF01FC0
000FF01FC0
000FF01FC0
ENDCHAR
STARTCHAR 00B7
ENCODING 183
SWIDTH 488 0
DWIDTH 38 0
BBX 13 13 13 14
BITMAP
1FC0
7FF0
7FF0
FFF8
FFF8
FFF8
FFF8
FFF8
FFF8
FFF8
7FF0
3FE0
1FC0
ENDCHAR
STARTCHAR 00B8
ENCODING 184
SWIDTH 488 0
DWIDTH 38 0
BBX 15 14 13 -13
BITMAP
07E0
07E0
0FE0
0FF0
0FF8
01FC
00FE
00FE
81FE
FFFE
FFFC
FFFC
FFF8
FFE0
ENDCHAR
STARTCHAR 00B9
ENCODING 185
SWIDTH 488 0
DWIDTH 38 0
BBX 23 28 10 21
BITMAP
003F00
007F00
01FF00
03FF00
0FFF00
7FFF00
FFFF00
7FFF00
7FFF00
7F7F00
3C7F00
307F00
007F00
007F00
007F00
007F00
007F00
007F00
007F00
007F00
007F00
007F00
7FFFFE
7FFFFE
7FFFFE
7FFFFE
7FFFFE
7FFFFE
ENDCHAR
STARTCHAR 00BA
ENCODING 186
SWIDTH 488 0
DWIDTH 38 0
BBX 27 28 6 21
BITMAP
007FC000
03FFF800
07FFFC00
0FFFFE00
1FFFFF00
3FFFFF80
7FFFFF80
7FC0FFC0
7F807FC0
FF803FC0
FF003FE0
FF001FE0
FF001FE0
FF001FE0
FF001FE0
FF001FE0
FF001FE0
FF003FE0
FF803FC0
7FC07FC0
7FF1FFC0
3FFFFF80
3FFFFF00
1FFFFF00
0FFFFE00
07FFF800
01FFF000
003F0000
ENDCHAR
STARTCHAR 00BB
ENCODING 187
SWIDTH 488 0
DWIDTH 38 0
BBX 31 32 4 4
BITMAP
08000800
1C003800
7C007C00
FE00FE00
7F00FE00
7F007F00
3F807F80
3FC03F80
1FC03FC0
1FE01FE0
0FF00FE0
0FF00FF0
07F807F8
03FC07F8
03FC03FC
01FE03FE
01FE01FE
03FE03FC
03FC07FC
07F807F8
07F80FF0
0FF00FF0
0FE01FE0
1FE01FC0
1FC03FC0
3F803F80
7F807F00
7F00FF00
FF00FE00
FE00FC00
3C007C00
1C001800
ENDCHAR
STARTCHAR 00BC
ENCODING 188
SWIDTH 488 0
DWIDTH 38 0
BBX 39 49 0 0
BITMAP
00F8000000
01F8001FE0
03F8003FC0
0FF8003FC0
1FF8007F80
7FF8007F00
FFF800FF00
7FF800FE00
7DF801FE00
71F801FC00
01F803FC00
01F803F800
01F807F800
01F807F000
01F80FF000
01F80FE000
01F81FE000
01F81FC000
01F83FC000
01F87F8000
00007F8000
0000FF0000
0000FF0000
0001FE0000
0001FE0000
0003FC0000
0003FC0000
0007F80000
0007F80000
000FF00000
000FF01FF0
001FE03FF0
001FE03FF0
003FC07FF0
003FC0FFF0
007F80FFF0
007F81F7F0
00FF01F7F0
00FF03E7F0
01FE07C7F0
01FE07C7F0
03FC0FFFFE
03FC0FFFFE
07F80FFFFE
07F80FFFFE
0FF00FFFFE
0FE00007F0
1FE00007F0
1FC00007F0
ENDCHAR
STARTCHAR 00BD
ENCODING 189
SWIDTH 488 0
DWIDTH 38 0
BBX 38 49 0 0
BITMAP
00F8000000
01F8001FE0
03F8003FC0
0FF8003FC0
1FF8007F80
7FF8007F00
FFF800FF00
7FF800FE00
7DF801FE00
71F801FC00
01F803FC00
01F803F800
01F807F800
01F807F000
01F80FF000
01F80FE000
01F81FE000
01F81FC000
01F83FC000
01F87F8000
00007F8000
0000FF0000
0000FF0000
0001FE0000
0001FE0000
0003FC0000
0003FC0000
0007F80000
0007F80000
000FF03FC0
000FF0FFF0
001FE3FFF8
001FE3FFF8
003FC3FFFC
003FC1F3FC
007F80C1FC
007F8001FC
00FF0001F8
00FF0003F8
01FE000FF0
01FE001FE0
03FC007FC0
03FC00FF00
07F801FE00
07F803FFFC
0FF003FFFC
0FE003FFFC
1FE003FFFC
1FC003FFFC
ENDCHAR
STARTCHAR 00BE
ENCODING 190
SWIDTH 488 0
DWIDTH 38 0
BBX 38 49 1 0
BITMAP
1FF8000000
7FFC001FE0
7FFE001FC0
7FFF003FC0
3FFF003F80
207F007F80
007F007F00
0FFF00FF00
0FFE00FE00
0FFC01FE00
0FFF01FC00
0FFF03FC00
007F87F800
003F87F800
403F8FF000
7DFF8FF000
7FFF9FE000
FFFF1FE000
FFFE3FC000
7FF83FC000
00007F8000
00007F8000
0000FF0000
0000FF0000
0001FE0000
0001FE0000
0003FC0000
0003FC0000
0007F80000
0007F80000
000FF03FE0
000FF07FE0
001FE07FE0
001FE0FFE0
003FC1FFE0
003FC1FFE0
007F83EFE0
007F03EFE0
00FF07CFE0
00FE0F8FE0
01FE0F8FE0
01FC1FFFFC
03FC1FFFFC
03F81FFFFC
07F81FFFFC
07F01FFFFC
0FF0000FE0
0FE0000FE0
1FE0000FE0
ENDCHAR
STARTCHAR 00BF
ENCODING 191
SWIDTH 488 0
DWIDTH 38 0
BBX 29 49 5 -13
BITMAP
0007E000
000FF800
001FFC00
003FFC00
003FFE00
003FFE00
003FFE00
003FFE00
003FFC00
001FFC00
001FF800
000FF000
00008000
00000000
00000000
00000000
00000000
00000000
000FF800
000FF800
000FF800
001FF800
001FF800
003FF800
007FF000
00FFF000
01FFE000
03FFC000
07FF8000
0FFF0000
1FFE0000
3FFC0000
7FF80000
7FF00000
7FE00000
FFE00000
FFC00000
FFE00000
FFE00000
7FF000E0
7FF807E0
7FFFFFE0
3FFFFFF0
3FFFFFF0
1FFFFFF0
0FFFFFF8
07FFFFE0
01FFFF80
007FF800
ENDCHAR
STARTCHAR 00C0
ENCODING 192
SWIDTH 488 0
DWIDTH 38 0
BBX 37 64 1 1
BITMAP
0003000000
0007800000
000FE00000
000FF00000
001FFC0000
003FFE0000
003FFF0000
001FFFC000
0007FFC000
0001FFC000
00007F8000
00001F0000
0000070000
0000000000
0000000000
0000000000
0007FF0000
0007FF0000
0007FF8000
000FFF8000
000FFF8000
000FFFC000
001FFFC000
001FFFC000
001FFFE000
003FFFE000
003FDFE000
003FDFE000
007F9FF000
007F8FF000
007F8FF000
007F8FF800
00FF0FF800
00FF07F800
00FF07F800
01FF07FC00
01FE07FC00
01FE03FC00
03FE03FE00
03FE03FE00
03FC03FE00
03FC03FE00
07FC01FF00
07FC01FF00
07FC01FF00
0FFFFFFF80
0FFFFFFF80
0FFFFFFF80
0FFFFFFF80
1FFFFFFFC0
1FFFFFFFC0
1FFFFFFFC0
1FFFFFFFC0
3FF0007FE0
3FF0007FE0
3FE0007FE0
3FE0007FE0
7FE0003FF0
7FE0003FF0
7FE0003FF0
7FC0003FF0
FFC0003FF8
FFC0001FF8
FFC0001FF8
ENDCHAR
STARTCHAR 00C1
ENCODING 193
SWIDTH 488 0
DWIDTH 38 0
BBX 37 64 1 1
BITMAP
0000060000
00001F0000
00003F0000
0000FF8000
0001FF8000
0003FFC000
000FFFE000
001FFF8000
003FFE0000
001FF80000
000FE00000
000F800000
0006000000
0000000000
0000000000
0000000000
0007FF0000
0007FF0000
0007FF8000
000FFF8000
000FFF8000
000FFFC000
001FFFC000
001FFFC000
001FFFE000
003FFFE000
003FDFE000
003FDFE000
007F9FF000
007F8FF000
007F8FF000
007F8FF800
00FF0FF800
00FF07F800
00FF07F800
01FF07FC00
01FE07FC00
01FE03FC00
03FE03FE00
03FE03FE00
03FC03FE00
03FC03FE00
07FC01FF00
07FC01FF00
07FC01FF00
0FFFFFFF80
0FFFFFFF80
0FFFFFFF80
0FFFFFFF80
1FFFFFFFC0
1FFFFFFFC0
1FFFFFFFC0
1FFFFFFFC0
3FF0007FE0
3FF0007FE0
3FE0007FE0
3FE0007FE0
7FE0003FF0
7FE0003FF0
7FE0003FF0
7FC0003FF0
FFC0003FF8
FFC0001FF8
FFC0001FF8
ENDCHAR
STARTCHAR 00C2
ENCODING 194
SWIDTH 488 0
DWIDTH 38 0
BBX 37 64 1 1
BITMAP
0000700000
0000F80000
0001FC0000
0003FE0000
0007FF0000
000FFF8000
003FFFE000
007FFFF000
00FFDFF800
00FF8FF800
007F03F000
003C01E000
001800C000
0000004000
0000000000
0000000000
0007FF0000
0007FF0000
0007FF8000
000FFF8000
000FFF8000
000FFFC000
001FFFC000
001FFFC000
001FFFE000
003FFFE000
003FDFE000
003FDFE000
007F9FF000
007F8FF000
007F8FF000
007F8FF800
00FF0FF800
00FF07F800
00FF07F800
01FF07FC00
01FE07FC00
01FE03FC00
03FE03FE00
03FE03FE00
03FC03FE00
03FC03FE00
07FC01FF00
07FC01FF00
07FC01FF00
0FFFFFFF80
0FFFFFFF80
0FFFFFFF80
0FFFFFFF80
1FFFFFFFC0
1FFFFFFFC0
1FFFFFFFC0
1FFFFFFFC0
3FF0007FE0
3FF0007FE0
3FE0007FE0
3FE0007FE0
7FE0003FF0
7FE0003FF0
7FE0003FF0
7FC0003FF0
FFC0003FF8
FFC0001FF8
FFC0001FF8
ENDCHAR
STARTCHAR 00C3
ENCODING 195
SWIDTH 488 0
DWIDTH 38 0
BBX 37 63 1 0
BITMAP
0006002000
001FC07800
007FF8FC00
00FFFFFE00
01FFFFFC00
01FFFFFC00
03FFFFF800
03FFFFF000
01F03FE000
00600FC000
0020000000
0000000000
0000000000
0000000000
0000000000
0007FF0000
0007FF0000
0007FF8000
000FFF8000
000FFF8000
000FFFC000
001FFFC000
001FFFC000
001FFFE000
003FFFE000
003FDFE000
003FDFE000
007F9FF000
007F8FF000
007F8FF000
007F8FF800
00FF0FF800
00FF07F800
00FF07F800
01FF07FC00
01FE07FC00
01FE03FC00
03FE03FE00
03FE03FE00
03FC03FE00
03FC03FE00
07FC01FF00
07FC01FF00
07FC01FF00
0FFFFFFF80
0FFFFFFF80
0FFFFFFF80
0FFFFFFF80
1FFFFFFFC0
1FFFFFFFC0
1FFFFFFFC0
1FFFFFFFC0
3FF0007FE0
3FF0007FE0
3FE0007FE0
3FE0007FE0
7FE0003FF0
7FE0003FF0
7FE0003FF0
7FC0003FF0
FFC0003FF8
FFC0001FF8
FFC0001FF8
ENDCHAR
STARTCHAR 00C4
ENCODING 196
SWIDTH 488 0
DWIDTH 38 0
BBX 37 63 1 0
BITMAP
00F800F800
01FE03FC00
03FF03FE00
03FF07FE00
07FF07FF00
07FF07FF00
03FF07FF00
03FF07FE00
01FE03FE00
00FC01F800
0000000000
0000000000
0000000000
0000000000
0000000000
0007FF0000
0007FF0000
0007FF8000
000FFF8000
000FFF8000
000FFFC000
001FFFC000
001FFFC000
001FFFE000
003FFFE000
003FDFE000
003FDFE000
007F9FF000
007F8FF000
007F8FF000
007F8FF800
00FF0FF800
00FF07F800
00FF07F800
01FF07FC00
01FE07FC00
01FE03FC00
03FE03FE00
03FE03FE00
03FC03FE00
03FC03FE00
07FC01FF00
07FC01FF00
07FC01FF00
0FFFFFFF80
0FFFFFFF80
0FFFFFFF80
0FFFFFFF80
1FFFFFFFC0
1FFFFFFFC0
1FFFFFFFC0
1FFFFFFFC0
3FF0007FE0
3FF0007FE0
3FE0007FE0
3FE0007FE0
7FE0003FF0
7FE0003FF0
7FE0003FF0
7FC0003FF0
FFC0003FF8
FFC0001FF8
FFC0001FF8
ENDCHAR
STARTCHAR 00C5
ENCODING 197
SWIDTH 488 0
DWIDTH 38 0
BBX 37 61 1 0
BITMAP
0001FC0000
0007FF0000
000FFF8000
001FFFC000
001FDFC000
003F07C000
003E07E000
003E03E000
003E07E000
003F07C000
001F8FC000
001FFFC000
000FFF8000
000FFF0000
0007FF0000
000FFF8000
000FFF8000
000FFF8000
000FFFC000
001FFFC000
001FFFC000
001FFFC000
003FFFE000
003FDFE000
003FDFE000
007F9FF000
007F8FF000
007F8FF000
007F8FF800
00FF0FF800
00FF07F800
00FF07F800
01FF07FC00
01FE07FC00
01FE03FC00
03FE03FE00
03FE03FE00
03FC03FE00
03FC03FE00
07FC01FF00
07FC01FF00
07FC01FF00
0FFFFFFF80
0FFFFFFF80
0FFFFFFF80
0FFFFFFF80
1FFFFFFFC0
1FFFFFFFC0
1FFFFFFFC0
1FFFFFFFC0
3FF0007FE0
3FF0007FE0
3FE0007FE0
3FE0007FE0
7FE0003FF0
7FE0003FF0
7FE0003FF0
7FC0003FF0
FFC0003FF8
FFC0001FF8
FFC0001FF8
ENDCHAR
STARTCHAR 00C6
ENCODING 198
SWIDTH 488 0
DWIDTH 38 0
BBX 37 48 1 0
BITMAP
0003FFFFF0
0003FFFFF0
0007FFFFF0
0007FFFFF0
0007FFFFF0
000FFFFFF0
000FFFFFF0
000FFFFFF0
001FDFF000
001FDFF000
001FDFF000
003FDFF000
003F9FF000
003F9FF000
007F9FF000
007F9FF000
007F1FF000
00FF1FF000
00FF1FF000
00FF1FFFC0
01FE1FFFC0
01FE1FFFC0
01FE1FFFC0
03FE1FFFC0
03FC1FFFC0
03FC1FFFC0
07FC1FF000
07FC1FF000
07FC1FF000
07FFFFF000
0FFFFFF000
0FFFFFF000
0FFFFFF000
1FFFFFF000
1FFFFFF000
1FFFFFF000
1FFFFFF000
3FF01FF000
3FE01FF000
3FE01FF000
3FE01FFFF8
7FE01FFFF8
7FE01FFFF8
7FE01FFFF8
7FC01FFFF8
FFC01FFFF8
FFC01FFFF8
FFC01FFFF8
ENDCHAR
STARTCHAR 00C7
ENCODING 199
SWIDTH 488 0
DWIDTH 38 0
BBX 34 62 2 -13
BITMAP
0000FFF000
0007FFFE00
001FFFFF80
007FFFFFC0
00FFFFFFC0
01FFFFFFC0
03FFFFFF80
07FFFFFF80
07FFE03F80
0FFF000700
1FFE000100
1FFC000000
3FF8000000
3FF0000000
3FF0000000
7FE0000000
7FE0000000
7FE0000000
7FC0000000
FFC0000000
FFC0000000
FFC0000000
FFC0000000
FFC0000000
FFC0000000
FFC0000000
FFC0000000
FFC0000000
FFC0000000
FFC0000000
FFC0000000
7FC0000000
7FE0000000
7FE0000000
7FE0000000
7FF0000000
3FF0000000
3FF8000000
3FFC000000
1FFE000100
1FFF000780
0FFFF07F80
07FFFFFF80
07FFFFFF80
03FFFFFFC0
01FFFFFFC0
007FFFFFC0
003FFFFF80
000FFFFC00
0000FFC000
0001F80000
0001FE0000
0001FF0000
00003F8000
00001FC000
00001FC000
00103FC000
001FFFC000
001FFF8000
001FFF8000
001FFF0000
001FFC0000
ENDCHAR
STARTCHAR 00C8
ENCODING 200
SWIDTH 488 0
DWIDTH 38 0
BBX 31 64 5 1
BITMAP
00300000
00780000
00FE0000
00FF0000
01FFC000
03FFE000
03FFF000
01FFFC00
007FFC00
001FFC00
0007F800
0001F000
00007000
00000000
00000000
00000000
FFFFFFF8
FFFFFFF8
FFFFFFF8
FFFFFFF8
FFFFFFF8
FFFFFFF8
FFFFFFF8
FFFFFFF8
FF800000
FF800000
FF800000
FF800000
FF800000
FF800000
FF800000
FF800000
FF800000
FF800000
FF800000
FFFFFFE0
FFFFFFE0
FFFFFFE0
FFFFFFE0
FFFFFFE0
FFFFFFE0
FFFFFFE0
FFFFFFE0
FF800000
FF800000
FF800000
FF800000
FF800000
FF800000
FF800000
FF800000
FF800000
FF800000
FF800000
FF800000
FF800000
FFFFFFFE
FFFFFFFE
FFFFFFFE
FFFFFFFE
FFFFFFFE
FFFFFFFE
FFFFFFFE
FFFFFFFE
ENDCHAR
STARTCHAR 00C9
ENCODING 201
SWIDTH 488 0
DWIDTH 38 0
BBX 31 64 5 1
BITMAP
00006000
0001F000
0003F000
000FF800
001FF800
003FFC00
00FFFE00
01FFF800
03FFE000
01FF8000
00FE0000
00F80000
00600000
00000000
00000000
00000000
FFFFFFF8
FFFFFFF8
FFFFFFF8
FFFFFFF8
FFFFFFF8
FFFFFFF8
FFFFFFF8
FFFFFFF8
FF800000
FF800000
FF800000
FF800000
FF800000
FF800000
FF800000
FF800000
FF800000
FF800000
FF800000
FFFFFFE0
FFFFFFE0
FFFFFFE0
FFFFFFE0
FFFFFFE0
FFFFFFE0
FFFFFFE0
FFFFFFE0
FF800000
FF800000
FF800000
FF800000
FF800000
FF800000
FF800000
FF800000
FF800000
FF800000
FF800000
FF800000
FF800000
FFFFFFFE
FFFFFFFE
FFFFFFFE
FFFFFFFE
FFFFFFFE
FFFFFFFE
FFFFFFFE
FFFFFFFE
ENDCHAR
STARTCHAR 00CA
ENCODING 202
SWIDTH 488 0
DWIDTH 38 0
BBX 31 64 5 1
BITMAP
00070000
000F8000
001FC000
003FE000
007FF000
00FFF800
03FFFE00
07FFFF00
0FFDFF80
0FF8FF80
07F03F00
03C01E00
01800C00
00000400
00000000
00000000
FFFFFFF8
FFFFFFF8
FFFFFFF8
FFFFFFF8
FFFFFFF8
FFFFFFF8
FFFFFFF8
FFFFFFF8
FF800000
FF800000
FF800000
FF800000
FF800000
FF800000
FF800000
FF800000
FF800000
FF800000
FF800000
FFFFFFE0
FFFFFFE0
FFFFFFE0
FFFFFFE0
FFFFFFE0
FFFFFFE0
FFFFFFE0
FFFFFFE0
FF800000
FF800000
FF800000
FF800000
FF800000
FF800000
FF800000
FF800000
FF800000
FF800000
FF800000
FF800000
FF800000
FFFFFFFE
FFFFFFFE
FFFFFFFE
FFFFFFFE
FFFFFFFE
FFFFFFFE
FFFFFFFE
FFFFFFFE
ENDCHAR
STARTCHAR 00CB
ENCODING 203
SWIDTH 488 0
DWIDTH 38 0
BBX 31 63 5 0
BITMAP
0F800F80
1FE03FC0
3FF03FE0
3FF07FE0
7FF07FF0
7FF07FF0
3FF07FF0
3FF07FE0
1FE03FE0
0FC01F80
00000000
00000000
00000000
00000000
00000000
FFFFFFF8
FFFFFFF8
FFFFFFF8
FFFFFFF8
FFFFFFF8
FFFFFFF8
FFFFFFF8
FFFFFFF8
FF800000
FF800000
FF800000
FF800000
FF800000
FF800000
FF800000
FF800000
FF800000
FF800000
FF800000
FFFFFFE0
FFFFFFE0
FFFFFFE0
FFFFFFE0
FFFFFFE0
FFFFFFE0
FFFFFFE0
FFFFFFE0
FF800000
FF800000
FF800000
FF800000
FF800000
FF800000
FF800000
FF800000
FF800000
FF800000
FF800000
FF800000
FF800000
FFFFFFFE
FFFFFFFE
FFFFFFFE
FFFFFFFE
FFFFFFFE
FFFFFFFE
FFFFFFFE
FFFFFFFE
ENDCHAR
STARTCHAR 00CC
ENCODING 204
SWIDTH 488 0
DWIDTH 38 0
BBX 31 64 4 1
BITMAP
00180000
003C0000
007F0000
007F8000
00FFE000
01FFF000
01FFF800
00FFFE00
003FFE00
000FFE00
0003FC00
0000F800
00003800
00000000
00000000
00000000
FFFFFFFE
FFFFFFFE
FFFFFFFE
FFFFFFFE
FFFFFFFE
FFFFFFFE
FFFFFFFE
FFFFFFFE
001FF000
001FF000
001FF000
001FF000
001FF000
001FF000
001FF000
001FF000
001FF000
001FF000
001FF000
001FF000
001FF000
001FF000
001FF000
001FF000
001FF000
001FF000
001FF000
001FF000
001FF000
001FF000
001FF000
001FF000
001FF000
001FF000
001FF000
001FF000
001FF000
001FF000
001FF000
001FF000
FFFFFFFE
FFFFFFFE
FFFFFFFE
FFFFFFFE
FFFFFFFE
FFFFFFFE
FFFFFFFE
FFFFFFFE
ENDCHAR
STARTCHAR 00CD
ENCODING 205
SWIDTH 488 0
DWIDTH 38 0
BBX 31 64 4 1
BITMAP
00003000
0000F800
0001F800
0007FC00
000FFC00
001FFE00
007FFF00
00FFFC00
01FFF000
00FFC000
007F0000
007C0000
00300000
00000000
00000000
00000000
FFFFFFFE
FFFFFFFE
FFFFFFFE
FFFFFFFE
FFFFFFFE
FFFFFFFE
FFFFFFFE
FFFFFFFE
001FF000
001FF000
001FF000
001FF000
001FF000
001FF000
001FF000
001FF000
001FF000
001FF000
001FF000
001FF000
001FF000
001FF000
001FF000
001FF000
001FF000
001FF000
001FF000
001FF000
001FF000
001FF000
001FF000
001FF000
001FF000
001FF000
001FF000
001FF000
001FF000
001FF000
001FF000
001FF000
FFFFFFFE
FFFFFFFE
FFFFFFFE
FFFFFFFE
FFFFFFFE
FFFFFFFE
FFFFFFFE
FFFFFFFE
ENDCHAR
STARTCHAR 00CE
ENCODING 206
SWIDTH 488 0
DWIDTH 38 0
BBX 31 64 4 1
BITMAP
00038000
0007C000
000FE000
001FF000
003FF800
007FFC00
01FFFF00
03FFFF80
07FEFFC0
07FC7FC0
03F81F80
01E00F00
00C00600
00000200
00000000
00000000
FFFFFFFE
FFFFFFFE
FFFFFFFE
FFFFFFFE
FFFFFFFE
FFFFFFFE
FFFFFFFE
FFFFFFFE
001FF000
001FF000
001FF000
001FF000
001FF000
001FF000
001FF000
001FF000
001FF000
001FF000
001FF000
001FF000
001FF000
001FF000
001FF000
001FF000
001FF000
001FF000
001FF000
001FF000
001FF000
001FF000
001FF000
001FF000
001FF000
001FF000
001FF000
001FF000
001FF000
001FF000
001FF000
001FF000
FFFFFFFE
FFFFFFFE
FFFFFFFE
FFFFFFFE
FFFFFFFE
FFFFFFFE
FFFFFFFE
FFFFFFFE
ENDCHAR
STARTCHAR 00CF
ENCODING 207
SWIDTH 488 0
DWIDTH 38 0
BBX 31 63 4 0
BITMAP
07C007C0
0FF01FE0
1FF81FF0
1FF83FF0
3FF83FF8
3FF83FF8
1FF83FF8
1FF83FF0
0FF01FF0
07E00FC0
00000000
00000000
00000000
00000000
00000000
FFFFFFFE
FFFFFFFE
FFFFFFFE
FFFFFFFE
FFFFFFFE
FFFFFFFE
FFFFFFFE
FFFFFFFE
001FF000
001FF000
001FF000
001FF000
001FF000
001FF000
001FF000
001FF000
001FF000
001FF000
001FF000
001FF000
001FF000
001FF000
001FF000
001FF000
001FF000
001FF000
001FF000
001FF000
001FF000
001FF000
001FF000
001FF000
001FF000
001FF000
001FF000
001FF000
001FF000
001FF000
001FF000
001FF000
FFFFFFFE
FFFFFFFE
FFFFFFFE
FFFFFFFE
FFFFFFFE
FFFFFFFE
FFFFFFFE
FFFFFFFE
ENDCHAR
STARTCHAR 00D0
ENCODING 208
SWIDTH 488 0
DWIDTH 38 0
BBX 36 50 1 -1
BITMAP
001FC00000
07FFFE0000
07FFFFC000
07FFFFE000
07FFFFF800
07FFFFFC00
07FFFFFE00
07FFFFFE00
07FFFFFF00
07FC0FFF80
07FC03FF80
07FC01FFC0
07FC00FFC0
07FC00FFC0
07FC007FE0
07FC007FE0
07FC007FE0
07FC007FE0
07FC003FE0
07FC003FE0
FFFFF03FF0
FFFFF03FF0
FFFFF03FF0
FFFFF03FF0
FFFFF03FF0
FFFFF03FF0
FFFFF03FF0
FFFFF03FF0
07FC003FF0
07FC003FF0
07FC003FE0
07FC007FE0
07FC007FE0
07FC007FE0
07FC007FE0
07FC00FFC0
07FC00FFC0
07FC01FFC0
07FC03FF80
07FC07FF80
07FC0FFF00
07FFFFFF00
07FFFFFE00
07FFFFFC00
07FFFFF800
07FFFFF000
07FFFFE000
07FFFF8000
07FFFC0000
000F000000
ENDCHAR
STARTCHAR 00D1
ENCODING 209
SWIDTH 488 0
DWIDTH 38 0
BBX 31 63 4 0
BITMAP
00300100
00FE03C0
03FFC7E0
07FFFFF0
0FFFFFE0
0FFFFFE0
1FFFFFC0
1FFFFF80
0F81FF00
03007E00
01000000
00000000
00000000
00000000
00000000
FF0001FE
FF0001FE
FF8001FE
FF8001FE
FFC001FE
FFE001FE
FFE001FE
FFF001FE
FFF001FE
FFF801FE
FFF801FE
FFFC01FE
FFFC01FE
FFFE01FE
FFFE01FE
FFFF01FE
FFFF81FE
FF7F81FE
FF3FC1FE
FF3FC1FE
FF1FE1FE
FF1FE1FE
FF0FE1FE
FF0FF1FE
FF07F1FE
FF07F9FE
FF03F9FE
FF03FDFE
FF01FDFE
FF01FFFE
FF00FFFE
FF00FFFE
FF007FFE
FF007FFE
FF003FFE
FF003FFE
FF001FFE
FF001FFE
FF001FFE
FF000FFE
FF000FFE
FF0007FE
FF0007FE
FF0003FE
FF0003FE
FF0001FE
FF0001FE
FF0001FE
ENDCHAR
STARTCHAR 00D2
ENCODING 210
SWIDTH 488 0
DWIDTH 38 0
BBX 35 65 2 0
BITMAP
0006000000
000F000000
001FC00000
001FE00000
003FF80000
007FFC0000
007FFE0000
003FFF8000
000FFF8000
0003FF8000
0000FF0000
00003E0000
00000E0000
0000000000
0000000000
000FFE0000
003FFF8000
00FFFFE000
01FFFFF000
03FFFFF800
07FFFFFC00
0FFFFFFE00
0FFFFFFE00
1FFE0FFF00
1FF807FF00
3FF803FF80
3FF001FF80
3FE000FF80
7FE000FFC0
7FE000FFC0
7FE000FFC0
7FC0007FC0
7FC0007FC0
FFC0007FC0
FFC0007FE0
FFC0007FE0
FFC0007FE0
FFC0007FE0
FFC0007FE0
FFC0007FE0
FFC0007FE0
FFC0007FE0
FFC0007FE0
FFC0007FE0
FFC0007FE0
FFC0007FE0
FFC0007FC0
7FC0007FC0
7FC000FFC0
7FE000FFC0
7FE000FFC0
7FE000FF80
3FE001FF80
3FF001FF80
3FF803FF00
1FFC07FF00
1FFF1FFF00
0FFFFFFE00
0FFFFFFC00
07FFFFFC00
03FFFFF800
01FFFFF000
00FFFFC000
003FFF8000
0007FC0000
ENDCHAR
STARTCHAR 00D3
ENCODING 211
SWIDTH 488 0
DWIDTH 38 0
BBX 35 65 2 0
BITMAP
00000C0000
00003E0000
00007E0000
0001FF0000
0003FF0000
0007FF8000
001FFFC000
003FFF0000
007FFC0000
003FF00000
001FC00000
001F000000
000C000000
0000000000
0000000000
000FFE0000
003FFF8000
00FFFFE000
01FFFFF000
03FFFFF800
07FFFFFC00
0FFFFFFE00
0FFFFFFE00
1FFE0FFF00
1FF807FF00
3FF803FF80
3FF001FF80
3FE000FF80
7FE000FFC0
7FE000FFC0
7FE000FFC0
7FC0007FC0
7FC0007FC0
FFC0007FC0
FFC0007FE0
FFC0007FE0
FFC0007FE0
FFC0007FE0
FFC0007FE0
FFC0007FE0
FFC0007FE0
FFC0007FE0
FFC0007FE0
FFC0007FE0
FFC0007FE0
FFC0007FE0
FFC0007FC0
7FC0007FC0
7FC000FFC0
7FE000FFC0
7FE000FFC0
7FE000FF80
3FE001FF80
3FF001FF80
3FF803FF00
1FFC07FF00
1FFF1FFF00
0FFFFFFE00
0FFFFFFC00
07FFFFFC00
03FFFFF800
01FFFFF000
00FFFFC000
003FFF8000
0007FC0000
ENDCHAR
STARTCHAR 00D4
ENCODING 212
SWIDTH 488 0
DWIDTH 38 0
BBX 35 65 2 0
BITMAP
0000E00000
0001F00000
0003F80000
0007FC0000
000FFE0000
001FFF0000
007FFFC000
00FFFFE000
01FFBFF000
01FF1FF000
00FE07E000
007803C000
0030018000
0000008000
0000000000
000FFE0000
003FFF8000
00FFFFE000
01FFFFF000
03FFFFF800
07FFFFFC00
0FFFFFFE00
0FFFFFFE00
1FFE0FFF00
1FF807FF00
3FF803FF80
3FF001FF80
3FE000FF80
7FE000FFC0
7FE000FFC0
7FE000FFC0
7FC0007FC0
7FC0007FC0
FFC0007FC0
FFC0007FE0
FFC0007FE0
FFC0007FE0
FFC0007FE0
FFC0007FE0
FFC0007FE0
FFC0007FE0
FFC0007FE0
FFC0007FE0
FFC0007FE0
FFC0007FE0
FFC0007FE0
FFC0007FC0
7FC0007FC0
7FC000FFC0
7FE000FFC0
7FE000FFC0
7FE000FF80
3FE001FF80
3FF001FF80
3FF803FF00
1FFC07FF00
1FFF1FFF00
0FFFFFFE00
0FFFFFFC00
07FFFFFC00
03FFFFF800
01FFFFF000
00FFFFC000
003FFF8000
0007FC0000
ENDCHAR
STARTCHAR 00D5
ENCODING 213
SWIDTH 488 0
DWIDTH 38 0
BBX 35 64 2 -1
BITMAP
000C004000
003F80F000
00FFF1F800
01FFFFFC00
03FFFFF800
03FFFFF800
07FFFFF000
07FFFFE000
03E07FC000
00C01F8000
0040000000
0000000000
0000000000
0000000000
000FFE0000
003FFF8000
00FFFFE000
01FFFFF000
03FFFFF800
07FFFFFC00
0FFFFFFE00
0FFFFFFE00
1FFE0FFF00
1FF807FF00
3FF803FF80
3FF001FF80
3FE000FF80
7FE000FFC0
7FE000FFC0
7FE000FFC0
7FC0007FC0
7FC0007FC0
FFC0007FC0
FFC0007FE0
FFC0007FE0
FFC0007FE0
FFC0007FE0
FFC0007FE0
FFC0007FE0
FFC0007FE0
FFC0007FE0
FFC0007FE0
FFC0007FE0
FFC0007FE0
FFC0007FE0
FFC0007FC0
7FC0007FC0
7FC000FFC0
7FE000FFC0
7FE000FFC0
7FE000FF80
3FE001FF80
3FF001FF80
3FF803FF00
1FFC07FF00
1FFF1FFF00
0FFFFFFE00
0FFFFFFC00
07FFFFFC00
03FFFFF800
01FFFFF000
00FFFFC000
003FFF8000
0007FC0000
ENDCHAR
STARTCHAR 00D6
ENCODING 214
SWIDTH 488 0
DWIDTH 38 0
BBX 35 64 2 -1
BITMAP
01F001F000
03FC07F800
07FE07FC00
07FE0FFC00
0FFE0FFE00
0FFE0FFE00
07FE0FFE00
07FE0FFC00
03FC07FC00
01F803F000
0000000000
0000000000
0000000000
0000000000
000FFE0000
003FFF8000
00FFFFE000
01FFFFF000
03FFFFF800
07FFFFFC00
0FFFFFFE00
0FFFFFFE00
1FFE0FFF00
1FF807FF00
3FF803FF80
3FF001FF80
3FE000FF80
7FE000FFC0
7FE000FFC0
7FE000FFC0
7FC0007FC0
7FC0007FC0
FFC0007FC0
FFC0007FE0
FFC0007FE0
FFC0007FE0
FFC0007FE0
FFC0007FE0
FFC0007FE0
FFC0007FE0
FFC0007FE0
FFC0007FE0
FFC0007FE0
FFC0007FE0
FFC0007FE0
FFC0007FC0
7FC0007FC0
7FC000FFC0
7FE000FFC0
7FE000FFC0
7FE000FF80
3FE001FF80
3FF001FF80
3FF803FF00
1FFC07FF00
1FFF1FFF00
0FFFFFFE00
0FFFFFFC00
07FFFFFC00
03FFFFF800
01FFFFF000
00FFFFC000
003FFF8000
0007FC0000
ENDCHAR
STARTCHAR 00D7
ENCODING 215
SWIDTH 488 0
DWIDTH 38 0
BBX 30 31 5 5
BITMAP
00000080
0C0001C0
1E0003E0
3F0007F0
7F800FF8
FFC01FFC
FFE03FF8
7FF07FF0
3FF8FFE0
1FFDFFC0
0FFFFF80
07FFFF00
03FFFE00
01FFFC00
00FFF800
007FF000
00FFF800
01FFFC00
03FFFE00
07FFFF00
0FFFFF80
1FFDFFC0
3FF8FFE0
7FF07FF0
FFE03FF8
FFC01FFC
7F800FF8
3F0007F0
1E0003E0
0C0001C0
00000080
ENDCHAR
STARTCHAR 00D8
ENCODING 216
SWIDTH 488 0
DWIDTH 38 0
BBX 35 54 2 -3
BITMAP
0000003000
0000003C00
0007FC7F00
003FFFFF00
00FFFFFF00
01FFFFFE00
03FFFFFE00
07FFFFFC00
07FFFFFC00
0FFFFFFE00
1FFF1FFF00
1FFC07FF00
3FF80FFF00
3FF00FFF80
3FE01FFF80
7FE01FFF80
7FE03FFFC0
7FE03FFFC0
7FC07FFFC0
7FC07FFFC0
FFC07F7FC0
FFC0FF7FE0
FFC0FE7FE0
FFC1FE7FE0
FFC1FC7FE0
FFC3FC7FE0
FFC3F87FE0
FFC7F87FE0
FFC7F07FE0
FFCFF07FE0
FFCFE07FE0
FFDFE07FE0
FFDFC07FE0
FFFFC07FC0
7FFF807FC0
7FFF807FC0
7FFF00FFC0
7FFF00FFC0
7FFE00FFC0
3FFE01FF80
3FFC01FF80
3FFC03FF80
1FF807FF00
1FFE0FFF00
0FFFFFFE00
0FFFFFFE00
0FFFFFFC00
1FFFFFF800
1FFFFFF000
3FFFFFE000
3FFFFF8000
1F8FFC0000
0780000000
0100000000
ENDCHAR
STARTCHAR 00D9
ENCODING 217
SWIDTH 488 0
DWIDTH 38 0
BBX 33 65 3 0
BITMAP
0018000000
003E000000
003F000000
007F800000
00FFE00000
00FFF00000
01FFFC0000
00FFFE0000
003FFF0000
0007FE0000
0001FC0000
00007C0000
0000180000
0000000000
0000000000
0000000000
FFC001FF80
FFC001FF80
FFC001FF80
FFC001FF80
FFC001FF80
FFC001FF80
FFC001FF80
FFC001FF80
FFC001FF80
FFC001FF80
FFC001FF80
FFC001FF80
FFC001FF80
FFC001FF80
FFC001FF80
FFC001FF80
FFC001FF80
FFC001FF80
FFC001FF80
FFC001FF80
FFC001FF80
FFC001FF80
FFC001FF80
FFC001FF80
FFC001FF80
FFC001FF80
FFC001FF80
FFC001FF80
FFC001FF80
FFC001FF80
FFC001FF80
FFC001FF80
FFC001FF80
FFC001FF80
FFC001FF80
FFC001FF80
FFC001FF00
7FE003FF00
7FE003FF00
7FF007FF00
7FFC3FFE00
3FFFFFFE00
3FFFFFFC00
1FFFFFFC00
0FFFFFF800
07FFFFF000
03FFFFE000
00FFFF8000
001FFC0000
ENDCHAR
STARTCHAR 00DA
ENCODING 218
SWIDTH 488 0
DWIDTH 38 0
BBX 33 65 3 0
BITMAP
00000C0000
00003E0000
00007E0000
0000FF0000
0003FF8000
0007FF8000
001FFFC000
003FFF8000
007FFE0000
003FF00000
001FC00000
001F000000
000C000000
0000000000
0000000000
0000000000
FFC001FF80
FFC001FF80
FFC001FF80
FFC001FF80
FFC001FF80
FFC001FF80
FFC001FF80
FFC001FF80
FFC001FF80
FFC001FF80
FFC001FF80
FFC001FF80
FFC001FF80
FFC001FF80
FFC001FF80
FFC001FF80
FFC001FF80
FFC001FF80
FFC001FF80
FFC001FF80
FFC001FF80
FFC001FF80
FFC001FF80
FFC001FF80
FFC001FF80
FFC001FF80
FFC001FF80
FFC001FF80
FFC001FF80
FFC001FF80
FFC001FF80
FFC001FF80
FFC001FF80
FFC001FF80
FFC001FF80
FFC001FF80
FFC001FF00
7FE003FF00
7FE003FF00
7FF007FF00
7FFC3FFE00
3FFFFFFE00
3FFFFFFC00
1FFFFFFC00
0FFFFFF800
07FFFFF000
03FFFFE000
00FFFF8000
001FFC0000
ENDCHAR
STARTCHAR 00DB
ENCODING 219
SWIDTH 488 0
DWIDTH 38 0
BBX 33 65 3 0
BITMAP
0001C00000
0003E00000
0007F00000
000FF80000
001FFC0000
003FFE0000
00FFFF8000
01FFFFC000
03FF7FE000
03FE3FE000
01FC0FC000
00F0078000
0060030000
0000010000
0000000000
0000000000
FFC001FF80
FFC001FF80
FFC001FF80
FFC001FF80
FFC001FF80
FFC001FF80
FFC001FF80
FFC001FF80
FFC001FF80
FFC001FF80
FFC001FF80
FFC001FF80
FFC001FF80
FFC001FF80
FFC001FF80
FFC001FF80
FFC001FF80
FFC001FF80
FFC001FF80
FFC001FF80
FFC001FF80
FFC001FF80
FFC001FF80
FFC001FF80
FFC001FF80
FFC001FF80
FFC001FF80
FFC001FF80
FFC001FF80
FFC001FF80
FFC001FF80
FFC001FF80
FFC001FF80
FFC001FF80
FFC001FF80
FFC001FF80
FFC001FF00
7FE003FF00
7FE003FF00
7FF007FF00
7FFC3FFE00
3FFFFFFE00
3FFFFFFC00
1FFFFFFC00
0FFFFFF800
07FFFFF000
03FFFFE000
00FFFF8000
001FFC0000
ENDCHAR
STARTCHAR 00DC
ENCODING 220
SWIDTH 488 0
DWIDTH 38 0
BBX 33 64 3 -1
BITMAP
03E003E000
07F80FF000
0FFC0FF800
0FFC1FF800
1FFC1FFC00
1FFC1FFC00
0FFC1FFC00
0FFC1FF800
07F80FF800
03F007E000
0000000000
0000000000
0000000000
0000000000
0000000000
FFC001FF80
FFC001FF80
FFC001FF80
FFC001FF80
FFC001FF80
FFC001FF80
FFC001FF80
FFC001FF80
FFC001FF80
FFC001FF80
FFC001FF80
FFC001FF80
FFC001FF80
FFC001FF80
FFC001FF80
FFC001FF80
FFC001FF80
FFC001FF80
FFC001FF80
FFC001FF80
FFC001FF80
FFC001FF80
FFC001FF80
FFC001FF80
FFC001FF80
FFC001FF80
FFC001FF80
FFC001FF80
FFC001FF80
FFC001FF80
FFC001FF80
FFC001FF80
FFC001FF80
FFC001FF80
FFC001FF80
FFC001FF80
FFC001FF00
7FE003FF00
7FE003FF00
7FF007FF00
7FFC3FFE00
3FFFFFFE00
3FFFFFFC00
1FFFFFFC00
0FFFFFF800
07FFFFF000
03FFFFE000
00FFFF8000
001FFC0000
ENDCHAR
STARTCHAR 00DD
ENCODING 221
SWIDTH 488 0
DWIDTH 38 0
BBX 37 64 1 1
BITMAP
0000030000
00000F8000
00001F8000
00003FC000
0000FFE000
0001FFE000
0007FFF000
000FFFE000
001FFF8000
000FFC0000
0007F00000
0007C00000
0003000000
0000000000
0000000000
0000000000
FFC0001FF8
7FE0003FF0
7FE0003FF0
7FE0003FF0
3FF0007FE0
3FF0007FE0
1FF0007FC0
1FF800FFC0
1FF800FFC0
0FFC00FF80
0FFC01FF80
07FC01FF00
07FE01FF00
03FE03FF00
03FF03FE00
03FF07FE00
01FF07FC00
01FF87FC00
00FF8FF800
00FFCFF800
007FDFF000
007FFFF000
003FFFE000
003FFFE000
001FFFC000
001FFFC000
000FFF8000
000FFF8000
0007FF0000
0003FE0000
0003FE0000
0003FE0000
0003FE0000
0003FE0000
0003FE0000
0003FE0000
0003FE0000
0003FE0000
0003FE0000
0003FE0000
0003FE0000
0003FE0000
0003FE0000
0003FE0000
0003FE0000
0003FE0000
0003FE0000
0003FE0000
ENDCHAR
STARTCHAR 00DE
ENCODING 222
SWIDTH 488 0
DWIDTH 38 0
BBX 33 48 4 0
BITMAP
FFC0000000
FFC0000000
FFC0000000
FFC0000000
FFC0000000
FFC0000000
FFC0000000
FFFFF80000
FFFFFF0000
FFFFFFC000
FFFFFFE000
FFFFFFF800
FFFFFFFC00
FFFFFFFC00
FFFFFFFE00
FFC03FFE00
FFC00FFF00
FFC007FF00
FFC003FF00
FFC003FF00
FFC001FF80
FFC001FF80
FFC001FF80
FFC001FF80
FFC001FF80
FFC001FF80
FFC003FF00
FFC003FF00
FFC007FF00
FFC01FFF00
FFC07FFE00
FFFFFFFE00
FFFFFFFC00
FFFFFFF800
FFFFFFF000
FFFFFFE000
FFFFFF8000
FFFFFE0000
FFFFF00000
FFC0000000
FFC0000000
FFC0000000
FFC0000000
FFC0000000
FFC0000000
FFC0000000
FFC0000000
FFC0000000
ENDCHAR
STARTCHAR 00DF
ENCODING 223
SWIDTH 488 0
DWIDTH 38 0
BBX 36 55 2 -1
BITMAP
001FF00000
00FFFE0000
01FFFF8000
07FFFFE000
0FFFFFE000
1FFFFFF000
1FFFFFF800
3FFFFFF800
3FFC3FF800
7FF01FFC00
7FE00FFC00
7FE007FC00
7FE007FC00
7FC007FC00
FFC007FC00
FFC00FF800
FFC00FF800
FFC00FF800
FFC01FF000
FFC03FF000
FFC03FE000
FFC07FC000
FFC0FFC000
FFC0FF8000
FFC0FF8000
FFC1FF8000
FFC1FF8000
FFC1FF8000
FFC1FF8000
FFC1FFC000
FFC1FFE000
FFC0FFF000
FFC0FFF800
FFC07FFE00
FFC07FFF00
FFC01FFF80
FFC00FFFC0
FFC003FFE0
FFC000FFF0
FFC0007FF0
FFC0003FF0
FFC0003FF0
FFC0001FF0
FFC0003FF0
FFC0003FF0
FFC1803FF0
FFC1F0FFF0
FFC1FFFFF0
FFC1FFFFE0
FFC3FFFFE0
FFC3FFFFC0
FFC3FFFF80
FFC3FFFF00
FFC1FFFE00
00003FF000
ENDCHAR
STARTCHAR 00E0
ENCODING 224
SWIDTH 488 0
DWIDTH 38 0
BBX 31 55 3 -1
BITMAP
00080000
001C0000
001E0000
003F8000
007FC000
007FF000
00FFF800
00FFFE00
007FFF00
001FFF00
0003FE00
0000FE00
00003C00
00000800
00000000
00000000
00000000
03FFFE00
0FFFFF80
0FFFFFE0
0FFFFFF0
0FFFFFF8
07FFFFF8
07FFFFFC
07FFFFFC
04001FFE
000007FE
000007FE
000003FE
000003FE
000003FE
000383FE
00FFFFFE
03FFFFFE
0FFFFFFE
1FFFFFFE
3FFFFFFE
3FFFFFFE
7FFC03FE
7FE003FE
7FC003FE
FFC003FE
FFC003FE
FFC003FE
FFC003FE
7FE003FE
7FF803FE
7FFFFFFE
3FFFFFFE
3FFFFFFE
1FFFFFFE
0FFFFFFE
07FFFFFE
01FFFFF8
001FFE00
ENDCHAR
STARTCHAR 00E1
ENCODING 225
SWIDTH 488 0
DWIDTH 38 0
BBX 31 54 3 0
BITMAP
00001C00
00003E00
0000FE00
0001FF00
0003FF80
000FFF80
001FFFC0
007FFF00
007FFC00
003FF000
001FC000
001F0000
000C0000
00000000
00000000
00000000
03FFFE00
0FFFFF80
0FFFFFE0
0FFFFFF0
0FFFFFF8
07FFFFF8
07FFFFFC
07FFFFFC
04001FFE
000007FE
000007FE
000003FE
000003FE
000003FE
000383FE
00FFFFFE
03FFFFFE
0FFFFFFE
1FFFFFFE
3FFFFFFE
3FFFFFFE
7FFC03FE
7FE003FE
7FC003FE
FFC003FE
FFC003FE
FFC003FE
FFC003FE
7FE003FE
7FF803FE
7FFFFFFE
3FFFFFFE
3FFFFFFE
1FFFFFFE
0FFFFFFE
07FFFFFE
01FFFFF8
001FFE00
ENDCHAR
STARTCHAR 00E2
ENCODING 226
SWIDTH 488 0
DWIDTH 38 0
BBX 31 55 3 -1
BITMAP
00008000
0001C000
0003E000
0007F000
000FF800
001FFE00
007FFF00
00FFFF80
01FFFFC0
03FF7FE0
03FE1FE0
01F80FC0
00F00780
00600300
00000000
00000000
00000000
03FFFE00
0FFFFF80
0FFFFFE0
0FFFFFF0
0FFFFFF8
07FFFFF8
07FFFFFC
07FFFFFC
04001FFE
000007FE
000007FE
000003FE
000003FE
000003FE
000383FE
00FFFFFE
03FFFFFE
0FFFFFFE
1FFFFFFE
3FFFFFFE
3FFFFFFE
7FFC03FE
7FE003FE
7FC003FE
FFC003FE
FFC003FE
FFC003FE
FFC003FE
7FE003FE
7FF803FE
7FFFFFFE
3FFFFFFE
3FFFFFFE
1FFFFFFE
0FFFFFFE
07FFFFFE
01FFFFF8
001FFE00
ENDCHAR
STARTCHAR 00E3
ENCODING 227
SWIDTH 488 0
DWIDTH 38 0
BBX 31 53 3 -1
BITMAP
003C00C0
00FF81E0
01FFF3F8
03FFFFF8
07FFFFF0
07FFFFF0
0FFFFFE0
0FF7FFC0
03C0FF80
01801E00
00000000
00000000
00000000
00000000
00000000
03FFFE00
0FFFFF80
0FFFFFE0
0FFFFFF0
0FFFFFF8
07FFFFF8
07FFFFFC
07FFFFFC
04001FFE
000007FE
000007FE
000003FE
000003FE
000003FE
000383FE
00FFFFFE
03FFFFFE
0FFFFFFE
1FFFFFFE
3FFFFFFE
3FFFFFFE
7FFC03FE
7FE003FE
7FC003FE
FFC003FE
FFC003FE
FFC003FE
FFC003FE
7FE003FE
7FF803FE
7FFFFFFE
3FFFFFFE
3FFFFFFE
1FFFFFFE
0FFFFFFE
07FFFFFE
01FFFFF8
001FFE00
ENDCHAR
STARTCHAR 00E4
ENCODING 228
SWIDTH 488 0
DWIDTH 38 0
BBX 31 53 3 -1
BITMAP
03F007E0
07F80FF8
0FFC1FF8
0FFC1FFC
1FFC1FFC
1FFC1FFC
0FFC1FF8
0FFC1FF8
07F80FF0
03E003E0
00000000
00000000
00000000
00000000
00000000
03FFFE00
0FFFFF80
0FFFFFE0
0FFFFFF0
0FFFFFF8
07FFFFF8
07FFFFFC
07FFFFFC
04001FFE
000007FE
000007FE
000003FE
000003FE
000003FE
000383FE
00FFFFFE
03FFFFFE
0FFFFFFE
1FFFFFFE
3FFFFFFE
3FFFFFFE
7FFC03FE
7FE003FE
7FC003FE
FFC003FE
FFC003FE
FFC003FE
FFC003FE
7FE003FE
7FF803FE
7FFFFFFE
3FFFFFFE
3FFFFFFE
1FFFFFFE
0FFFFFFE
07FFFFFE
01FFFFF8
001FFE00
ENDCHAR
STARTCHAR 00E5
ENCODING 229
SWIDTH 488 0
DWIDTH 38 0
BBX 31 56 3 -1
BITMAP
0007E000
001FF800
003FFE00
007FFE00
007FFF00
007C3F00
00FC1F80
00F80F80
00F80F80
00FC1F80
007C1F00
007FFF00
007FFE00
003FFE00
001FF800
0003E000
00000000
00000000
03FFFE00
0FFFFF80
0FFFFFE0
0FFFFFF0
0FFFFFF8
07FFFFF8
07FFFFFC
07FFFFFC
04001FFE
000007FE
000007FE
000003FE
000003FE
000003FE
000383FE
00FFFFFE
03FFFFFE
0FFFFFFE
1FFFFFFE
3FFFFFFE
3FFFFFFE
7FFC03FE
7FE003FE
7FC003FE
FFC003FE
FFC003FE
FFC003FE
FFC003FE
7FE003FE
7FF803FE
7FFFFFFE
3FFFFFFE
3FFFFFFE
1FFFFFFE
0FFFFFFE
07FFFFFE
01FFFFF8
001FFE00
ENDCHAR
STARTCHAR 00E6
ENCODING 230
SWIDTH 488 0
DWIDTH 38 0
BBX 36 38 2 -1
BITMAP
07FE03FC00
1FFF87FE00
1FFFCFFF00
1FFFFFFF80
1FFFFFFFC0
1FFFFFFFC0
0FFFFFFFC0
0F0FFF1FE0
0007FE0FE0
0003FE0FE0
0003FE0FE0
0003FC07F0
0001FC07F0
0001FC07F0
0021FC07F0
07FFFFFFF0
0FFFFFFFF0
1FFFFFFFF0
3FFFFFFFF0
7FFFFFFFF0
7FFFFFFFF0
FFC3FFFFF0
FF01FC0000
FF01FC0000
FE01FC0000
FE01FC0000
FE01FE0000
FE01FE0000
FF01FF0000
FF81FFC1C0
7FFFFFFFC0
7FFFFFFFC0
7FFFFFFFC0
3FFFFFFFC0
1FFFEFFFE0
0FFFC7FFE0
07FF03FFC0
00F800FE00
ENDCHAR
STARTCHAR 00E7
ENCODING 231
SWIDTH 488 0
DWIDTH 38 0
BBX 33 50 3 -13
BITMAP
0003FFFC00
001FFFFF80
007FFFFF00
01FFFFFF00
03FFFFFF00
07FFFFFF00
0FFFFFFE00
0FFFFFFE00
1FFF800E00
3FFE000000
3FF8000000
3FF0000000
7FF0000000
7FE0000000
7FE0000000
7FC0000000
FFC0000000
FFC0000000
FFC0000000
FFC0000000
FFC0000000
7FC0000000
7FE0000000
7FE0000000
7FE0000000
7FF0000000
3FF8000000
3FFC000000
1FFF000100
1FFFFDFF00
0FFFFFFF00
07FFFFFF00
07FFFFFF80
01FFFFFF80
00FFFFFF80
003FFFFF80
000FFFFF00
0001FFE000
0003F00000
0003FC0000
0003FE0000
00007F0000
00003F8000
00003F8000
00207F8000
003FFF8000
003FFF0000
003FFF0000
003FFE0000
003FF80000
ENDCHAR
STARTCHAR 00E8
ENCODING 232
SWIDTH 488 0
DWIDTH 38 0
BBX 34 55 2 -1
BITMAP
0004000000
000E000000
000F000000
001FC00000
003FE00000
003FF80000
007FFC0000
007FFF0000
003FFF8000
000FFF8000
0001FF0000
00007F0000
00001E0000
0000040000
0000000000
0000000000
0000000000
000FFF0000
003FFFC000
00FFFFF000
01FFFFF800
03FFFFFC00
07FFFFFE00
0FFFFFFF00
1FFFFFFF00
1FFC03FF80
3FF801FF80
3FF000FF80
3FE000FF80
7FE0007FC0
7FE0007FC0
7FC0007FC0
7FFFFFFFC0
FFFFFFFFC0
FFFFFFFFC0
FFFFFFFFC0
FFFFFFFFC0
FFFFFFFFC0
FFFFFFFFC0
7FC0000000
7FC0000000
7FE0000000
7FE0000000
3FF0000000
3FF8000000
3FFE000E00
1FFFF7FE00
0FFFFFFE00
0FFFFFFE00
07FFFFFF00
03FFFFFF00
00FFFFFF00
007FFFFF00
000FFFFC00
0001FF8000
ENDCHAR
STARTCHAR 00E9
ENCODING 233
SWIDTH 488 0
DWIDTH 38 0
BBX 34 55 2 -1
BITMAP
0000020000
0000070000
00000F0000
00003F8000
00007FC000
0001FFC000
0003FFE000
000FFFF000
001FFFC000
001FFF0000
000FF80000
000FE00000
0007800000
0002000000
0000000000
0000000000
0000000000
000FFF0000
003FFFC000
00FFFFF000
01FFFFF800
03FFFFFC00
07FFFFFE00
0FFFFFFF00
1FFFFFFF00
1FFC03FF80
3FF801FF80
3FF000FF80
3FE000FF80
7FE0007FC0
7FE0007FC0
7FC0007FC0
7FFFFFFFC0
FFFFFFFFC0
FFFFFFFFC0
FFFFFFFFC0
FFFFFFFFC0
FFFFFFFFC0
FFFFFFFFC0
7FC0000000
7FC0000000
7FE0000000
7FE0000000
3FF0000000
3FF8000000
3FFE000E00
1FFFF7FE00
0FFFFFFE00
0FFFFFFE00
07FFFFFF00
03FFFFFF00
00FFFFFF00
007FFFFF00
000FFFFC00
0001FF8000
ENDCHAR
STARTCHAR 00EA
ENCODING 234
SWIDTH 488 0
DWIDTH 38 0
BBX 34 54 2 0
BITMAP
0000E00000
0001F00000
0003FC0000
0007FE0000
000FFF0000
001FFF8000
003FFFC000
00FFFFE000
01FF9FF000
00FF0FF000
007E07E000
007803C000
003000C000
0000000000
0000000000
0000000000
000FFF0000
003FFFC000
00FFFFF000
01FFFFF800
03FFFFFC00
07FFFFFE00
0FFFFFFF00
1FFFFFFF00
1FFC03FF80
3FF801FF80
3FF000FF80
3FE000FF80
7FE0007FC0
7FE0007FC0
7FC0007FC0
7FFFFFFFC0
FFFFFFFFC0
FFFFFFFFC0
FFFFFFFFC0
FFFFFFFFC0
FFFFFFFFC0
FFFFFFFFC0
7FC0000000
7FC0000000
7FE0000000
7FE0000000
3FF0000000
3FF8000000
3FFE000E00
1FFFF7FE00
0FFFFFFE00
0FFFFFFE00
07FFFFFF00
03FFFFFF00
00FFFFFF00
007FFFFF00
000FFFFC00
0001FF8000
ENDCHAR
STARTCHAR 00EB
ENCODING 235
SWIDTH 488 0
DWIDTH 38 0
BBX 34 53 2 -1
BITMAP
01F803F000
03FC07FC00
07FE0FFC00
07FE0FFE00
0FFE0FFE00
0FFE0FFE00
07FE0FFC00
07FE0FFC00
03FC07F800
01F001F000
0000000000
0000000000
0000000000
0000000000
0000000000
000FFF0000
003FFFC000
00FFFFF000
01FFFFF800
03FFFFFC00
07FFFFFE00
0FFFFFFF00
1FFFFFFF00
1FFC03FF80
3FF801FF80
3FF000FF80
3FE000FF80
7FE0007FC0
7FE0007FC0
7FC0007FC0
7FFFFFFFC0
FFFFFFFFC0
FFFFFFFFC0
FFFFFFFFC0
FFFFFFFFC0
FFFFFFFFC0
FFFFFFFFC0
7FC0000000
7FC0000000
7FE0000000
7FE0000000
3FF0000000
3FF8000000
3FFE000E00
1FFFF7FE00
0FFFFFFE00
0FFFFFFE00
07FFFFFF00
03FFFFFF00
00FFFFFF00
007FFFFF00
000FFFFC00
0001FF8000
ENDCHAR
STARTCHAR 00EC
ENCODING 236
SWIDTH 488 0
DWIDTH 38 0
BBX 33 54 3 0
BITMAP
0038000000
007C000000
007E000000
00FF800000
01FFC00000
01FFF00000
03FFF80000
00FFFE0000
003FFE0000
000FFC0000
0003F80000
0000F80000
0000300000
0000000000
0000000000
0000000000
FFFFE00000
FFFFE00000
FFFFE00000
FFFFE00000
FFFFE00000
FFFFE00000
FFFFE00000
FFFFE00000
003FE00000
003FE00000
003FE00000
003FE00000
003FE00000
003FE00000
003FE00000
003FE00000
003FE00000
003FE00000
003FE00000
003FE00000
003FE00000
003FE00000
003FE00000
003FE00000
003FF00000
003FF00000
003FF00000
003FF00000
001FF80300
001FFFFF00
001FFFFF80
001FFFFF80
000FFFFF80
0007FFFF80
0007FFFF80
0001FFFF80
0000FFFE00
00001FE000
ENDCHAR
STARTCHAR 00ED
ENCODING 237
SWIDTH 488 0
DWIDTH 38 0
BBX 33 54 3 0
BITMAP
0000380000
00007C0000
0000FC0000
0003FE0000
0007FF0000
001FFF0000
003FFF8000
00FFFE0000
00FFF80000
007FE00000
003F800000
003E000000
0018000000
0000000000
0000000000
0000000000
FFFFE00000
FFFFE00000
FFFFE00000
FFFFE00000
FFFFE00000
FFFFE00000
FFFFE00000
FFFFE00000
003FE00000
003FE00000
003FE00000
003FE00000
003FE00000
003FE00000
003FE00000
003FE00000
003FE00000
003FE00000
003FE00000
003FE00000
003FE00000
003FE00000
003FE00000
003FE00000
003FF00000
003FF00000
003FF00000
003FF00000
001FF80300
001FFFFF00
001FFFFF80
001FFFFF80
000FFFFF80
0007FFFF80
0007FFFF80
0001FFFF80
0000FFFE00
00001FE000
ENDCHAR
STARTCHAR 00EE
ENCODING 238
SWIDTH 488 0
DWIDTH 38 0
BBX 33 55 3 -1
BITMAP
0001000000
0003800000
0007C00000
000FE00000
003FF00000
007FF80000
00FFFC0000
01FFFE0000
03FFFF8000
07FEFFC000
07F87F8000
03F01F8000
01E00F0000
0080060000
0000000000
0000000000
0000000000
FFFFE00000
FFFFE00000
FFFFE00000
FFFFE00000
FFFFE00000
FFFFE00000
FFFFE00000
FFFFE00000
003FE00000
003FE00000
003FE00000
003FE00000
003FE00000
003FE00000
003FE00000
003FE00000
003FE00000
003FE00000
003FE00000
003FE00000
003FE00000
003FE00000
003FE00000
003FE00000
003FF00000
003FF00000
003FF00000
003FF00000
001FF80300
001FFFFF00
001FFFFF80
001FFFFF80
000FFFFF80
0007FFFF80
0007FFFF80
0001FFFF80
0000FFFE00
00001FE000
ENDCHAR
STARTCHAR 00EF
ENCODING 239
SWIDTH 488 0
DWIDTH 38 0
BBX 33 53 3 -1
BITMAP
0FC00FC000
1FF01FE000
1FF03FF000
3FF83FF000
3FF83FF000
3FF83FF000
3FF83FF000
1FF03FF000
1FF01FE000
07C00FC000
0000000000
0000000000
0000000000
0000000000
0000000000
FFFFE00000
FFFFE00000
FFFFE00000
FFFFE00000
FFFFE00000
FFFFE00000
FFFFE00000
FFFFE00000
003FE00000
003FE00000
003FE00000
003FE00000
003FE00000
003FE00000
003FE00000
003FE00000
003FE00000
003FE00000
003FE00000
003FE00000
003FE00000
003FE00000
003FE00000
003FE00000
003FF00000
003FF00000
003FF00000
003FF00000
001FF80300
001FFFFF00
001FFFFF80
001FFFFF80
000FFFFF80
0007FFFF80
0007FFFF80
0001FFFF80
0000FFFE00
00001FE000
ENDCHAR
STARTCHAR 00F0
ENCODING 240
SWIDTH 488 0
DWIDTH 38 0
BBX 34 55 3 -1
BITMAP
0001800000
0003C00000
0007F00000
000FF80000
001FFC0000
003FFE0F80
001FFE7F80
000FFFFF80
0007FFFFC0
0003FFFFC0
0003FFFF80
001FFFFC00
003FFFE000
003FFFF000
003FFFF000
001FDFF800
001E1FF800
00000FFC00
00000FFC00
000007FC00
000007FE00
0007C3FE00
007FFBFE00
01FFFFFE00
03FFFFFF00
07FFFFFF00
0FFFFFFF00
1FFFFFFF00
3FFFFFFF00
3FF80FFF00
7FF003FF00
7FE003FF00
7FE003FF00
FFC003FF00
FFC003FF00
FFC003FF00
FFC003FF00
FFC003FF00
FFC003FF00
FFC003FF00
FFC003FF00
FFC007FE00
7FE007FE00
7FE007FE00
7FF00FFE00
7FF81FFC00
3FFE7FFC00
3FFFFFF800
1FFFFFF800
0FFFFFF000
07FFFFE000
03FFFFC000
01FFFF8000
007FFE0000
001FF80000
ENDCHAR
STARTCHAR 00F1
ENCODING 241
SWIDTH 488 0
DWIDTH 38 0
BBX 29 52 5 0
BITMAP
00F00300
03FE0780
07FFCFE0
0FFFFFE0
1FFFFFC0
1FFFFFC0
3FFFFF80
3FDFFF00
0F03FE00
06007800
00000000
00000000
00000000
00000000
00000000
07FFF800
FFFFFE00
FFFFFF00
FFFFFFC0
FFFFFFC0
FFFFFFE0
FFFFFFF0
FFFFFFF0
FF807FF0
FF803FF8
FF801FF8
FF801FF8
FF801FF8
FF801FF8
FF800FF8
FF800FF8
FF800FF8
FF800FF8
FF800FF8
FF800FF8
FF800FF8
FF800FF8
FF800FF8
FF800FF8
FF800FF8
FF800FF8
FF800FF8
FF800FF8
FF800FF8
FF800FF8
FF800FF8
FF800FF8
FF800FF8
FF800FF8
FF800FF8
FF800FF8
FF800FF8
ENDCHAR
STARTCHAR 00F2
ENCODING 242
SWIDTH 488 0
DWIDTH 38 0
BBX 35 55 2 -1
BITMAP
0004000000
000E000000
000F000000
001FC00000
003FE00000
003FF80000
007FFC0000
007FFF0000
003FFF8000
000FFF8000
0001FF0000
00007F0000
00001E0000
0000040000
0000000000
0000000000
0000000000
000FFF0000
007FFFC000
00FFFFE000
03FFFFF800
07FFFFFC00
0FFFFFFE00
0FFFFFFE00
1FFFFFFF00
1FFC07FF00
3FF803FF80
3FF001FF80
7FF000FFC0
7FE000FFC0
7FE000FFC0
7FC0007FC0
FFC0007FE0
FFC0007FE0
FFC0007FE0
FFC0007FE0
FFC0007FE0
FFC0007FE0
FFC0007FE0
7FC0007FC0
7FE000FFC0
7FE000FFC0
7FE000FFC0
7FF001FF80
3FF003FF80
3FF807FF80
1FFF1FFF00
1FFFFFFF00
0FFFFFFE00
07FFFFFC00
03FFFFF800
01FFFFF000
00FFFFE000
003FFF8000
0007FC0000
ENDCHAR
STARTCHAR 00F3
ENCODING 243
SWIDTH 488 0
DWIDTH 38 0
BBX 35 55 2 -1
BITMAP
0000040000
00000C0000
00003E0000
00007F0000
0001FF0000
0003FF8000
0007FFC000
001FFFC000
003FFF0000
003FFC0000
003FF00000
001FC00000
000F000000
000C000000
0000000000
0000000000
0000000000
000FFF0000
007FFFC000
00FFFFE000
03FFFFF800
07FFFFFC00
0FFFFFFE00
0FFFFFFE00
1FFFFFFF00
1FFC07FF00
3FF803FF80
3FF001FF80
7FF000FFC0
7FE000FFC0
7FE000FFC0
7FC0007FC0
FFC0007FE0
FFC0007FE0
FFC0007FE0
FFC0007FE0
FFC0007FE0
FFC0007FE0
FFC0007FE0
7FC0007FC0
7FE000FFC0
7FE000FFC0
7FE000FFC0
7FF001FF80
3FF003FF80
3FF807FF80
1FFF1FFF00
1FFFFFFF00
0FFFFFFE00
07FFFFFC00
03FFFFF800
01FFFFF000
00FFFFE000
003FFF8000
0007FC0000
ENDCHAR
STARTCHAR 00F4
ENCODING 244
SWIDTH 488 0
DWIDTH 38 0
BBX 35 55 2 -1
BITMAP
0000400000
0000E00000
0001F00000
0003F80000
0007FC0000
000FFF0000
003FFF8000
007FFFC000
00FFFFE000
01FFBFF000
01FF0FF000
00FC07E000
007803C000
0030018000
0000000000
0000000000
0000000000
000FFF0000
007FFFC000
00FFFFE000
03FFFFF800
07FFFFFC00
0FFFFFFE00
0FFFFFFE00
1FFFFFFF00
1FFC07FF00
3FF803FF80
3FF001FF80
7FF000FFC0
7FE000FFC0
7FE000FFC0
7FC0007FC0
FFC0007FE0
FFC0007FE0
FFC0007FE0
FFC0007FE0
FFC0007FE0
FFC0007FE0
FFC0007FE0
7FC0007FC0
7FE000FFC0
7FE000FFC0
7FE000FFC0
7FF001FF80
3FF003FF80
3FF807FF80
1FFF1FFF00
1FFFFFFF00
0FFFFFFE00
07FFFFFC00
03FFFFF800
01FFFFF000
00FFFFE000
003FFF8000
0007FC0000
ENDCHAR
STARTCHAR 00F5
ENCODING 245
SWIDTH 488 0
DWIDTH 38 0
BBX 35 53 2 -1
BITMAP
001E006000
007FC0F000
00FFF9FC00
01FFFFFC00
03FFFFF800
03FFFFF800
07FFFFF000
07FBFFE000
01E07FC000
00C00F0000
0000000000
0000000000
0000000000
0000000000
0000000000
000FFF0000
007FFFC000
00FFFFE000
03FFFFF800
07FFFFFC00
0FFFFFFE00
0FFFFFFE00
1FFFFFFF00
1FFC07FF00
3FF803FF80
3FF001FF80
7FF000FFC0
7FE000FFC0
7FE000FFC0
7FC0007FC0
FFC0007FE0
FFC0007FE0
FFC0007FE0
FFC0007FE0
FFC0007FE0
FFC0007FE0
FFC0007FE0
7FC0007FC0
7FE000FFC0
7FE000FFC0
7FE000FFC0
7FF001FF80
3FF003FF80
3FF807FF80
1FFF1FFF00
1FFFFFFF00
0FFFFFFE00
07FFFFFC00
03FFFFF800
01FFFFF000
00FFFFE000
003FFF8000
0007FC0000
ENDCHAR
STARTCHAR 00F6
ENCODING 246
SWIDTH 488 0
DWIDTH 38 0
BBX 35 53 2 -1
BITMAP
01F803F000
03FC07FC00
07FE0FFC00
07FE0FFE00
0FFE0FFE00
0FFE0FFE00
07FE0FFC00
07FE0FFC00
03FC07F800
01F001F000
0000000000
0000000000
0000000000
0000000000
0000000000
000FFF0000
007FFFC000
00FFFFE000
03FFFFF800
07FFFFFC00
0FFFFFFE00
0FFFFFFE00
1FFFFFFF00
1FFC07FF00
3FF803FF80
3FF001FF80
7FF000FFC0
7FE000FFC0
7FE000FFC0
7FC0007FC0
FFC0007FE0
FFC0007FE0
FFC0007FE0
FFC0007FE0
FFC0007FE0
FFC0007FE0
FFC0007FE0
7FC0007FC0
7FE000FFC0
7FE000FFC0
7FE000FFC0
7FF001FF80
3FF003FF80
3FF807FF80
1FFF1FFF00
1FFFFFFF00
0FFFFFFE00
07FFFFFC00
03FFFFF800
01FFFFF000
00FFFFE000
003FFF8000
0007FC0000
ENDCHAR
STARTCHAR 00F7
ENCODING 247
SWIDTH 488 0
DWIDTH 38 0
BBX 33 40 3 0
BITMAP
0003E00000
000FF80000
000FF80000
001FFC0000
001FFC0000
001FFC0000
001FFC0000
001FFC0000
000FF80000
000FF80000
0003E00000
0000000000
0000000000
0000000000
0000000000
0000000000
FFFFFFFF80
FFFFFFFF80
FFFFFFFF80
FFFFFFFF80
FFFFFFFF80
FFFFFFFF80
FFFFFFFF80
FFFFFFFF80
0000000000
0000000000
0000000000
0000000000
0003E00000
0007F00000
000FF80000
001FFC0000
001FFC0000
001FFC0000
001FFC0000
001FFC0000
000FF80000
000FF80000
0007F00000
0000800000
ENDCHAR
STARTCHAR 00F8
ENCODING 248
SWIDTH 488 0
DWIDTH 38 0
BBX 35 42 2 -3
BITMAP
0000000400
0000000E00
000FFE1F80
003FFF9FC0
00FFFFFF80
01FFFFFF80
07FFFFFF00
07FFFFFE00
0FFFFFFE00
1FFFFFFF00
1FFE0FFF00
3FF807FF80
3FF00FFF80
7FF01FFFC0
7FE03FFFC0
7FE03FFFC0
7FC07FFFC0
FFC0FF7FC0
FFC1FE7FE0
FFC1FC7FE0
FFC3FC7FE0
FFC7F87FE0
FFC7F07FE0
FFCFE07FE0
FFDFE07FC0
7FFFC0FFC0
7FFF80FFC0
7FFF00FFC0
7FFF01FFC0
3FFE03FF80
3FFC03FF80
1FFE0FFF00
1FFFFFFF00
0FFFFFFE00
0FFFFFFC00
1FFFFFF800
3FFFFFF000
3FFFFFE000
7F3FFF8000
1F07FC0000
0E00000000
0400000000
ENDCHAR
STARTCHAR 00F9
ENCODING 249
SWIDTH 488 0
DWIDTH 38 0
BBX 29 55 5 -1
BITMAP
00200000
00700000
00780000
00FE0000
01FF0000
01FFC000
03FFE000
03FFF800
01FFFC00
007FFC00
000FF800
0003F800
0000F000
00002000
00000000
00000000
00000000
FF801FF8
FF801FF8
FF801FF8
FF801FF8
FF801FF8
FF801FF8
FF801FF8
FF801FF8
FF801FF8
FF801FF8
FF801FF8
FF801FF8
FF801FF8
FF801FF8
FF801FF8
FF801FF8
FF801FF8
FF801FF8
FF801FF8
FF801FF8
FF801FF8
FF801FF8
FF801FF8
FF801FF8
FFC01FF8
FFC01FF8
FFC01FF8
FFE01FF8
FFF01FF8
7FFFFFF8
7FFFFFF8
3FFFFFF8
3FFFFFF8
1FFFFFF8
0FFFFFF8
07FFFFF8
01FFFFC0
003FF800
ENDCHAR
STARTCHAR 00FA
ENCODING 250
SWIDTH 488 0
DWIDTH 38 0
BBX 29 54 5 0
BITMAP
0000E000
0001F000
0003F000
000FF800
001FFC00
007FFC00
00FFFE00
03FFF800
03FFE000
01FF8000
00FE0000
00F80000
00600000
00000000
00000000
00000000
FF801FF8
FF801FF8
FF801FF8
FF801FF8
FF801FF8
FF801FF8
FF801FF8
FF801FF8
FF801FF8
FF801FF8
FF801FF8
FF801FF8
FF801FF8
FF801FF8
FF801FF8
FF801FF8
FF801FF8
FF801FF8
FF801FF8
FF801FF8
FF801FF8
FF801FF8
FF801FF8
FF801FF8
FFC01FF8
FFC01FF8
FFC01FF8
FFE01FF8
FFF01FF8
7FFFFFF8
7FFFFFF8
3FFFFFF8
3FFFFFF8
1FFFFFF8
0FFFFFF8
07FFFFF8
01FFFFC0
003FF800
ENDCHAR
STARTCHAR 00FB
ENCODING 251
SWIDTH 488 0
DWIDTH 38 0
BBX 29 55 5 -1
BITMAP
00020000
00070000
000F8000
001FC000
003FE000
007FF800
01FFFC00
03FFFE00
07FFFF00
0FFDFF80
0FF87F80
07E03F00
03C01E00
01800C00
00000000
00000000
00000000
FF801FF8
FF801FF8
FF801FF8
FF801FF8
FF801FF8
FF801FF8
FF801FF8
FF801FF8
FF801FF8
FF801FF8
FF801FF8
FF801FF8
FF801FF8
FF801FF8
FF801FF8
FF801FF8
FF801FF8
FF801FF8
FF801FF8
FF801FF8
FF801FF8
FF801FF8
FF801FF8
FF801FF8
FFC01FF8
FFC01FF8
FFC01FF8
FFE01FF8
FFF01FF8
7FFFFFF8
7FFFFFF8
3FFFFFF8
3FFFFFF8
1FFFFFF8
0FFFFFF8
07FFFFF8
01FFFFC0
003FF800
ENDCHAR
STARTCHAR 00FC
ENCODING 252
SWIDTH 488 0
DWIDTH 38 0
BBX 29 53 5 -1
BITMAP
0FC01F80
1FE03FE0
3FF07FE0
3FF07FF0
7FF07FF0
7FF07FF0
3FF07FE0
3FF07FE0
1FE03FC0
0F800F80
00000000
00000000
00000000
00000000
00000000
FF801FF8
FF801FF8
FF801FF8
FF801FF8
FF801FF8
FF801FF8
FF801FF8
FF801FF8
FF801FF8
FF801FF8
FF801FF8
FF801FF8
FF801FF8
FF801FF8
FF801FF8
FF801FF8
FF801FF8
FF801FF8
FF801FF8
FF801FF8
FF801FF8
FF801FF8
FF801FF8
FF801FF8
FFC01FF8
FFC01FF8
FFC01FF8
FFE01FF8
FFF01FF8
7FFFFFF8
7FFFFFF8
3FFFFFF8
3FFFFFF8
1FFFFFF8
0FFFFFF8
07FFFFF8
01FFFFC0
003FF800
ENDCHAR
STARTCHAR 00FD
ENCODING 253
SWIDTH 488 0
DWIDTH 38 0
BBX 35 66 2 -12
BITMAP
00001C0000
00003E0000
00007E0000
0001FF0000
0003FF8000
000FFF8000
001FFFC000
007FFF0000
007FFC0000
003FF00000
001FC00000
001F000000
000C000000
0000000000
0000000000
0000000000
7FE0007FE0
7FE0007FC0
7FE000FFC0
3FF000FFC0
3FF000FFC0
3FF000FF80
1FF000FF80
1FF801FF80
1FF801FF00
1FF801FF00
0FFC01FF00
0FFC03FF00
0FFC03FE00
07FC03FE00
07FE03FE00
07FE07FC00
03FE07FC00
03FF07FC00
01FF07FC00
01FF0FF800
01FF8FF800
00FF8FF800
00FFCFF000
00FFDFF000
007FDFF000
007FFFE000
003FFFE000
003FFFE000
001FFFC000
001FFFC000
001FFF8000
000FFF8000
000FFF8000
0007FF0000
0007FF0000
0003FE0000
0003FE0000
0007FE0000
000FFC0000
000FFC0000
001FF80000
707FF80000
7FFFF00000
7FFFE00000
FFFFE00000
FFFFC00000
FFFF800000
FFFF000000
FFFC000000
3FF0000000
ENDCHAR
STARTCHAR 00FE
ENCODING 254
SWIDTH 488 0
DWIDTH 38 0
BBX 31 67 5 -13
BITMAP
01800000
7F800000
FF800000
FF800000
FF800000
FF800000
FF800000
FF800000
FF800000
FF800000
FF800000
FF800000
FF800000
FF800000
FF800000
FF800000
FF800000
FFFFF000
FFFFFE00
FFFFFF00
FFFFFFC0
FFFFFFE0
FFFFFFF0
FFFFFFF0
FFFFFFF8
FF807FF8
FF801FFC
FF801FFC
FF800FFE
FF8007FE
FF8007FE
FF8007FE
FF8007FE
FF8003FE
FF8003FE
FF8003FE
FF8003FE
FF8003FE
FF8003FE
FF8007FE
FF8007FE
FF8007FE
FF8007FE
FF800FFE
FF800FFC
FFC01FFC
FFFCFFFC
FFFFFFF8
FFFFFFF0
FFFFFFF0
FFFFFFE0
FFFFFFC0
FFFFFF80
FFBFFE00
FF83F000
FF800000
FF800000
FF800000
FF800000
FF800000
FF800000
FF800000
FF800000
FF800000
FF800000
FF800000
FF800000
ENDCHAR
STARTCHAR 00FF
ENCODING 255
SWIDTH 488 0
DWIDTH 38 0
BBX 35 65 2 -13
BITMAP
01F803F000
03FC07FC00
07FE0FFC00
07FE0FFE00
0FFE0FFE00
0FFE0FFE00
07FE0FFC00
07FE0FFC00
03FC07F800
01F001F000
0000000000
0000000000
0000000000
0000000000
0000000000
7FE0007FE0
7FE0007FC0
7FE000FFC0
3FF000FFC0
3FF000FFC0
3FF000FF80
1FF000FF80
1FF801FF80
1FF801FF00
1FF801FF00
0FFC01FF00
0FFC03FF00
0FFC03FE00
07FC03FE00
07FE03FE00
07FE07FC00
03FE07FC00
03FF07FC00
01FF07FC00
01FF0FF800
01FF8FF800
00FF8FF800
00FFCFF000
00FFDFF000
007FDFF000
007FFFE000
003FFFE000
003FFFE000
001FFFC000
001FFFC000
001FFF8000
000FFF8000
000FFF8000
0007FF0000
0007FF0000
0003FE0000
0003FE0000
0007FE0000
000FFC0000
000FFC0000
001FF80000
707FF80000
7FFFF00000
7FFFE00000
FFFFE00000
FFFFC00000
FFFF800000
FFFF000000
FFFC000000
3FF0000000
ENDCHAR
STARTCHAR 0100
ENCODING 256
SWIDTH 488 0
DWIDTH 38 0
BBX 37 61 1 0
BITMAP
01FFFFFC00
01FFFFFC00
01FFFFFC00
01FFFFFC00
01FFFFFC00
01FFFFFC00
01FFFFFC00
0000000000
0000000000
0000000000
0000000000
0000000000
0000000000
0007FF0000
0007FF0000
0007FF8000
000FFF8000
000FFF8000
000FFFC000
001FFFC000
001FFFC000
001FFFE000
003FFFE000
003FDFE000
003FDFE000
007F9FF000
007F8FF000
007F8FF000
007F8FF800
00FF0FF800
00FF07F800
00FF07F800
01FF07FC00
01FE07FC00
01FE03FC00
03FE03FE00
03FE03FE00
03FC03FE00
03FC03FE00
07FC01FF00
07FC01FF00
07FC01FF00
0FFFFFFF80
0FFFFFFF80
0FFFFFFF80
0FFFFFFF80
1FFFFFFFC0
1FFFFFFFC0
1FFFFFFFC0
1FFFFFFFC0
3FF0007FE0
3FF0007FE0
3FE0007FE0
3FE0007FE0
7FE0003FF0
7FE0003FF0
7FE0003FF0
7FC0003FF0
FFC0003FF8
FFC0001FF8
FFC0001FF8
ENDCHAR
STARTCHAR 0101
ENCODING 257
SWIDTH 488 0
DWIDTH 38 0
BBX 31 51 3 -1
BITMAP
07FFFFF0
07FFFFF0
07FFFFF0
07FFFFF0
07FFFFF0
07FFFFF0
00000000
00000000
00000000
00000000
00000000
00000000
00000000
03FFFE00
0FFFFF80
0FFFFFE0
0FFFFFF0
0FFFFFF8
07FFFFF8
07FFFFFC
07FFFFFC
04001FFE
000007FE
000007FE
000003FE
000003FE
000003FE
000383FE
00FFFFFE
03FFFFFE
0FFFFFFE
1FFFFFFE
3FFFFFFE
3FFFFFFE
7FFC03FE
7FE003FE
7FC003FE
FFC003FE
FFC003FE
FFC003FE
FFC003FE
7FE003FE
7FF803FE
7FFFFFFE
3FFFFFFE
3FFFFFFE
1FFFFFFE
0FFFFFFE
07FFFFFE
01FFFFF8
001FFE00
ENDCHAR
STARTCHAR 0102
ENCODING 258
SWIDTH 488 0
DWIDTH 38 0
BBX 37 64 1 0
BITMAP
01FC01FC00
01FC01FC00
01FE03FC00
01FE03F800
00FF07F800
00FFFFF800
007FFFF000
007FFFF000
003FFFE000
001FFFC000
0007FF0000
0000F00000
0000000000
0000000000
0000000000
0000000000
0007FF0000
0007FF0000
0007FF8000
000FFF8000
000FFF8000
000FFFC000
001FFFC000
001FFFC000
001FFFE000
003FFFE000
003FDFE000
003FDFE000
007F9FF000
007F8FF000
007F8FF000
007F8FF800
00FF0FF800
00FF07F800
00FF07F800
01FF07FC00
01FE07FC00
01FE03FC00
03FE03FE00
03FE03FE00
03FC03FE00
03FC03FE00
07FC01FF00
07FC01FF00
07FC01FF00
0FFFFFFF80
0FFFFFFF80
0FFFFFFF80
0FFFFFFF80
1FFFFFFFC0
1FFFFFFFC0
1FFFFFFFC0
1FFFFFFFC0
3FF0007FE0
3FF0007FE0
3FE0007FE0
3FE0007FE0
7FE0003FF0
7FE0003FF0
7FE0003FF0
7FC0003FF0
FFC0003FF8
FFC0001FF8
FFC0001FF8
ENDCHAR
STARTCHAR 0103
ENCODING 259
SWIDTH 488 0
DWIDTH 38 0
BBX 31 54 3 -1
BITMAP
07F007F0
07F00FF0
07F80FF0
07F80FE0
03FE3FE0
03FFFFE0
01FFFFC0
01FFFF80
00FFFF80
003FFE00
001FF800
00000000
00000000
00000000
00000000
00000000
03FFFE00
0FFFFF80
0FFFFFE0
0FFFFFF0
0FFFFFF8
07FFFFF8
07FFFFFC
07FFFFFC
04001FFE
000007FE
000007FE
000003FE
000003FE
000003FE
000383FE
00FFFFFE
03FFFFFE
0FFFFFFE
1FFFFFFE
3FFFFFFE
3FFFFFFE
7FFC03FE
7FE003FE
7FC003FE
FFC003FE
FFC003FE
FFC003FE
FFC003FE
7FE003FE
7FF803FE
7FFFFFFE
3FFFFFFE
3FFFFFFE
1FFFFFFE
0FFFFFFE
07FFFFFE
01FFFFF8
001FFE00
ENDCHAR
STARTCHAR 0104
ENCODING 260
SWIDTH 488 0
DWIDTH 38 0
BBX 38 61 1 -13
BITMAP
0007FF0000
0007FF0000
0007FF8000
000FFF8000
000FFF8000
000FFFC000
001FFFC000
001FFFC000
001FFFE000
003FFFE000
003FDFE000
003FDFE000
007F9FF000
007F8FF000
007F8FF000
007F8FF800
00FF0FF800
00FF07F800
00FF07F800
01FF07FC00
01FE07FC00
01FE03FC00
03FE03FE00
03FE03FE00
03FC03FE00
03FC03FE00
07FC01FF00
07FC01FF00
07FC01FF00
0FFFFFFF80
0FFFFFFF80
0FFFFFFF80
0FFFFFFF80
1FFFFFFFC0
1FFFFFFFC0
1FFFFFFFC0
1FFFFFFFC0
3FF0007FE0
3FF0007FE0
3FE0007FE0
3FE0007FE0
7FE0003FF0
7FE0003FF0
7FE0003FF0
7FC0003FF0
FFC0003FF8
FFC0001FF8
FFC0001FF8
0000000FF8
0000001FE0
0000003FC0
0000003FC0
0000007F80
0000007F00
000000FF00
000000FF00
000000FFFC
000000FFFC
0000007FFC
0000007FFC
0000001FF8
ENDCHAR
STARTCHAR 0105
ENCODING 261
SWIDTH 488 0
DWIDTH 38 0
BBX 31 50 3 -13
BITMAP
03FFFE00
0FFFFF80
0FFFFFE0
0FFFFFF0
0FFFFFF8
07FFFFF8
07FFFFFC
07FFFFFC
04001FFE
000007FE
000007FE
000003FE
000003FE
000003FE
000383FE
00FFFFFE
03FFFFFE
0FFFFFFE
1FFFFFFE
3FFFFFFE
3FFFFFFE
7FFC03FE
7FE003FE
7FC003FE
FFC003FE
FFC003FE
FFC003FE
FFC003FE
7FE003FE
7FF803FE
7FFFFFFE
3FFFFFFE
3FFFFFFE
1FFFFFFE
0FFFFFFE
07FFFFFE
01FFFFFE
001FFFF8
00000FF0
00001FE0
00003FC0
00003FC0
00007F80
00007F80
00007F80
00007FFE
00007FFE
00007FFE
00003FFE
00000FFC
ENDCHAR
STARTCHAR 0106
ENCODING 262
SWIDTH 488 0
DWIDTH 38 0
BBX 34 65 2 0
BITMAP
000001C000
000003C000
000007E000
00001FF000
00003FF000
0000FFF800
0001FFFC00
0007FFF000
0007FFC000
0003FF0000
0003FC0000
0001F00000
0000C00000
0000000000
0000000000
0000FFF000
0007FFFE00
001FFFFF80
007FFFFFC0
00FFFFFFC0
01FFFFFFC0
03FFFFFF80
07FFFFFF80
07FFE03F80
0FFF000700
1FFE000100
1FFC000000
3FF8000000
3FF0000000
3FF0000000
7FE0000000
7FE0000000
7FE0000000
7FC0000000
FFC0000000
FFC0000000
FFC0000000
FFC0000000
FFC0000000
FFC0000000
FFC0000000
FFC0000000
FFC0000000
FFC0000000
FFC0000000
FFC0000000
7FC0000000
7FE0000000
7FE0000000
7FE0000000
7FF0000000
3FF0000000
3FF8000000
3FFC000000
1FFE000100
1FFF000780
0FFFF07F80
07FFFFFF80
07FFFFFF80
03FFFFFFC0
01FFFFFFC0
007FFFFFC0
003FFFFF80
000FFFFC00
0000FFE000
ENDCHAR
STARTCHAR 0107
ENCODING 263
SWIDTH 488 0
DWIDTH 38 0
BBX 33 54 3 0
BITMAP
0000070000
00000F8000
00001F8000
00007FC000
0000FFE000
0003FFE000
0007FFF000
001FFFC000
001FFF0000
000FFC0000
0007F00000
0007C00000
0003000000
0000000000
0000000000
0000000000
0003FFFC00
001FFFFF80
007FFFFF00
01FFFFFF00
03FFFFFF00
07FFFFFF00
0FFFFFFE00
0FFFFFFE00
1FFF800E00
3FFE000000
3FF8000000
3FF0000000
7FF0000000
7FE0000000
7FE0000000
7FC0000000
FFC0000000
FFC0000000
FFC0000000
FFC0000000
FFC0000000
7FC0000000
7FE0000000
7FE0000000
7FE0000000
7FF0000000
3FF8000000
3FFC000000
1FFF000100
1FFFFDFF00
0FFFFFFF00
07FFFFFF00
03FFFFFF80
01FFFFFF80
00FFFFFF80
003FFFFF80
000FFFFF00
0000FFE000
ENDCHAR
STARTCHAR 0108
ENCODING 264
SWIDTH 488 0
DWIDTH 38 0
BBX 34 65 2 0
BITMAP
0000060000
00001F0000
00003F8000
00007FC000
0000FFF000
0001FFF800
0003FFFC00
0007FFFE00
001FFBFF00
001FF0FF00
000FE07E00
0007C03C00
0003001C00
0000000000
0000000000
0000FFF000
0007FFFE00
001FFFFF80
007FFFFFC0
00FFFFFFC0
01FFFFFFC0
03FFFFFF80
07FFFFFF80
07FFE03F80
0FFF000700
1FFE000100
1FFC000000
3FF8000000
3FF0000000
3FF0000000
7FE0000000
7FE0000000
7FE0000000
7FC0000000
FFC0000000
FFC0000000
FFC0000000
FFC0000000
FFC0000000
FFC0000000
FFC0000000
FFC0000000
FFC0000000
FFC0000000
FFC0000000
FFC0000000
7FC0000000
7FE0000000
7FE0000000
7FE0000000
7FF0000000
3FF0000000
3FF8000000
3FFC000000
1FFE000100
1FFF000780
0FFFF07F80
07FFFFFF80
07FFFFFF80
03FFFFFFC0
01FFFFFFC0
007FFFFFC0
003FFFFF80
000FFFFC00
0000FFE000
ENDCHAR
STARTCHAR 0109
ENCODING 265
SWIDTH 488 0
DWIDTH 38 0
BBX 33 54 3 0
BITMAP
00001C0000
00007E0000
0000FF0000
0001FF8000
0003FFC000
0007FFE000
000FFFF000
001FFFF800
007FE7FE00
003FC3FC00
001F81F800
000F007800
000C003000
0000000000
0000000000
0000000000
0003FFFC00
001FFFFF80
007FFFFF00
01FFFFFF00
03FFFFFF00
07FFFFFF00
0FFFFFFE00
0FFFFFFE00
1FFF800E00
3FFE000000
3FF8000000
3FF0000000
7FF0000000
7FE0000000
7FE0000000
7FC0000000
FFC0000000
FFC0000000
FFC0000000
FFC0000000
FFC0000000
7FC0000000
7FE0000000
7FE0000000
7FE0000000
7FF0000000
3FF8000000
3FFC000000
1FFF000100
1FFFFDFF00
0FFFFFFF00
07FFFFFF00
03FFFFFF80
01FFFFFF80
00FFFFFF80
003FFFFF80
000FFFFF00
0000FFE000
ENDCHAR
STARTCHAR 010A
ENCODING 266
SWIDTH 488 0
DWIDTH 38 0
BBX 34 64 2 -1
BITMAP
00001F8000
00007FC000
00007FE000
0000FFE000
0000FFE000
0000FFE000
0000FFE000
00007FE000
00007FC000
00003F8000
0000040000
0000000000
0000000000
0000000000
0000FFF000
0007FFFE00
001FFFFF80
007FFFFFC0
00FFFFFFC0
01FFFFFFC0
03FFFFFF80
07FFFFFF80
07FFE03F80
0FFF000700
1FFE000100
1FFC000000
3FF8000000
3FF0000000
3FF0000000
7FE0000000
7FE0000000
7FE0000000
7FC0000000
FFC0000000
FFC0000000
FFC0000000
FFC0000000
FFC0000000
FFC0000000
FFC0000000
FFC0000000
FFC0000000
FFC0000000
FFC0000000
FFC0000000
7FC0000000
7FE0000000
7FE0000000
7FE0000000
7FF0000000
3FF0000000
3FF8000000
3FFC000000
1FFE000100
1FFF000780
0FFFF07F80
07FFFFFF80
07FFFFFF80
03FFFFFFC0
01FFFFFFC0
007FFFFFC0
003FFFFF80
000FFFFC00
0000FFE000
ENDCHAR
STARTCHAR 010B
ENCODING 267
SWIDTH 488 0
DWIDTH 38 0
BBX 33 53 3 0
BITMAP
00007F0000
0000FF8000
0000FFC000
0001FFC000
0001FFC000
0001FFC000
0001FFC000
0000FFC000
0000FF8000
00003F0000
0000000000
0000000000
0000000000
0000000000
0000000000
0003FFFC00
001FFFFF80
007FFFFF00
01FFFFFF00
03FFFFFF00
07FFFFFF00
0FFFFFFE00
0FFFFFFE00
1FFF800E00
3FFE000000
3FF8000000
3FF0000000
7FF0000000
7FE0000000
7FE0000000
7FC0000000
FFC0000000
FFC0000000
FFC0000000
FFC0000000
FFC0000000
7FC0000000
7FE0000000
7FE0000000
7FE0000000
7FF0000000
3FF8000000
3FFC000000
1FFF000100
1FFFFDFF00
0FFFFFFF00
07FFFFFF00
03FFFFFF80
01FFFFFF80
00FFFFFF80
003FFFFF80
000FFFFF00
0000FFE000
ENDCHAR
STARTCHAR 010C
ENCODING 268
SWIDTH 488 0
DWIDTH 38 0
BBX 34 66 2 -1
BITMAP
0000000800
0003001800
0007803C00
000FE07E00
001FF1FF00
001FFBFF00
0007FFFE00
0003FFFC00
0001FFF800
0000FFE000
00007FC000
00003F8000
00001F0000
00000E0000
0000000000
0000000000
0000FFF000
0007FFFE00
001FFFFF80
007FFFFFC0
00FFFFFFC0
01FFFFFFC0
03FFFFFF80
07FFFFFF80
07FFE03F80
0FFF000700
1FFE000100
1FFC000000
3FF8000000
3FF0000000
3FF0000000
7FE0000000
7FE0000000
7FE0000000
7FC0000000
FFC0000000
FFC0000000
FFC0000000
FFC0000000
FFC0000000
FFC0000000
FFC0000000
FFC0000000
FFC0000000
FFC0000000
FFC0000000
FFC0000000
7FC0000000
7FE0000000
7FE0000000
7FE0000000
7FF0000000
3FF0000000
3FF8000000
3FFC000000
1FFE000100
1FFF000780
0FFFF07F80
07FFFFFF80
07FFFFFF80
03FFFFFFC0
01FFFFFFC0
007FFFFFC0
003FFFFF80
000FFFFC00
0000FFE000
ENDCHAR
STARTCHAR 010D
ENCODING 269
SWIDTH 488 0
DWIDTH 38 0
BBX 33 55 3 -1
BITMAP
0004001000
0006003800
000F807C00
001FC1FC00
003FE3FE00
001FF7FE00
000FFFFC00
0007FFF800
0003FFE000
0001FFC000
0000FF8000
00007F0000
00001E0000
00000C0000
0000000000
0000000000
0000000000
0003FFFC00
001FFFFF80
007FFFFF00
01FFFFFF00
03FFFFFF00
07FFFFFF00
0FFFFFFE00
0FFFFFFE00
1FFF800E00
3FFE000000
3FF8000000
3FF0000000
7FF0000000
7FE0000000
7FE0000000
7FC0000000
FFC0000000
FFC0000000
FFC0000000
FFC0000000
FFC0000000
7FC0000000
7FE0000000
7FE0000000
7FE0000000
7FF0000000
3FF8000000
3FFC000000
1FFF000100
1FFFFDFF00
0FFFFFFF00
07FFFFFF00
03FFFFFF80
01FFFFFF80
00FFFFFF80
003FFFFF80
000FFFFF00
0000FFE000
ENDCHAR
STARTCHAR 010E
ENCODING 270
SWIDTH 488 0
DWIDTH 38 0
BBX 33 65 4 0
BITMAP
0600380000
0F00780000
1FC0FC0000
3FE3FE0000
1FF7FE0000
0FFFFC0000
07FFF80000
03FFF00000
01FFE00000
00FF800000
007F000000
003E000000
000C000000
0000000000
0000000000
01FC000000
FFFFF00000
FFFFFC0000
FFFFFF0000
FFFFFF8000
FFFFFFC000
FFFFFFE000
FFFFFFF000
FFFFFFF800
FFC07FF800
FFC03FFC00
FFC01FFC00
FFC00FFE00
FFC007FE00
FFC007FE00
FFC003FF00
FFC003FF00
FFC003FF00
FFC001FF00
FFC001FF00
FFC001FF80
FFC001FF80
FFC001FF80
FFC001FF80
FFC001FF80
FFC001FF80
FFC001FF80
FFC001FF80
FFC001FF80
FFC001FF80
FFC001FF00
FFC003FF00
FFC003FF00
FFC003FF00
FFC003FF00
FFC007FE00
FFC007FE00
FFC00FFE00
FFC01FFC00
FFC03FFC00
FFC0FFF800
FFFFFFF800
FFFFFFF000
FFFFFFE000
FFFFFFC000
FFFFFF8000
FFFFFE0000
FFFFF80000
FFFFE00000
00F4000000
ENDCHAR
STARTCHAR 010F
ENCODING 271
SWIDTH 488 0
DWIDTH 38 0
BBX 39 55 1 -1
BITMAP
00000071FE
00001FF1FE
00003FF1FE
00003FF1FE
00003FF1FE
00003FF1FE
00003FF1FC
00003FF1FC
00003FF1FC
00003FF1FC
00003FF1FC
00003FF1FC
00003FF1FC
00003FF1FC
00003FF1F8
00003FF1F8
00003FF1F8
00FFBFF000
03FFFFF000
07FFFFF000
0FFFFFF000
1FFFFFF000
1FFFFFF000
3FFFFFF000
3FFFFFF000
7FF07FF000
7FE03FF000
7FE03FF000
7FC03FF000
FFC03FF000
FFC03FF000
FFC03FF000
FFC03FF000
FFC03FF000
FFC03FF000
FFC03FF000
FFC03FF000
FFC03FF000
FFC03FF000
FFC03FF000
FFC03FF000
FFC03FF000
7FE03FF000
7FE03FF000
7FF03FF000
7FF03FF000
3FFCFFF000
3FFFFFF000
1FFFFFF000
0FFFFFF000
0FFFFFF000
07FFFFF000
01FFFFF000
00FFFFC000
001FF00000
ENDCHAR
STARTCHAR 0110
ENCODING 272
SWIDTH 488 0
DWIDTH 38 0
BBX 36 50 1 -1
BITMAP
001FC00000
07FFFE0000
07FFFFC000
07FFFFE000
07FFFFF800
07FFFFFC00
07FFFFFE00
07FFFFFE00
07FFFFFF00
07FC0FFF80
07FC03FF80
07FC01FFC0
07FC00FFC0
07FC00FFC0
07FC007FE0
07FC007FE0
07FC007FE0
07FC007FE0
07FC003FE0
07FC003FE0
FFFFF03FF0
FFFFF03FF0
FFFFF03FF0
FFFFF03FF0
FFFFF03FF0
FFFFF03FF0
FFFFF03FF0
FFFFF03FF0
07FC003FF0
07FC003FF0
07FC003FE0
07FC007FE0
07FC007FE0
07FC007FE0
07FC007FE0
07FC00FFC0
07FC00FFC0
07FC01FFC0
07FC03FF80
07FC07FF80
07FC0FFF00
07FFFFFF00
07FFFFFE00
07FFFFFC00
07FFFFF800
07FFFFF000
07FFFFE000
07FFFF8000
07FFFC0000
000F000000
ENDCHAR
STARTCHAR 0111
ENCODING 273
SWIDTH 488 0
DWIDTH 38 0
BBX 35 55 2 -1
BITMAP
0000000E00
000001FE00
000003FE00
000003FE00
000003FE00
000003FE00
000FFFFFE0
000FFFFFE0
000FFFFFE0
000FFFFFE0
000FFFFFE0
000FFFFFE0
000FFFFFE0
000003FE00
000003FE00
000003FE00
000003FE00
007FF3FE00
01FFFFFE00
03FFFFFE00
07FFFFFE00
0FFFFFFE00
1FFFFFFE00
1FFFFFFE00
3FFFFFFE00
3FFC0FFE00
7FF003FE00
7FF003FE00
7FE003FE00
7FE003FE00
7FC003FE00
FFC003FE00
FFC003FE00
FFC003FE00
FFC003FE00
FFC003FE00
FFC003FE00
FFC003FE00
FFC003FE00
FFC003FE00
FFC003FE00
7FE003FE00
7FE003FE00
7FF003FE00
7FF003FE00
3FF803FE00
3FFF0FFE00
1FFFFFFE00
1FFFFFFE00
0FFFFFFE00
07FFFFFE00
03FFFFFE00
00FFFFFE00
003FFFF800
0007FE0000
ENDCHAR
STARTCHAR 0112
ENCODING 274
SWIDTH 488 0
DWIDTH 38 0
BBX 31 61 5 0
BITMAP
1FFFFFC0
1FFFFFC0
1FFFFFC0
1FFFFFC0
1FFFFFC0
1FFFFFC0
1FFFFFC0
00000000
00000000
00000000
00000000
00000000
00000000
FFFFFFF8
FFFFFFF8
FFFFFFF8
FFFFFFF8
FFFFFFF8
FFFFFFF8
FFFFFFF8
FFFFFFF8
FF800000
FF800000
FF800000
FF800000
FF800000
FF800000
FF800000
FF800000
FF800000
FF800000
FF800000
FFFFFFE0
FFFFFFE0
FFFFFFE0
FFFFFFE0
FFFFFFE0
FFFFFFE0
FFFFFFE0
FFFFFFE0
FF800000
FF800000
FF800000
FF800000
FF800000
FF800000
FF800000
FF800000
FF800000
FF800000
FF800000
FF800000
FF800000
FFFFFFFE
FFFFFFFE
FFFFFFFE
FFFFFFFE
FFFFFFFE
FFFFFFFE
FFFFFFFE
FFFFFFFE
ENDCHAR
STARTCHAR 0113
ENCODING 275
SWIDTH 488 0
DWIDTH 38 0
BBX 34 51 2 -1
BITMAP
03FFFFF800
03FFFFF800
03FFFFF800
03FFFFF800
03FFFFF800
03FFFFF800
0000000000
0000000000
0000000000
0000000000
0000000000
0000000000
0000000000
000FFF0000
003FFFC000
00FFFFF000
01FFFFF800
03FFFFFC00
07FFFFFE00
0FFFFFFF00
1FFFFFFF00
1FFC03FF80
3FF801FF80
3FF000FF80
3FE000FF80
7FE0007FC0
7FE0007FC0
7FC0007FC0
7FFFFFFFC0
FFFFFFFFC0
FFFFFFFFC0
FFFFFFFFC0
FFFFFFFFC0
FFFFFFFFC0
FFFFFFFFC0
7FC0000000
7FC0000000
7FE0000000
7FE0000000
3FF0000000
3FF8000000
3FFE000E00
1FFFF7FE00
0FFFFFFE00
0FFFFFFE00
07FFFFFF00
03FFFFFF00
00FFFFFF00
007FFFFF00
000FFFFC00
0001FF8000
ENDCHAR
STARTCHAR 0114
ENCODING 276
SWIDTH 488 0
DWIDTH 38 0
BBX 31 64 5 0
BITMAP
1FC01FC0
1FC01FC0
1FE03FC0
1FE03F80
0FF07F80
0FFFFF80
07FFFF00
07FFFF00
03FFFE00
01FFFC00
007FF000
000F0000
00000000
00000000
00000000
00000000
FFFFFFF8
FFFFFFF8
FFFFFFF8
FFFFFFF8
FFFFFFF8
FFFFFFF8
FFFFFFF8
FFFFFFF8
FF800000
FF800000
FF800000
FF800000
FF800000
FF800000
FF800000
FF800000
FF800000
FF800000
FF800000
FFFFFFE0
FFFFFFE0
FFFFFFE0
FFFFFFE0
FFFFFFE0
FFFFFFE0
FFFFFFE0
FFFFFFE0
FF800000
FF800000
FF800000
FF800000
FF800000
FF800000
FF800000
FF800000
FF800000
FF800000
FF800000
FF800000
FF800000
FFFFFFFE
FFFFFFFE
FFFFFFFE
FFFFFFFE
FFFFFFFE
FFFFFFFE
FFFFFFFE
FFFFFFFE
ENDCHAR
STARTCHAR 0115
ENCODING 277
SWIDTH 488 0
DWIDTH 38 0
BBX 34 54 2 -1
BITMAP
03F803F800
03F807F800
03FC07F800
03FC07F000
01FF1FF000
01FFFFF000
00FFFFE000
00FFFFC000
007FFFC000
001FFF0000
000FFC0000
0000000000
0000000000
0000000000
0000000000
0000000000
000FFF0000
003FFFC000
00FFFFF000
01FFFFF800
03FFFFFC00
07FFFFFE00
0FFFFFFF00
1FFFFFFF00
1FFC03FF80
3FF801FF80
3FF000FF80
3FE000FF80
7FE0007FC0
7FE0007FC0
7FC0007FC0
7FFFFFFFC0
FFFFFFFFC0
FFFFFFFFC0
FFFFFFFFC0
FFFFFFFFC0
FFFFFFFFC0
FFFFFFFFC0
7FC0000000
7FC0000000
7FE0000000
7FE0000000
3FF0000000
3FF8000000
3FFE000E00
1FFFF7FE00
0FFFFFFE00
0FFFFFFE00
07FFFFFF00
03FFFFFF00
00FFFFFF00
007FFFFF00
000FFFFC00
0001FF8000
ENDCHAR
STARTCHAR 0116
ENCODING 278
SWIDTH 488 0
DWIDTH 38 0
BBX 31 63 5 0
BITMAP
001F8000
003FE000
003FE000
007FF000
007FF000
007FF000
007FF000
007FE000
003FE000
001FC000
00020000
00000000
00000000
00000000
00000000
FFFFFFF8
FFFFFFF8
FFFFFFF8
FFFFFFF8
FFFFFFF8
FFFFFFF8
FFFFFFF8
FFFFFFF8
FF800000
FF800000
FF800000
FF800000
FF800000
FF800000
FF800000
FF800000
FF800000
FF800000
FF800000
FFFFFFE0
FFFFFFE0
FFFFFFE0
FFFFFFE0
FFFFFFE0
FFFFFFE0
FFFFFFE0
FFFFFFE0
FF800000
FF800000
FF800000
FF800000
FF800000
FF800000
FF800000
FF800000
FF800000
FF800000
FF800000
FF800000
FF800000
FFFFFFFE
FFFFFFFE
FFFFFFFE
FFFFFFFE
FFFFFFFE
FFFFFFFE
FFFFFFFE
FFFFFFFE
ENDCHAR
STARTCHAR 0117
ENCODING 279
SWIDTH 488 0
DWIDTH 38 0
BBX 34 54 2 -1
BITMAP
0000400000
0003F80000
0007FC0000
000FFC0000
000FFE0000
000FFE0000
000FFE0000
000FFE0000
000FFC0000
0007FC0000
0003F80000
0000000000
0000000000
0000000000
0000000000
0000000000
000FFF0000
003FFFC000
00FFFFF000
01FFFFF800
03FFFFFC00
07FFFFFE00
0FFFFFFF00
1FFFFFFF00
1FFC03FF80
3FF801FF80
3FF000FF80
3FE000FF80
7FE0007FC0
7FE0007FC0
7FC0007FC0
7FFFFFFFC0
FFFFFFFFC0
FFFFFFFFC0
FFFFFFFFC0
FFFFFFFFC0
FFFFFFFFC0
FFFFFFFFC0
7FC0000000
7FC0000000
7FE0000000
7FE0000000
3FF0000000
3FF8000000
3FFE000E00
1FFFF7FE00
0FFFFFFE00
0FFFFFFE00
07FFFFFF00
03FFFFFF00
00FFFFFF00
007FFFFF00
000FFFFC00
0001FF8000
ENDCHAR
STARTCHAR 0118
ENCODING 280
SWIDTH 488 0
DWIDTH 38 0
BBX 32 61 5 -13
BITMAP
FFFFFFF8
FFFFFFF8
FFFFFFF8
FFFFFFF8
FFFFFFF8
FFFFFFF8
FFFFFFF8
FFFFFFF8
FF800000
FF800000
FF800000
FF800000
FF800000
FF800000
FF800000
FF800000
FF800000
FF800000
FF800000
FFFFFFE0
FFFFFFE0
FFFFFFE0
FFFFFFE0
FFFFFFE0
FFFFFFE0
FFFFFFE0
FFFFFFE0
FF800000
FF800000
FF800000
FF800000
FF800000
FF800000
FF800000
FF800000
FF800000
FF800000
FF800000
FF800000
FF800000
FFFFFFFE
FFFFFFFE
FFFFFFFE
FFFFFFFE
FFFFFFFE
FFFFFFFE
FFFFFFFE
FFFFFFFE
000003FC
000007F8
00000FF0
00001FE0
00001FC0
00003FC0
00003FC0
00003FC0
00003FFE
00003FFF
00003FFF
00001FFF
00000FFE
ENDCHAR
STARTCHAR 0119
ENCODING 281
SWIDTH 488 0
DWIDTH 38 0
BBX 34 50 2 -13
BITMAP
000FFF0000
003FFFC000
00FFFFF000
01FFFFF800
03FFFFFC00
07FFFFFE00
0FFFFFFF00
1FFFFFFF00
1FFC03FF80
3FF801FF80
3FF000FF80
3FE000FF80
7FE0007FC0
7FE0007FC0
7FC0007FC0
7FFFFFFFC0
FFFFFFFFC0
FFFFFFFFC0
FFFFFFFFC0
FFFFFFFFC0
FFFFFFFFC0
FFFFFFFFC0
7FC0000000
7FC0000000
7FE0000000
7FE0000000
3FF0000000
3FF8000000
3FFE000E00
1FFFF7FE00
0FFFFFFE00
0FFFFFFE00
07FFFFFF00
03FFFFFF00
00FFFFFF00
007FFFFF00
000FFFFE00
0001FFFC00
00000FF000
00001FE000
00001FE000
00003FC000
00003F8000
00007F8000
00007FC000
00007FFE00
00007FFE00
00003FFE00
00003FFE00
00000FFC00
ENDCHAR
STARTCHAR 011A
ENCODING 282
SWIDTH 488 0
DWIDTH 38 0
BBX 31 65 5 0
BITMAP
01000000
01800C00
03C01E00
07E07F00
0FF8FF80
0FFDFF80
07FFFF00
03FFFE00
00FFF800
007FF000
003FE000
001FC000
000F8000
00070000
00000000
00000000
00000000
FFFFFFF8
FFFFFFF8
FFFFFFF8
FFFFFFF8
FFFFFFF8
FFFFFFF8
FFFFFFF8
FFFFFFF8
FF800000
FF800000
FF800000
FF800000
FF800000
FF800000
FF800000
FF800000
FF800000
FF800000
FF800000
FFFFFFE0
FFFFFFE0
FFFFFFE0
FFFFFFE0
FFFFFFE0
FFFFFFE0
FFFFFFE0
FFFFFFE0
FF800000
FF800000
FF800000
FF800000
FF800000
FF800000
FF800000
FF800000
FF800000
FF800000
FF800000
FF800000
FF800000
FFFFFFFE
FFFFFFFE
FFFFFFFE
FFFFFFFE
FFFFFFFE
FFFFFFFE
FFFFFFFE
FFFFFFFE
ENDCHAR
STARTCHAR 011B
ENCODING 283
SWIDTH 488 0
DWIDTH 38 0
BBX 34 55 2 -1
BITMAP
0020008000
0070018000
007807C000
00FE0FE000
01FF1FF000
01FFBFF000
007FFFC000
003FFF8000
001FFF0000
000FFE0000
0007FC0000
0003F80000
0001F00000
0000C00000
0000000000
0000000000
0000000000
000FFF0000
003FFFC000
00FFFFF000
01FFFFF800
03FFFFFC00
07FFFFFE00
0FFFFFFF00
1FFFFFFF00
1FFC03FF80
3FF801FF80
3FF000FF80
3FE000FF80
7FE0007FC0
7FE0007FC0
7FC0007FC0
7FFFFFFFC0
FFFFFFFFC0
FFFFFFFFC0
FFFFFFFFC0
FFFFFFFFC0
FFFFFFFFC0
FFFFFFFFC0
7FC0000000
7FC0000000
7FE0000000
7FE0000000
3FF0000000
3FF8000000
3FFE000E00
1FFFF7FE00
0FFFFFFE00
0FFFFFFE00
07FFFFFF00
03FFFFFF00
00FFFFFF00
007FFFFF00
000FFFFC00
0001FF8000
ENDCHAR
STARTCHAR 011C
ENCODING 284
SWIDTH 488 0
DWIDTH 38 0
BBX 34 65 2 0
BITMAP
00000C0000
00001E0000
00003F8000
0000FFC000
0001FFE000
0003FFF000
0007FFF800
000FFFFC00
001FFBFE00
001FE1FE00
000FC0FE00
000F807C00
0007001800
0000000000
0000000000
0001FFE000
000FFFFE00
001FFFFF80
007FFFFFC0
00FFFFFFC0
01FFFFFF80
03FFFFFF80
07FFFFFF80
0FFFE03F00
0FFF000700
1FFE000100
1FFC000000
3FF8000000
3FF0000000
3FF0000000
7FE0000000
7FE0000000
7FE0000000
7FC0000000
FFC0000000
FFC0000000
FFC0000000
FFC0000000
FFC0000000
FFC000FFC0
FFC000FFC0
FFC000FFC0
FFC000FFC0
FFC000FFC0
FFC000FFC0
FFC000FFC0
7FC000FFC0
7FE000FFC0
7FE000FFC0
7FE000FFC0
7FE000FFC0
3FF000FFC0
3FF000FFC0
3FF800FFC0
1FFC00FFC0
1FFF00FFC0
0FFFE1FFC0
07FFFFFFC0
07FFFFFFC0
03FFFFFFC0
01FFFFFFC0
00FFFFFFC0
003FFFFFC0
000FFFFF00
0001FFE000
ENDCHAR
STARTCHAR 011D
ENCODING 285
SWIDTH 488 0
DWIDTH 38 0
BBX 31 67 3 -13
BITMAP
00008000
0001C000
0003E000
0007F000
000FF800
001FFE00
007FFF00
00FFFF80
01FFFFC0
03FF7FE0
03FE1FE0
01F80FC0
00F00780
00600300
00000000
00000000
00000000
001FFFC0
007FFFFE
01FFFFFE
07FFFFFE
0FFFFFFE
1FFFFFFE
3FFFFFFE
3FFF9FFE
7FF807FE
7FF007FE
7FE007FE
FFC007FE
FFC007FE
FFC007FE
FFC007FE
FF8007FE
FF8007FE
FF8007FE
FF8007FE
FF8007FE
FF8007FE
FFC007FE
FFC007FE
FFC007FE
FFE007FE
7FF007FE
7FFC3FFE
3FFFFFFE
3FFFFFFE
1FFFFFFE
0FFFFFFE
07FFFFFE
03FFFFFE
00FFF7FE
000607FE
000007FE
000007FE
000007FE
000007FC
00000FFC
30001FFC
3F007FFC
7FFFFFF8
7FFFFFF8
7FFFFFF0
7FFFFFE0
7FFFFFC0
FFFFFF80
1FFFFC00
01FFE000
ENDCHAR
STARTCHAR 011E
ENCODING 286
SWIDTH 488 0
DWIDTH 38 0
BBX 34 65 2 -1
BITMAP
003F807F00
003F807F00
003F807F00
003FC0FF00
003FE1FF00
001FFFFE00
001FFFFE00
000FFFFC00
0007FFF800
0003FFF000
0001FFC000
00001E0000
0000000000
0000000000
0000000000
0001FFE000
000FFFFE00
001FFFFF80
007FFFFFC0
00FFFFFFC0
01FFFFFF80
03FFFFFF80
07FFFFFF80
0FFFE03F00
0FFF000700
1FFE000100
1FFC000000
3FF8000000
3FF0000000
3FF0000000
7FE0000000
7FE0000000
7FE0000000
7FC0000000
FFC0000000
FFC0000000
FFC0000000
FFC0000000
FFC0000000
FFC000FFC0
FFC000FFC0
FFC000FFC0
FFC000FFC0
FFC000FFC0
FFC000FFC0
FFC000FFC0
7FC000FFC0
7FE000FFC0
7FE000FFC0
7FE000FFC0
7FE000FFC0
3FF000FFC0
3FF000FFC0
3FF800FFC0
1FFC00FFC0
1FFF00FFC0
0FFFE1FFC0
07FFFFFFC0
07FFFFFFC0
03FFFFFFC0
01FFFFFFC0
00FFFFFFC0
003FFFFFC0
000FFFFF00
0001FFE000
ENDCHAR
STARTCHAR 011F
ENCODING 287
SWIDTH 488 0
DWIDTH 38 0
BBX 31 66 3 -13
BITMAP
07F007F0
07F00FF0
07F80FF0
07F80FE0
03FE3FE0
03FFFFE0
01FFFFC0
01FFFF80
00FFFF80
003FFE00
001FF800
00000000
00000000
00000000
00000000
00000000
001FFFC0
007FFFFE
01FFFFFE
07FFFFFE
0FFFFFFE
1FFFFFFE
3FFFFFFE
3FFF9FFE
7FF807FE
7FF007FE
7FE007FE
FFC007FE
FFC007FE
FFC007FE
FFC007FE
FF8007FE
FF8007FE
FF8007FE
FF8007FE
FF8007FE
FF8007FE
FFC007FE
FFC007FE
FFC007FE
FFE007FE
7FF007FE
7FFC3FFE
3FFFFFFE
3FFFFFFE
1FFFFFFE
0FFFFFFE
07FFFFFE
03FFFFFE
00FFF7FE
000607FE
000007FE
000007FE
000007FE
000007FC
00000FFC
30001FFC
3F007FFC
7FFFFFF8
7FFFFFF8
7FFFFFF0
7FFFFFE0
7FFFFFC0
FFFFFF80
1FFFFC00
01FFE000
ENDCHAR
STARTCHAR 0120
ENCODING 288
SWIDTH 488 0
DWIDTH 38 0
BBX 34 64 2 -1
BITMAP
00003F0000
00007F8000
0000FFC000
0000FFC000
0001FFC000
0001FFC000
0000FFC000
0000FFC000
00007F8000
00003F0000
0000080000
0000000000
0000000000
0000000000
0001FFE000
000FFFFE00
001FFFFF80
007FFFFFC0
00FFFFFFC0
01FFFFFF80
03FFFFFF80
07FFFFFF80
0FFFE03F00
0FFF000700
1FFE000100
1FFC000000
3FF8000000
3FF0000000
3FF0000000
7FE0000000
7FE0000000
7FE0000000
7FC0000000
FFC0000000
FFC0000000
FFC0000000
FFC0000000
FFC0000000
FFC000FFC0
FFC000FFC0
FFC000FFC0
FFC000FFC0
FFC000FFC0
FFC000FFC0
FFC000FFC0
7FC000FFC0
7FE000FFC0
7FE000FFC0
7FE000FFC0
7FE000FFC0
3FF000FFC0
3FF000FFC0
3FF800FFC0
1FFC00FFC0
1FFF00FFC0
0FFFE1FFC0
07FFFFFFC0
07FFFFFFC0
03FFFFFFC0
01FFFFFFC0
00FFFFFFC0
003FFFFFC0
000FFFFF00
0001FFE000
ENDCHAR
STARTCHAR 0121
ENCODING 289
SWIDTH 488 0
DWIDTH 38 0
BBX 31 66 3 -13
BITMAP
00008000
0007F000
000FF800
001FF800
001FFC00
001FFC00
001FFC00
001FFC00
001FF800
000FF800
0007F000
00000000
00000000
00000000
00000000
00000000
001FFFC0
007FFFFE
01FFFFFE
07FFFFFE
0FFFFFFE
1FFFFFFE
3FFFFFFE
3FFF9FFE
7FF807FE
7FF007FE
7FE007FE
FFC007FE
FFC007FE
FFC007FE
FFC007FE
FF8007FE
FF8007FE
FF8007FE
FF8007FE
FF8007FE
FF8007FE
FFC007FE
FFC007FE
FFC007FE
FFE007FE
7FF007FE
7FFC3FFE
3FFFFFFE
3FFFFFFE
1FFFFFFE
0FFFFFFE
07FFFFFE
03FFFFFE
00FFF7FE
000607FE
000007FE
000007FE
000007FE
000007FC
00000FFC
30001FFC
3F007FFC
7FFFFFF8
7FFFFFF8
7FFFFFF0
7FFFFFE0
7FFFFFC0
FFFFFF80
1FFFFC00
01FFE000
ENDCHAR
STARTCHAR 0122
ENCODING 290
SWIDTH 488 0
DWIDTH 38 0
BBX 34 62 2 -13
BITMAP
0001FFE000
000FFFFE00
001FFFFF80
007FFFFFC0
00FFFFFFC0
01FFFFFF80
03FFFFFF80
07FFFFFF80
0FFFE03F00
0FFF000700
1FFE000100
1FFC000000
3FF8000000
3FF0000000
3FF0000000
7FE0000000
7FE0000000
7FE0000000
7FC0000000
FFC0000000
FFC0000000
FFC0000000
FFC0000000
FFC0000000
FFC000FFC0
FFC000FFC0
FFC000FFC0
FFC000FFC0
FFC000FFC0
FFC000FFC0
FFC000FFC0
7FC000FFC0
7FE000FFC0
7FE000FFC0
7FE000FFC0
7FE000FFC0
3FF000FFC0
3FF000FFC0
3FF800FFC0
1FFC00FFC0
1FFF00FFC0
0FFFE1FFC0
07FFFFFFC0
07FFFFFFC0
03FFFFFFC0
01FFFFFFC0
00FFFFFFC0
003FFFFFC0
000FFFFF00
0001FFE000
0000000000
0000000000
00007F0000
0000FF0000
0000FF0000
0000FF0000
0001FF0000
001FFF0000
001FFE0000
001FFE0000
001FFC0000
001FF00000
ENDCHAR
STARTCHAR 0123
ENCODING 291
SWIDTH 488 0
DWIDTH 38 0
BBX 31 68 3 -13
BITMAP
00000E00
00003E00
00007F00
0000FF80
0001FFC0
0003FF00
0003FE00
0007FE00
0007FC00
0007FC00
0007FC00
0007F800
0007F800
00000000
00000000
00000000
00000000
00000000
001FFFC0
007FFFFE
01FFFFFE
07FFFFFE
0FFFFFFE
1FFFFFFE
3FFFFFFE
3FFF9FFE
7FF807FE
7FF007FE
7FE007FE
FFC007FE
FFC007FE
FFC007FE
FFC007FE
FF8007FE
FF8007FE
FF8007FE
FF8007FE
FF8007FE
FF8007FE
FFC007FE
FFC007FE
FFC007FE
FFE007FE
7FF007FE
7FFC3FFE
3FFFFFFE
3FFFFFFE
1FFFFFFE
0FFFFFFE
07FFFFFE
03FFFFFE
00FFF7FE
000607FE
000007FE
000007FE
000007FE
000007FC
00000FFC
30001FFC
3F007FFC
7FFFFFF8
7FFFFFF8
7FFFFFF0
7FFFFFE0
7FFFFFC0
FFFFFF80
1FFFFC00
01FFE000
ENDCHAR
STARTCHAR 0124
ENCODING 292
SWIDTH 488 0
DWIDTH 38 0
BBX 32 64 3 1
BITMAP
0001C000
0003E000
0007F000
000FF800
001FFC00
003FFE00
00FFFF80
01FFFFC0
03FF7FE0
03FE3FE0
01FC0FC0
00F00780
00600300
00000100
00000000
00000000
FFC001FF
FFC001FF
FFC001FF
FFC001FF
FFC001FF
FFC001FF
FFC001FF
FFC001FF
FFC001FF
FFC001FF
FFC001FF
FFC001FF
FFC001FF
FFC001FF
FFC001FF
FFC001FF
FFC001FF
FFC001FF
FFC001FF
FFFFFFFF
FFFFFFFF
FFFFFFFF
FFFFFFFF
FFFFFFFF
FFFFFFFF
FFFFFFFF
FFFFFFFF
FFC001FF
FFC001FF
FFC001FF
FFC001FF
FFC001FF
FFC001FF
FFC001FF
FFC001FF
FFC001FF
FFC001FF
FFC001FF
FFC001FF
FFC001FF
FFC001FF
FFC001FF
FFC001FF
FFC001FF
FFC001FF
FFC001FF
FFC001FF
FFC001FF
ENDCHAR
STARTCHAR 0125
ENCODING 293
SWIDTH 488 0
DWIDTH 38 0
BBX 29 64 5 0
BITMAP
00E00000
01F00000
07FC0000
0FFE0000
1FFF0000
7FFFC000
FFFFE000
FFBFE000
FE0FE000
7803C000
30018000
00000000
00000000
01800000
7F800000
FF800000
FF800000
FF800000
FF800000
FF800000
FF800000
FF800000
FF800000
FF800000
FF800000
FF800000
FF800000
FFBFF800
FFFFFE00
FFFFFF80
FFFFFFC0
FFFFFFC0
FFFFFFE0
FFFFFFF0
FFFFFFF0
FFE07FF0
FF803FF8
FF801FF8
FF801FF8
FF801FF8
FF801FF8
FF800FF8
FF800FF8
FF800FF8
FF800FF8
FF800FF8
FF800FF8
FF800FF8
FF800FF8
FF800FF8
FF800FF8
FF800FF8
FF800FF8
FF800FF8
FF800FF8
FF800FF8
FF800FF8
FF800FF8
FF800FF8
FF800FF8
FF800FF8
FF800FF8
FF800FF8
FF800FF8
ENDCHAR
STARTCHAR 0126
ENCODING 294
SWIDTH 488 0
DWIDTH 38 0
BBX 37 48 1 0
BITMAP
0FF801FF80
0FF801FF80
0FF801FF80
0FF801FF80
0FF801FF80
FFFFFFFFF8
FFFFFFFFF8
FFFFFFFFF8
FFFFFFFFF8
FFFFFFFFF8
FFFFFFFFF8
FFFFFFFFF8
FFFFFFFFF8
0FF801FF80
0FF801FF80
0FF801FF80
0FF801FF80
0FF801FF80
0FF801FF80
0FF801FF80
0FFFFFFF80
0FFFFFFF80
0FFFFFFF80
0FFFFFFF80
0FFFFFFF80
0FFFFFFF80
0FFFFFFF80
0FFFFFFF80
0FF801FF80
0FF801FF80
0FF801FF80
0FF801FF80
0FF801FF80
0FF801FF80
0FF801FF80
0FF801FF80
0FF801FF80
0FF801FF80
0FF801FF80
0FF801FF80
0FF801FF80
0FF801FF80
0FF801FF80
0FF801FF80
0FF801FF80
0FF801FF80
0FF801FF80
0FF801FF80
ENDCHAR
STARTCHAR 0127
ENCODING 295
SWIDTH 488 0
DWIDTH 38 0
BBX 32 54 2 0
BITMAP
001C0000
07FC0000
0FFC0000
0FFC0000
0FFC0000
0FFC0000
FFFFFF00
FFFFFF00
FFFFFF00
FFFFFF00
FFFFFF00
FFFFFF00
FFFFFF00
0FFC0000
0FFC0000
0FFC0000
0FFC0000
0FFDFF80
0FFFFFE0
0FFFFFF0
0FFFFFF8
0FFFFFFC
0FFFFFFC
0FFFFFFE
0FFFFFFE
0FFE0FFE
0FFC07FF
0FFC03FF
0FFC03FF
0FFC03FF
0FFC03FF
0FFC01FF
0FFC01FF
0FFC01FF
0FFC01FF
0FFC01FF
0FFC01FF
0FFC01FF
0FFC01FF
0FFC01FF
0FFC01FF
0FFC01FF
0FFC01FF
0FFC01FF
0FFC01FF
0FFC01FF
0FFC01FF
0FFC01FF
0FFC01FF
0FFC01FF
0FFC01FF
0FFC01FF
0FFC01FF
0FFC01FF
ENDCHAR
STARTCHAR 0128
ENCODING 296
SWIDTH 488 0
DWIDTH 38 0
BBX 31 63 4 0
BITMAP
00300100
00FE03C0
03FFC7E0
07FFFFF0
0FFFFFE0
0FFFFFE0
1FFFFFC0
1FFFFF80
0F81FF00
03007E00
01000000
00000000
00000000
00000000
00000000
FFFFFFFE
FFFFFFFE
FFFFFFFE
FFFFFFFE
FFFFFFFE
FFFFFFFE
FFFFFFFE
FFFFFFFE
001FF000
001FF000
001FF000
001FF000
001FF000
001FF000
001FF000
001FF000
001FF000
001FF000
001FF000
001FF000
001FF000
001FF000
001FF000
001FF000
001FF000
001FF000
001FF000
001FF000
001FF000
001FF000
001FF000
001FF000
001FF000
001FF000
001FF000
001FF000
001FF000
001FF000
001FF000
001FF000
FFFFFFFE
FFFFFFFE
FFFFFFFE
FFFFFFFE
FFFFFFFE
FFFFFFFE
FFFFFFFE
FFFFFFFE
ENDCHAR
STARTCHAR 0129
ENCODING 297
SWIDTH 488 0
DWIDTH 38 0
BBX 33 53 3 -1
BITMAP
0070010000
01FE03C000
03FFEFE000
07FFFFE000
0FFFFFE000
1FFFFFC000
1FFFFFC000
1FFFFF8000
0F01FE0000
03003C0000
0000000000
0000000000
0000000000
0000000000
0000000000
FFFFE00000
FFFFE00000
FFFFE00000
FFFFE00000
FFFFE00000
FFFFE00000
FFFFE00000
FFFFE00000
003FE00000
003FE00000
003FE00000
003FE00000
003FE00000
003FE00000
003FE00000
003FE00000
003FE00000
003FE00000
003FE00000
003FE00000
003FE00000
003FE00000
003FE00000
003FE00000
003FF00000
003FF00000
003FF00000
003FF00000
001FF80300
001FFFFF00
001FFFFF80
001FFFFF80
000FFFFF80
0007FFFF80
0007FFFF80
0001FFFF80
0000FFFE00
00001FE000
ENDCHAR
STARTCHAR 012A
ENCODING 298
SWIDTH 488 0
DWIDTH 38 0
BBX 31 61 4 0
BITMAP
0FFFFFE0
0FFFFFE0
0FFFFFE0
0FFFFFE0
0FFFFFE0
0FFFFFE0
0FFFFFE0
00000000
00000000
00000000
00000000
00000000
00000000
FFFFFFFE
FFFFFFFE
FFFFFFFE
FFFFFFFE
FFFFFFFE
FFFFFFFE
FFFFFFFE
FFFFFFFE
001FF000
001FF000
001FF000
001FF000
001FF000
001FF000
001FF000
001FF000
001FF000
001FF000
001FF000
001FF000
001FF000
001FF000
001FF000
001FF000
001FF000
001FF000
001FF000
001FF000
001FF000
001FF000
001FF000
001FF000
001FF000
001FF000
001FF000
001FF000
001FF000
001FF000
001FF000
001FF000
FFFFFFFE
FFFFFFFE
FFFFFFFE
FFFFFFFE
FFFFFFFE
FFFFFFFE
FFFFFFFE
FFFFFFFE
ENDCHAR
STARTCHAR 012B
ENCODING 299
SWIDTH 488 0
DWIDTH 38 0
BBX 33 51 3 -1
BITMAP
0FFFFFC000
0FFFFFC000
0FFFFFC000
0FFFFFC000
0FFFFFC000
0FFFFFC000
0000000000
0000000000
0000000000
0000000000
0000000000
0000000000
0000000000
FFFFE00000
FFFFE00000
FFFFE00000
FFFFE00000
FFFFE00000
FFFFE00000
FFFFE00000
FFFFE00000
003FE00000
003FE00000
003FE00000
003FE00000
003FE00000
003FE00000
003FE00000
003FE00000
003FE00000
003FE00000
003FE00000
003FE00000
003FE00000
003FE00000
003FE00000
003FE00000
003FF00000
003FF00000
003FF00000
003FF00000
001FF80300
001FFFFF00
001FFFFF80
001FFFFF80
000FFFFF80
0007FFFF80
0007FFFF80
0001FFFF80
0000FFFE00
00001FE000
ENDCHAR
STARTCHAR 012C
ENCODING 300
SWIDTH 488 0
DWIDTH 38 0
BBX 31 64 4 0
BITMAP
0FE00FE0
0FE00FE0
0FF01FE0
0FF01FC0
07F83FC0
07FFFFC0
03FFFF80
03FFFF80
01FFFF00
00FFFE00
003FF800
00078000
00000000
00000000
00000000
00000000
FFFFFFFE
FFFFFFFE
FFFFFFFE
FFFFFFFE
FFFFFFFE
FFFFFFFE
FFFFFFFE
FFFFFFFE
001FF000
001FF000
001FF000
001FF000
001FF000
001FF000
001FF000
001FF000
001FF000
001FF000
001FF000
001FF000
001FF000
001FF000
001FF000
001FF000
001FF000
001FF000
001FF000
001FF000
001FF000
001FF000
001FF000
001FF000
001FF000
001FF000
001FF000
001FF000
001FF000
001FF000
001FF000
001FF000
FFFFFFFE
FFFFFFFE
FFFFFFFE
FFFFFFFE
FFFFFFFE
FFFFFFFE
FFFFFFFE
FFFFFFFE
ENDCHAR
STARTCHAR 012D
ENCODING 301
SWIDTH 488 0
DWIDTH 38 0
BBX 33 54 3 -1
BITMAP
0FE01FC000
0FE01FC000
0FE01FC000
0FF03FC000
0FF87FC000
07FFFF8000
07FFFF8000
03FFFF0000
01FFFE0000
00FFFC0000
003FF00000
0000000000
0000000000
0000000000
0000000000
0000000000
FFFFE00000
FFFFE00000
FFFFE00000
FFFFE00000
FFFFE00000
FFFFE00000
FFFFE00000
FFFFE00000
003FE00000
003FE00000
003FE00000
003FE00000
003FE00000
003FE00000
003FE00000
003FE00000
003FE00000
003FE00000
003FE00000
003FE00000
003FE00000
003FE00000
003FE00000
003FE00000
003FF00000
003FF00000
003FF00000
003FF00000
001FF80300
001FFFFF00
001FFFFF80
001FFFFF80
000FFFFF80
0007FFFF80
0007FFFF80
0001FFFF80
0000FFFE00
00001FE000
ENDCHAR
STARTCHAR 012E
ENCODING 302
SWIDTH 488 0
DWIDTH 38 0
BBX 31 61 4 -13
BITMAP
FFFFFFFE
FFFFFFFE
FFFFFFFE
FFFFFFFE
FFFFFFFE
FFFFFFFE
FFFFFFFE
FFFFFFFE
001FF000
001FF000
001FF000
001FF000
001FF000
001FF000
001FF000
001FF000
001FF000
001FF000
001FF000
001FF000
001FF000
001FF000
001FF000
001FF000
001FF000
001FF000
001FF000
001FF000
001FF000
001FF000
001FF000
001FF000
001FF000
001FF000
001FF000
001FF000
001FF000
001FF000
001FF000
001FF000
FFFFFFFE
FFFFFFFE
FFFFFFFE
FFFFFFFE
FFFFFFFE
FFFFFFFE
FFFFFFFE
FFFFFFFE
000FF000
001FE000
003FC000
007F8000
007F0000
00FF0000
00FF0000
00FF0000
00FFFC00
00FFFC00
00FFFC00
007FFC00
003FF800
ENDCHAR
STARTCHAR 012F
ENCODING 303
SWIDTH 488 0
DWIDTH 38 0
BBX 33 66 3 -13
BITMAP
003F000000
007F800000
00FFC00000
01FFE00000
01FFE00000
01FFE00000
01FFE00000
01FFE00000
01FFE00000
00FFC00000
007F800000
003F000000
0000000000
0000000000
0000000000
0000000000
FFFFE00000
FFFFE00000
FFFFE00000
FFFFE00000
FFFFE00000
FFFFE00000
FFFFE00000
FFFFE00000
003FE00000
003FE00000
003FE00000
003FE00000
003FE00000
003FE00000
003FE00000
003FE00000
003FE00000
003FE00000
003FE00000
003FE00000
003FE00000
003FE00000
003FE00000
003FE00000
003FF00000
003FF00000
003FF00000
003FF00000
001FF80300
001FFF7F00
001FFFFF80
001FFFFF80
000FFFFF80
0007FFFF80
0007FFFF80
0001FFFF80
0000FFFF00
00001FFE00
000003FC00
000007F800
00000FF000
00001FE000
00001FE000
00001FC000
00003FE000
00003FFF00
00001FFF00
00001FFF00
00000FFF80
000003FE00
ENDCHAR
STARTCHAR 0130
ENCODING 304
SWIDTH 488 0
DWIDTH 38 0
BBX 31 64 4 0
BITMAP
000FE000
001FF000
003FF000
003FF800
003FF800
003FF800
003FF800
003FF000
001FF000
000FE000
00000000
00000000
00000000
00000000
00000000
00000000
FFFFFFFE
FFFFFFFE
FFFFFFFE
FFFFFFFE
FFFFFFFE
FFFFFFFE
FFFFFFFE
FFFFFFFE
001FF000
001FF000
001FF000
001FF000
001FF000
001FF000
001FF000
001FF000
001FF000
001FF000
001FF000
001FF000
001FF000
001FF000
001FF000
001FF000
001FF000
001FF000
001FF000
001FF000
001FF000
001FF000
001FF000
001FF000
001FF000
001FF000
001FF000
001FF000
001FF000
001FF000
001FF000
001FF000
FFFFFFFE
FFFFFFFE
FFFFFFFE
FFFFFFFE
FFFFFFFE
FFFFFFFE
FFFFFFFE
FFFFFFFE
ENDCHAR
STARTCHAR 0131
ENCODING 305
SWIDTH 488 0
DWIDTH 38 0
BBX 33 38 3 -1
BITMAP
FFFFE00000
FFFFE00000
FFFFE00000
FFFFE00000
FFFFE00000
FFFFE00000
FFFFE00000
FFFFE00000
003FE00000
003FE00000
003FE00000
003FE00000
003FE00000
003FE00000
003FE00000
003FE00000
003FE00000
003FE00000
003FE00000
003FE00000
003FE00000
003FE00000
003FE00000
003FE00000
003FF00000
003FF00000
003FF00000
003FF00000
001FF80300
001FFFFF00
001FFFFF80
001FFFFF80
000FFFFF80
0007FFFF80
0007FFFF80
0001FFFF80
0000FFFE00
00001FE000
ENDCHAR
STARTCHAR 0132
ENCODING 306
SWIDTH 488 0
DWIDTH 38 0
BBX 35 49 2 -1
BITMAP
FF80003FE0
FF80003FE0
FF80003FE0
FF80003FE0
FF80003FE0
FF80003FE0
FF80003FE0
FF80003FE0
FF80003FE0
FF80003FE0
FF80003FE0
FF80003FE0
FF80003FE0
FF80003FE0
FF80003FE0
FF80003FE0
FF80003FE0
FF80003FE0
FF80003FE0
FF80003FE0
FF80003FE0
FF80003FE0
FF80003FE0
FF80003FE0
FF80003FE0
FF80003FE0
FF80003FE0
FF80003FE0
FF80003FE0
FF80003FE0
FF80003FE0
FF80003FE0
FF80003FE0
FF80003FE0
FF80003FE0
FF80007FE0
FF80007FE0
FF80007FE0
FF81007FE0
FF8180FFE0
FF83E3FFC0
FF83FFFFC0
FF87FFFFC0
FF87FFFF80
FF8FFFFF00
FF8FFFFF00
FF87FFFE00
FF83FFF800
00007FC000
ENDCHAR
STARTCHAR 0133
ENCODING 307
SWIDTH 488 0
DWIDTH 38 0
BBX 30 66 4 -13
BITMAP
1F8007E0
3FE00FF8
7FF01FFC
7FF03FFC
FFF83FFC
FFF83FFC
FFF83FFC
FFF03FFC
7FF01FFC
7FF01FF8
3FE00FF0
0F8003E0
00000000
00000000
00000000
00000000
3FE01FF8
3FE01FF8
3FE01FF8
3FE01FF8
3FE01FF8
3FE01FF8
3FE01FF8
3FE01FF8
3FE01FF8
3FE01FF8
3FE01FF8
3FE01FF8
3FE01FF8
3FE01FF8
3FE01FF8
3FE01FF8
3FE01FF8
3FE01FF8
3FE01FF8
3FE01FF8
3FE01FF8
3FE01FF8
3FE01FF8
3FE01FF8
3FE01FF8
3FE01FF8
3FE01FF8
3FE01FF8
3FE01FF8
3FE01FF8
3FE01FF8
3FE01FF8
3FE01FF8
3FE01FF8
3FE01FF8
3FE01FF8
3FE01FF8
00001FF8
00001FF8
00001FF8
00003FF8
0018FFF0
001FFFF0
001FFFF0
003FFFE0
003FFFE0
003FFFC0
003FFF80
003FFE00
000FF000
ENDCHAR
STARTCHAR 0134
ENCODING 308
SWIDTH 488 0
DWIDTH 38 0
BBX 31 65 3 0
BITMAP
00000C00
00003E00
00007F00
0000FF80
0001FFE0
0003FFF0
0007FFF8
000FFFFC
003FF7FE
003FE1FE
001FC0FC
000F8078
00060038
00000000
00000000
00000000
07FFFFFE
07FFFFFE
07FFFFFE
07FFFFFE
07FFFFFE
07FFFFFE
07FFFFFE
07FFFFFE
000007FE
000007FE
000007FE
000007FE
000007FE
000007FE
000007FE
000007FE
000007FE
000007FE
000007FE
000007FE
000007FE
000007FE
000007FE
000007FE
000007FE
000007FE
000007FE
000007FE
000007FE
000007FE
000007FE
000007FE
000007FE
000007FE
000007FE
000007FE
000007FE
08000FFC
1C001FFC
1F003FFC
3FF3FFF8
3FFFFFF8
7FFFFFF0
7FFFFFF0
FFFFFFE0
7FFFFFC0
1FFFFF00
07FFFC00
00FFE000
ENDCHAR
STARTCHAR 0135
ENCODING 309
SWIDTH 488 0
DWIDTH 38 0
BBX 27 66 4 -12
BITMAP
0000C000
0003F000
0007F800
000FFC00
001FFE00
003FFF00
007FFF80
00FFFFC0
03FF3FE0
01FE1FE0
00FC0FC0
00F00380
00600180
00000000
00000000
00000000
00000000
1FFFFFE0
1FFFFFE0
1FFFFFE0
1FFFFFE0
1FFFFFE0
1FFFFFE0
1FFFFFE0
00003FE0
00003FE0
00003FE0
00003FE0
00003FE0
00003FE0
00003FE0
00003FE0
00003FE0
00003FE0
00003FE0
00003FE0
00003FE0
00003FE0
00003FE0
00003FE0
00003FE0
00003FE0
00003FE0
00003FE0
00003FE0
00003FE0
00003FE0
00003FE0
00003FE0
00003FE0
00003FE0
00003FE0
00007FE0
00007FE0
00007FE0
30007FE0
3E00FFC0
3FC3FFC0
7FFFFFC0
7FFFFF80
7FFFFF80
FFFFFF00
FFFFFE00
7FFFFC00
1FFFF800
01FFC000
ENDCHAR
STARTCHAR 0136
ENCODING 310
SWIDTH 488 0
DWIDTH 38 0
BBX 35 61 3 -13
BITMAP
FFC003FF80
FFC003FF80
FFC007FF00
FFC007FE00
FFC00FFE00
FFC00FFC00
FFC01FFC00
FFC01FF800
FFC03FF000
FFC07FF000
FFC07FE000
FFC0FFC000
FFC1FFC000
FFC1FF8000
FFC3FF0000
FFC7FF0000
FFC7FE0000
FFCFFC0000
FFDFF80000
FFFFF80000
FFFFF00000
FFFFE00000
FFFFE00000
FFFFF00000
FFFFF80000
FFFFFC0000
FFDFFE0000
FFCFFF0000
FFC7FF0000
FFC7FF8000
FFC3FFC000
FFC1FFE000
FFC0FFE000
FFC07FF000
FFC07FF800
FFC03FF800
FFC01FFC00
FFC01FFC00
FFC00FFE00
FFC00FFE00
FFC007FF00
FFC007FF00
FFC003FF80
FFC003FF80
FFC001FFC0
FFC001FFC0
FFC000FFE0
FFC000FFE0
0000000000
0000000000
0000000000
0003FC0000
0003FC0000
0003FC0000
0003FC0000
0007FC0000
00FFF80000
00FFF80000
00FFF00000
00FFE00000
00FF800000
ENDCHAR
STARTCHAR 0137
ENCODING 311
SWIDTH 488 0
DWIDTH 38 0
BBX 33 67 5 -13
BITMAP
01C0000000
7FC0000000
FFC0000000
FFC0000000
FFC0000000
FFC0000000
FFC0000000
FFC0000000
FFC0000000
FFC0000000
FFC0000000
FFC0000000
FFC0000000
FFC0000000
FFC0000000
FFC0000000
FFC0000000
FFC00FFE00
FFC01FFE00
FFC01FFC00
FFC03FF800
FFC07FF000
FFC07FE000
FFC0FFC000
FFC1FFC000
FFC1FF8000
FFC3FF0000
FFC7FE0000
FFCFFC0000
FFCFF80000
FFDFF00000
FFFFE00000
FFFFC00000
FFFF800000
FFFFC00000
FFFFE00000
FFFFF00000
FFFFF80000
FFDFFC0000
FFCFFE0000
FFC7FF0000
FFC3FF0000
FFC1FF8000
FFC1FFC000
FFC0FFE000
FFC07FF000
FFC07FF000
FFC03FF800
FFC01FFC00
FFC01FFC00
FFC00FFE00
FFC007FF00
FFC007FF00
FFC003FF80
0000000000
0000000000
0000000000
000FF00000
000FF00000
000FF00000
000FF00000
001FF00000
03FFE00000
03FFE00000
03FFC00000
03FF800000
03FE000000
ENDCHAR
STARTCHAR 0138
ENCODING 312
SWIDTH 488 0
DWIDTH 38 0
BBX 33 37 5 0
BITMAP
3FC00FFE00
FFC01FFE00
FFC01FFC00
FFC03FF800
FFC07FF000
FFC07FE000
FFC0FFC000
FFC1FFC000
FFC1FF8000
FFC3FF0000
FFC7FE0000
FFCFFC0000
FFCFF80000
FFDFF00000
FFFFE00000
FFFFC00000
FFFF800000
FFFFC00000
FFFFE00000
FFFFF00000
FFFFF80000
FFDFFC0000
FFCFFE0000
FFC7FF0000
FFC3FF0000
FFC1FF8000
FFC1FFC000
FFC0FFE000
FFC07FF000
FFC07FF000
FFC03FF800
FFC01FFC00
FFC01FFC00
FFC00FFE00
FFC007FF00
FFC007FF00
FFC003FF80
ENDCHAR
STARTCHAR 0139
ENCODING 313
SWIDTH 488 0
DWIDTH 38 0
BBX 30 64 6 1
BITMAP
000E0000
001E0000
003F0000
00FF8000
01FF8000
07FFC000
0FFFE000
1FFF8000
3FFE0000
1FF80000
1FE00000
0F800000
06000000
00000000
00000000
00000000
FF800000
FF800000
FF800000
FF800000
FF800000
FF800000
FF800000
FF800000
FF800000
FF800000
FF800000
FF800000
FF800000
FF800000
FF800000
FF800000
FF800000
FF800000
FF800000
FF800000
FF800000
FF800000
FF800000
FF800000
FF800000
FF800000
FF800000
FF800000
FF800000
FF800000
FF800000
FF800000
FF800000
FF800000
FF800000
FF800000
FF800000
FF800000
FF800000
FF800000
FFFFFFFC
FFFFFFFC
FFFFFFFC
FFFFFFFC
FFFFFFFC
FFFFFFFC
FFFFFFFC
FFFFFFFC
ENDCHAR
STARTCHAR 013A
ENCODING 314
SWIDTH 488 0
DWIDTH 38 0
BBX 33 65 3 -1
BITMAP
00000C0000
00003E0000
0000FE0000
0007FE0000
001FFF0000
007FFF0000
01FFFF0000
00FFF80000
00FFC00000
00FE000000
0070000000
0000000000
0000000000
0000000000
FFFFE00000
FFFFE00000
FFFFE00000
FFFFE00000
FFFFE00000
FFFFE00000
FFFFE00000
FFFFE00000
003FE00000
003FE00000
003FE00000
003FE00000
003FE00000
003FE00000
003FE00000
003FE00000
003FE00000
003FE00000
003FE00000
003FE00000
003FE00000
003FE00000
003FE00000
003FE00000
003FE00000
003FE00000
003FE00000
003FE00000
003FE00000
003FE00000
003FE00000
003FE00000
003FE00000
003FE00000
003FE00000
003FE00000
003FE00000
003FF00000
003FF00000
003FF00000
003FF00000
003FF80300
001FFF7F00
001FFFFF80
001FFFFF80
000FFFFF80
0007FFFF80
0007FFFF80
0003FFFF80
0000FFFE00
00001FE000
ENDCHAR
STARTCHAR 013B
ENCODING 315
SWIDTH 488 0
DWIDTH 38 0
BBX 30 61 6 -13
BITMAP
FF800000
FF800000
FF800000
FF800000
FF800000
FF800000
FF800000
FF800000
FF800000
FF800000
FF800000
FF800000
FF800000
FF800000
FF800000
FF800000
FF800000
FF800000
FF800000
FF800000
FF800000
FF800000
FF800000
FF800000
FF800000
FF800000
FF800000
FF800000
FF800000
FF800000
FF800000
FF800000
FF800000
FF800000
FF800000
FF800000
FF800000
FF800000
FF800000
FF800000
FFFFFFFC
FFFFFFFC
FFFFFFFC
FFFFFFFC
FFFFFFFC
FFFFFFFC
FFFFFFFC
FFFFFFFC
00000000
00000000
00000000
0007F000
000FF000
000FF000
000FF000
001FF000
01FFF000
01FFE000
01FFE000
01FFC000
01FF0000
ENDCHAR
STARTCHAR 013C
ENCODING 316
SWIDTH 488 0
DWIDTH 38 0
BBX 33 67 3 -13
BITMAP
FFFFE00000
FFFFE00000
FFFFE00000
FFFFE00000
FFFFE00000
FFFFE00000
FFFFE00000
FFFFE00000
003FE00000
003FE00000
003FE00000
003FE00000
003FE00000
003FE00000
003FE00000
003FE00000
003FE00000
003FE00000
003FE00000
003FE00000
003FE00000
003FE00000
003FE00000
003FE00000
003FE00000
003FE00000
003FE00000
003FE00000
003FE00000
003FE00000
003FE00000
003FE00000
003FE00000
003FE00000
003FE00000
003FE00000
003FE00000
003FE00000
003FE00000
003FE00000
003FE00000
003FF00000
003FF00000
003FF00000
003FF00000
003FF80300
001FFF7F00
001FFFFF80
001FFFFF80
000FFFFF80
0007FFFF80
0007FFFF80
0003FFFF80
0000FFFE00
00001FE000
0000000000
0000000000
00001FC000
00001FE000
00001FE000
00003FE000
00007FE000
0007FFC000
0007FFC000
0007FF8000
0007FF0000
0007FC0000
ENDCHAR
STARTCHAR 013D
ENCODING 317
SWIDTH 488 0
DWIDTH 38 0
BBX 30 48 6 0
BITMAP
FF80FF80
FF80FF00
FF80FF00
FF80FF00
FF80FF00
FF80FF00
FF80FF00
FF80FF00
FF80FE00
FF80FE00
FF80FE00
FF80FE00
FF80FE00
FF80FE00
FF80FE00
FF80FC00
FF80FC00
FF800000
FF800000
FF800000
FF800000
FF800000
FF800000
FF800000
FF800000
FF800000
FF800000
FF800000
FF800000
FF800000
FF800000
FF800000
FF800000
FF800000
FF800000
FF800000
FF800000
FF800000
FF800000
FF800000
FFFFFFFC
FFFFFFFC
FFFFFFFC
FFFFFFFC
FFFFFFFC
FFFFFFFC
FFFFFFFC
FFFFFFFC
ENDCHAR
STARTCHAR 013E
ENCODING 318
SWIDTH 488 0
DWIDTH 38 0
BBX 34 55 3 -1
BITMAP
FFFFE03FC0
FFFFE03FC0
FFFFE03FC0
FFFFE03FC0
FFFFE03F80
FFFFE03F80
FFFFE03F80
FFFFE03F80
003FE03F80
003FE03F80
003FE03F80
003FE03F80
003FE03F00
003FE03F00
003FE03F00
003FE03F00
003FE03F00
003FE00000
003FE00000
003FE00000
003FE00000
003FE00000
003FE00000
003FE00000
003FE00000
003FE00000
003FE00000
003FE00000
003FE00000
003FE00000
003FE00000
003FE00000
003FE00000
003FE00000
003FE00000
003FE00000
003FE00000
003FE00000
003FE00000
003FE00000
003FE00000
003FF00000
003FF00000
003FF00000
003FF00000
003FF80300
001FFF7F00
001FFFFF80
001FFFFF80
000FFFFF80
0007FFFF80
0007FFFF80
0003FFFF80
0000FFFE00
00001FE000
ENDCHAR
STARTCHAR 013F
ENCODING 319
SWIDTH 488 0
DWIDTH 38 0
BBX 30 48 6 0
BITMAP
FF800000
FF800000
FF800000
FF800000
FF800000
FF800000
FF800000
FF800000
FF800000
FF800000
FF800000
FF800000
FF800000
FF800000
FF800FE0
FF803FF0
FF803FF8
FF807FF8
FF807FF8
FF807FFC
FF807FFC
FF807FFC
FF807FF8
FF803FF8
FF803FF0
FF800FE0
FF800000
FF800000
FF800000
FF800000
FF800000
FF800000
FF800000
FF800000
FF800000
FF800000
FF800000
FF800000
FF800000
FF800000
FFFFFFFC
FFFFFFFC
FFFFFFFC
FFFFFFFC
FFFFFFFC
FFFFFFFC
FFFFFFFC
FFFFFFFC
ENDCHAR
STARTCHAR 0140
ENCODING 320
SWIDTH 488 0
DWIDTH 38 0
BBX 41 55 3 -1
BITMAP
FFFFE0000000
FFFFE0000000
FFFFE0000000
FFFFE0000000
FFFFE0000000
FFFFE0000000
FFFFE0000000
FFFFE0000000
003FE0000000
003FE0000000
003FE0000000
003FE0000000
003FE0000000
003FE0000000
003FE0000000
003FE0000000
003FE0000000
003FE0000000
003FE0000000
003FE000F800
003FE003FE00
003FE007FF00
003FE007FF80
003FE00FFF80
003FE00FFF80
003FE00FFF80
003FE00FFF80
003FE007FF80
003FE007FF80
003FE003FF00
003FE001FE00
003FE0007000
003FE0000000
003FE0000000
003FE0000000
003FE0000000
003FE0000000
003FE0000000
003FE0000000
003FE0000000
003FE0000000
003FF0000000
003FF0000000
003FF0000000
003FF0000000
003FF8030000
001FFF7F0000
001FFFFF8000
001FFFFF8000
000FFFFF8000
0007FFFF8000
0007FFFF8000
0003FFFF8000
0000FFFE0000
00001FE00000
ENDCHAR
STARTCHAR 0141
ENCODING 321
SWIDTH 488 0
DWIDTH 38 0
BBX 37 48 -1 0
BITMAP
00FFC00000
00FFC00000
00FFC00000
00FFC00000
00FFC00000
00FFC00000
00FFC00000
00FFC00000
00FFC00000
00FFC00000
00FFC00000
00FFC00000
00FFC00000
00FFC0E000
00FFC3E000
00FFCFE000
00FFFFF000
00FFFFF000
00FFFFF800
00FFFFF800
00FFFFE000
00FFFF8000
03FFFE0000
0FFFF80000
3FFFE00000
FFFFC00000
7FFFC00000
7FFFC00000
3FFFC00000
3FFFC00000
1EFFC00000
18FFC00000
00FFC00000
00FFC00000
00FFC00000
00FFC00000
00FFC00000
00FFC00000
00FFC00000
00FFC00000
00FFFFFFF8
00FFFFFFF8
00FFFFFFF8
00FFFFFFF8
00FFFFFFF8
00FFFFFFF8
00FFFFFFF8
00FFFFFFF8
ENDCHAR
STARTCHAR 0142
ENCODING 322
SWIDTH 488 0
DWIDTH 38 0
BBX 33 55 3 -1
BITMAP
FFFFE00000
FFFFE00000
FFFFE00000
FFFFE00000
FFFFE00000
FFFFE00000
FFFFE00000
FFFFE00000
003FE00000
003FE00000
003FE00000
003FE00000
003FE00000
003FE00000
003FE00000
003FE00000
003FE18000
003FE78000
003FFFC000
003FFFC000
003FFFE000
003FFFE000
003FFFC000
00FFFF0000
03FFFC0000
0FFFF00000
1FFFE00000
1FFFE00000
1FFFE00000
0FFFE00000
0FFFE00000
073FE00000
043FE00000
003FE00000
003FE00000
003FE00000
003FE00000
003FE00000
003FE00000
003FE00000
003FE00000
003FF00000
003FF00000
003FF00000
003FF00000
003FF80300
001FFF7F00
001FFFFF80
001FFFFF80
000FFFFF80
0007FFFF80
0007FFFF80
0003FFFF80
0000FFFE00
00001FE000
ENDCHAR
STARTCHAR 0143
ENCODING 323
SWIDTH 488 0
DWIDTH 38 0
BBX 31 64 4 1
BITMAP
00001800
00007800
0000FC00
0003FE00
0007FE00
001FFF00
003FFF80
007FFE00
00FFF800
007FE000
007F8000
003E0000
00180000
00000000
00000000
00000000
FF0001FE
FF0001FE
FF8001FE
FF8001FE
FFC001FE
FFE001FE
FFE001FE
FFF001FE
FFF001FE
FFF801FE
FFF801FE
FFFC01FE
FFFC01FE
FFFE01FE
FFFE01FE
FFFF01FE
FFFF81FE
FF7F81FE
FF3FC1FE
FF3FC1FE
FF1FE1FE
FF1FE1FE
FF0FE1FE
FF0FF1FE
FF07F1FE
FF07F9FE
FF03F9FE
FF03FDFE
FF01FDFE
FF01FFFE
FF00FFFE
FF00FFFE
FF007FFE
FF007FFE
FF003FFE
FF003FFE
FF001FFE
FF001FFE
FF001FFE
FF000FFE
FF000FFE
FF0007FE
FF0007FE
FF0003FE
FF0003FE
FF0001FE
FF0001FE
FF0001FE
ENDCHAR
STARTCHAR 0144
ENCODING 324
SWIDTH 488 0
DWIDTH 38 0
BBX 29 54 5 0
BITMAP
00002000
00006000
0001F000
0003F800
000FF800
001FFC00
003FFE00
00FFFE00
01FFF800
01FFE000
01FF8000
00FE0000
00780000
00600000
00000000
00000000
00000000
07FFF800
FFFFFE00
FFFFFF00
FFFFFFC0
FFFFFFC0
FFFFFFE0
FFFFFFF0
FFFFFFF0
FF807FF0
FF803FF8
FF801FF8
FF801FF8
FF801FF8
FF801FF8
FF800FF8
FF800FF8
FF800FF8
FF800FF8
FF800FF8
FF800FF8
FF800FF8
FF800FF8
FF800FF8
FF800FF8
FF800FF8
FF800FF8
FF800FF8
FF800FF8
FF800FF8
FF800FF8
FF800FF8
FF800FF8
FF800FF8
FF800FF8
FF800FF8
FF800FF8
FF800FF8
ENDCHAR
STARTCHAR 0145
ENCODING 325
SWIDTH 488 0
DWIDTH 38 0
BBX 31 61 4 -13
BITMAP
FF0001FE
FF0001FE
FF8001FE
FF8001FE
FFC001FE
FFE001FE
FFE001FE
FFF001FE
FFF001FE
FFF801FE
FFF801FE
FFFC01FE
FFFC01FE
FFFE01FE
FFFE01FE
FFFF01FE
FFFF81FE
FF7F81FE
FF3FC1FE
FF3FC1FE
FF1FE1FE
FF1FE1FE
FF0FE1FE
FF0FF1FE
FF07F1FE
FF07F9FE
FF03F9FE
FF03FDFE
FF01FDFE
FF01FFFE
FF00FFFE
FF00FFFE
FF007FFE
FF007FFE
FF003FFE
FF003FFE
FF001FFE
FF001FFE
FF001FFE
FF000FFE
FF000FFE
FF0007FE
FF0007FE
FF0003FE
FF0003FE
FF0001FE
FF0001FE
FF0001FE
00000000
00000000
00000000
0007F800
0007F800
0007F800
0007F800
000FF800
01FFF000
01FFF000
01FFE000
01FFC000
01FF0000
ENDCHAR
STARTCHAR 0146
ENCODING 326
SWIDTH 488 0
DWIDTH 38 0
BBX 29 50 5 -13
BITMAP
07FFF800
FFFFFE00
FFFFFF00
FFFFFFC0
FFFFFFC0
FFFFFFE0
FFFFFFF0
FFFFFFF0
FF807FF0
FF803FF8
FF801FF8
FF801FF8
FF801FF8
FF801FF8
FF800FF8
FF800FF8
FF800FF8
FF800FF8
FF800FF8
FF800FF8
FF800FF8
FF800FF8
FF800FF8
FF800FF8
FF800FF8
FF800FF8
FF800FF8
FF800FF8
FF800FF8
FF800FF8
FF800FF8
FF800FF8
FF800FF8
FF800FF8
FF800FF8
FF800FF8
FF800FF8
00000000
00000000
00000000
001FE000
001FE000
001FE000
001FE000
003FE000
03FFE000
03FFC000
03FFC000
03FF8000
03FE0000
ENDCHAR
STARTCHAR 0147
ENCODING 327
SWIDTH 488 0
DWIDTH 38 0
BBX 31 65 4 0
BITMAP
00800000
00C00600
01E00F00
03F03F80
07FC7FC0
07FEFFC0
03FFFF80
01FFFF00
007FFC00
003FF800
001FF000
000FE000
0007C000
00038000
00000000
00000000
00000000
FF0001FE
FF0001FE
FF8001FE
FF8001FE
FFC001FE
FFE001FE
FFE001FE
FFF001FE
FFF001FE
FFF801FE
FFF801FE
FFFC01FE
FFFC01FE
FFFE01FE
FFFE01FE
FFFF01FE
FFFF81FE
FF7F81FE
FF3FC1FE
FF3FC1FE
FF1FE1FE
FF1FE1FE
FF0FE1FE
FF0FF1FE
FF07F1FE
FF07F9FE
FF03F9FE
FF03FDFE
FF01FDFE
FF01FFFE
FF00FFFE
FF00FFFE
FF007FFE
FF007FFE
FF003FFE
FF003FFE
FF001FFE
FF001FFE
FF001FFE
FF000FFE
FF000FFE
FF0007FE
FF0007FE
FF0003FE
FF0003FE
FF0001FE
FF0001FE
FF0001FE
ENDCHAR
STARTCHAR 0148
ENCODING 328
SWIDTH 488 0
DWIDTH 38 0
BBX 29 54 5 0
BITMAP
01000400
03800C00
03C03E00
07F07F00
0FF8FF80
0FFDFF80
03FFFE00
01FFFC00
00FFF800
007FF000
003FE000
001FC000
000F8000
00060000
00000000
00000000
00000000
07FFF800
FFFFFE00
FFFFFF00
FFFFFFC0
FFFFFFC0
FFFFFFE0
FFFFFFF0
FFFFFFF0
FF807FF0
FF803FF8
FF801FF8
FF801FF8
FF801FF8
FF801FF8
FF800FF8
FF800FF8
FF800FF8
FF800FF8
FF800FF8
FF800FF8
FF800FF8
FF800FF8
FF800FF8
FF800FF8
FF800FF8
FF800FF8
FF800FF8
FF800FF8
FF800FF8
FF800FF8
FF800FF8
FF800FF8
FF800FF8
FF800FF8
FF800FF8
FF800FF8
FF800FF8
ENDCHAR
STARTCHAR 0149
ENCODING 329
SWIDTH 488 0
DWIDTH 38 0
BBX 38 54 -2 0
BITMAP
3FE0000000
1FE0000000
1FE0000000
1FE0000000
1FE0000000
3FE0000000
3FE0000000
3FE0000000
3FC0000000
3FC0000000
3FC0000000
7F80000000
7F80000000
FF80000000
FF00000000
1E00000000
0000000000
0003FFF800
007FFFFE00
00FFFFFF80
00FFFFFFC0
00FFFFFFE0
00FFFFFFE0
00FFFFFFF0
00FFFFFFF0
00FFC07FF8
00FFC03FF8
00FFC01FF8
00FFC01FF8
00FFC00FF8
00FFC00FFC
00FFC00FFC
00FFC00FFC
00FFC00FFC
00FFC00FFC
00FFC00FFC
00FFC00FFC
00FFC00FFC
00FFC00FFC
00FFC00FFC
00FFC00FFC
00FFC00FFC
00FFC00FFC
00FFC00FFC
00FFC00FFC
00FFC00FFC
00FFC00FFC
00FFC00FFC
00FFC00FFC
00FFC00FFC
00FFC00FFC
00FFC00FFC
00FFC00FFC
00FFC00FFC
ENDCHAR
STARTCHAR 014A
ENCODING 330
SWIDTH 488 0
DWIDTH 38 0
BBX 31 61 4 -13
BITMAP
FF0001FE
FF0001FE
FF8001FE
FF8001FE
FFC001FE
FFE001FE
FFE001FE
FFF001FE
FFF001FE
FFF801FE
FFF801FE
FFFC01FE
FFFC01FE
FFFE01FE
FFFE01FE
FFFF01FE
FFFF81FE
FF7F81FE
FF3FC1FE
FF3FC1FE
FF1FE1FE
FF1FE1FE
FF0FE1FE
FF0FF1FE
FF07F1FE
FF07F9FE
FF03F9FE
FF03FDFE
FF01FDFE
FF01FFFE
FF00FFFE
FF00FFFE
FF007FFE
FF007FFE
FF003FFE
FF003FFE
FF001FFE
FF001FFE
FF000FFE
FF000FFE
FF000FFE
FF0007FE
FF0007FE
FF0003FE
FF0003FE
FF0001FE
FF0001FE
FF0001FE
000001FE
000001FE
000003FE
000003FE
000087FE
0000FFFE
0000FFFC
0001FFFC
0001FFF8
0001FFF8
0001FFF0
0001FFC0
0000FF00
ENDCHAR
STARTCHAR 014B
ENCODING 331
SWIDTH 488 0
DWIDTH 38 0
BBX 29 50 5 -13
BITMAP
07FFF800
FFFFFE00
FFFFFF00
FFFFFFC0
FFFFFFC0
FFFFFFE0
FFFFFFF0
FFFFFFF0
FF807FF0
FF803FF8
FF801FF8
FF801FF8
FF801FF8
FF801FF8
FF800FF8
FF800FF8
FF800FF8
FF800FF8
FF800FF8
FF800FF8
FF800FF8
FF800FF8
FF800FF8
FF800FF8
FF800FF8
FF800FF8
FF800FF8
FF800FF8
FF800FF8
FF800FF8
FF800FF8
FF800FF8
FF800FF8
FF800FF8
FF800FF8
FF800FF8
FF800FF8
00000FF8
00000FF8
00001FF8
00001FF8
00003FF8
0007FFF8
000FFFF0
000FFFF0
000FFFE0
000FFFE0
000FFFC0
000FFF00
0007F800
ENDCHAR
STARTCHAR 014C
ENCODING 332
SWIDTH 488 0
DWIDTH 38 0
BBX 35 62 2 -1
BITMAP
03FFFFF800
03FFFFF800
03FFFFF800
03FFFFF800
03FFFFF800
03FFFFF800
03FFFFF800
0000000000
0000000000
0000000000
0000000000
0000000000
000FFE0000
003FFF8000
00FFFFE000
01FFFFF000
03FFFFF800
07FFFFFC00
0FFFFFFE00
0FFFFFFE00
1FFE0FFF00
1FF807FF00
3FF803FF80
3FF001FF80
3FE000FF80
7FE000FFC0
7FE000FFC0
7FE000FFC0
7FC0007FC0
7FC0007FC0
FFC0007FC0
FFC0007FE0
FFC0007FE0
FFC0007FE0
FFC0007FE0
FFC0007FE0
FFC0007FE0
FFC0007FE0
FFC0007FE0
FFC0007FE0
FFC0007FE0
FFC0007FE0
FFC0007FE0
FFC0007FC0
7FC0007FC0
7FC000FFC0
7FE000FFC0
7FE000FFC0
7FE000FF80
3FE001FF80
3FF001FF80
3FF803FF00
1FFC07FF00
1FFF1FFF00
0FFFFFFE00
0FFFFFFC00
07FFFFFC00
03FFFFF800
01FFFFF000
00FFFFC000
003FFF8000
0007FC0000
ENDCHAR
STARTCHAR 014D
ENCODING 333
SWIDTH 488 0
DWIDTH 38 0
BBX 35 51 2 -1
BITMAP
03FFFFF800
03FFFFF800
03FFFFF800
03FFFFF800
03FFFFF800
03FFFFF800
0000000000
0000000000
0000000000
0000000000
0000000000
0000000000
0000000000
000FFF0000
007FFFC000
00FFFFE000
03FFFFF800
07FFFFFC00
0FFFFFFE00
0FFFFFFE00
1FFFFFFF00
1FFC07FF00
3FF803FF80
3FF001FF80
7FF000FFC0
7FE000FFC0
7FE000FFC0
7FC0007FC0
FFC0007FE0
FFC0007FE0
FFC0007FE0
FFC0007FE0
FFC0007FE0
FFC0007FE0
FFC0007FE0
7FC0007FC0
7FE000FFC0
7FE000FFC0
7FE000FFC0
7FF001FF80
3FF003FF80
3FF807FF80
1FFF1FFF00
1FFFFFFF00
0FFFFFFE00
07FFFFFC00
03FFFFF800
01FFFFF000
00FFFFE000
003FFF8000
0007FC0000
ENDCHAR
STARTCHAR 014E
ENCODING 334
SWIDTH 488 0
DWIDTH 38 0
BBX 35 65 2 -1
BITMAP
03F803F800
03F803F800
03FC07F800
03FC07F000
01FE0FF000
01FFFFF000
00FFFFE000
00FFFFE000
007FFFC000
003FFF8000
000FFE0000
0001E00000
0000000000
0000000000
0000000000
000FFE0000
003FFF8000
00FFFFE000
01FFFFF000
03FFFFF800
07FFFFFC00
0FFFFFFE00
0FFFFFFE00
1FFE0FFF00
1FF807FF00
3FF803FF80
3FF001FF80
3FE000FF80
7FE000FFC0
7FE000FFC0
7FE000FFC0
7FC0007FC0
7FC0007FC0
FFC0007FC0
FFC0007FE0
FFC0007FE0
FFC0007FE0
FFC0007FE0
FFC0007FE0
FFC0007FE0
FFC0007FE0
FFC0007FE0
FFC0007FE0
FFC0007FE0
FFC0007FE0
FFC0007FE0
FFC0007FC0
7FC0007FC0
7FC000FFC0
7FE000FFC0
7FE000FFC0
7FE000FF80
3FE001FF80
3FF001FF80
3FF803FF00
1FFC07FF00
1FFF1FFF00
0FFFFFFE00
0FFFFFFC00
07FFFFFC00
03FFFFF800
01FFFFF000
00FFFFC000
003FFF8000
0007FC0000
ENDCHAR
STARTCHAR 014F
ENCODING 335
SWIDTH 488 0
DWIDTH 38 0
BBX 35 54 2 -1
BITMAP
03F803F800
03F807F800
03FC07F800
03FC07F000
01FF1FF000
01FFFFF000
00FFFFE000
00FFFFC000
007FFFC000
001FFF0000
000FFC0000
0000000000
0000000000
0000000000
0000000000
0000000000
000FFF0000
007FFFC000
00FFFFE000
03FFFFF800
07FFFFFC00
0FFFFFFE00
0FFFFFFE00
1FFFFFFF00
1FFC07FF00
3FF803FF80
3FF001FF80
7FF000FFC0
7FE000FFC0
7FE000FFC0
7FC0007FC0
FFC0007FE0
FFC0007FE0
FFC0007FE0
FFC0007FE0
FFC0007FE0
FFC0007FE0
FFC0007FE0
7FC0007FC0
7FE000FFC0
7FE000FFC0
7FE000FFC0
7FF001FF80
3FF003FF80
3FF807FF80
1FFF1FFF00
1FFFFFFF00
0FFFFFFE00
07FFFFFC00
03FFFFF800
01FFFFF000
00FFFFE000
003FFF8000
0007FC0000
ENDCHAR
STARTCHAR 0150
ENCODING 336
SWIDTH 488 0
DWIDTH 38 0
BBX 35 65 2 0
BITMAP
0003000400
0003800E00
0007C01F00
000FE03F80
001FF07FC0
003FF0FFC0
007FE1FF80
00FFC3FF00
01FF07FC00
03FE0FF800
01FC07F000
00F003C000
0060018000
0000000000
0000000000
000FFE0000
003FFF8000
00FFFFE000
01FFFFF000
03FFFFF800
07FFFFFC00
0FFFFFFE00
0FFFFFFE00
1FFE0FFF00
1FF807FF00
3FF803FF80
3FF001FF80
3FE000FF80
7FE000FFC0
7FE000FFC0
7FE000FFC0
7FC0007FC0
7FC0007FC0
FFC0007FC0
FFC0007FE0
FFC0007FE0
FFC0007FE0
FFC0007FE0
FFC0007FE0
FFC0007FE0
FFC0007FE0
FFC0007FE0
FFC0007FE0
FFC0007FE0
FFC0007FE0
FFC0007FE0
FFC0007FC0
7FC0007FC0
7FC000FFC0
7FE000FFC0
7FE000FFC0
7FE000FF80
3FE001FF80
3FF001FF80
3FF803FF00
1FFC07FF00
1FFF1FFF00
0FFFFFFE00
0FFFFFFC00
07FFFFFC00
03FFFFF800
01FFFFF000
00FFFFC000
003FFF8000
0007FC0000
ENDCHAR
STARTCHAR 0151
ENCODING 337
SWIDTH 488 0
DWIDTH 38 0
BBX 35 55 2 -1
BITMAP
0001000400
0003800E00
0007C01F00
000FE03F80
001FF03FC0
001FF87FE0
003FF0FFC0
007FC1FF00
00FF83FE00
01FF07FC00
03FE0FF800
01F807E000
00F003C000
0060018000
0000000000
0000000000
0000000000
000FFF0000
007FFFC000
00FFFFE000
03FFFFF800
07FFFFFC00
0FFFFFFE00
0FFFFFFE00
1FFFFFFF00
1FFC07FF00
3FF803FF80
3FF001FF80
7FF000FFC0
7FE000FFC0
7FE000FFC0
7FC0007FC0
FFC0007FE0
FFC0007FE0
FFC0007FE0
FFC0007FE0
FFC0007FE0
FFC0007FE0
FFC0007FE0
7FC0007FC0
7FE000FFC0
7FE000FFC0
7FE000FFC0
7FF001FF80
3FF003FF80
3FF807FF80
1FFF1FFF00
1FFFFFFF00
0FFFFFFE00
07FFFFFC00
03FFFFF800
01FFFFF000
00FFFFE000
003FFF8000
0007FC0000
ENDCHAR
STARTCHAR 0152
ENCODING 338
SWIDTH 488 0
DWIDTH 38 0
BBX 37 49 1 0
BITMAP
0001C00000
003FFFFFF0
00FFFFFFF0
01FFFFFFF0
03FFFFFFF0
07FFFFFFF0
0FFFFFFFF0
0FFFFFFFF0
1FFFFFFFF0
1FF81FF000
3FF01FF000
3FE01FF000
3FE01FF000
7FE01FF000
7FC01FF000
7FC01FF000
7FC01FF000
7FC01FF000
7FC01FF000
7FC01FF000
7FC01FFFC0
FF801FFFC0
FF801FFFC0
FF801FFFC0
FF801FFFC0
FF801FFFC0
FF801FFFC0
FF801FF000
FF801FF000
7FC01FF000
7FC01FF000
7FC01FF000
7FC01FF000
7FC01FF000
7FC01FF000
7FC01FF000
3FE01FF000
3FE01FF000
3FF01FF000
3FF01FF000
1FFC1FF000
1FFFFFFFF8
0FFFFFFFF8
0FFFFFFFF8
07FFFFFFF8
03FFFFFFF8
01FFFFFFF8
007FFFFFF8
001FFFFFF8
ENDCHAR
STARTCHAR 0153
ENCODING 339
SWIDTH 488 0
DWIDTH 38 0
BBX 36 38 2 -1
BITMAP
01FE03FC00
07FF07FE00
0FFF8FFF00
1FFFDFFF80
1FFFFFFFC0
3FFFFFFFC0
3FFFFFFFC0
7FDFFF1FE0
7F87FE0FE0
7F07FE0FE0
FF03FE0FE0
FF03FC07F0
FE03FC07F0
FE03FC07F0
FE03FC07F0
FE03FFFFF0
FE01FFFFF0
FE01FFFFF0
FE01FFFFF0
FE01FFFFF0
FE01FFFFF0
FE03FFFFF0
FE03FC0000
FE03FC0000
FE03FC0000
FF03FC0000
FF03FE0000
FF07FE0000
7F87FF0000
7FCFFFC1C0
7FFFFFFFC0
3FFFFFFFC0
3FFFFFFFC0
1FFFDFFFC0
1FFF8FFFE0
0FFF87FFE0
03FE03FFC0
00F800FE00
ENDCHAR
STARTCHAR 0154
ENCODING 340
SWIDTH 488 0
DWIDTH 38 0
BBX 34 64 4 1
BITMAP
0000300000
0000F80000
0001F80000
0007FC0000
000FFC0000
001FFE0000
007FFF0000
00FFFC0000
01FFF00000
00FFC00000
007F000000
007C000000
0030000000
0000000000
0000000000
00FF000000
FFFFF80000
FFFFFE0000
FFFFFF8000
FFFFFFC000
FFFFFFE000
FFFFFFF000
FFFFFFF800
FFFFFFF800
FFC07FFC00
FFC01FFC00
FFC00FFC00
FFC00FFE00
FFC007FE00
FFC007FE00
FFC007FE00
FFC007FE00
FFC007FE00
FFC007FE00
FFC00FFE00
FFC00FFC00
FFC01FFC00
FFC07FFC00
FFFFFFF800
FFFFFFF800
FFFFFFF000
FFFFFFE000
FFFFFFC000
FFFFFF0000
FFFFFF0000
FFFFFF0000
FFC1FF8000
FFC1FFC000
FFC0FFC000
FFC07FE000
FFC07FE000
FFC03FF000
FFC03FF800
FFC01FF800
FFC00FFC00
FFC00FFC00
FFC007FE00
FFC007FE00
FFC003FF00
FFC003FF00
FFC001FF80
FFC001FF80
FFC001FF80
FFC000FFC0
ENDCHAR
STARTCHAR 0155
ENCODING 341
SWIDTH 488 0
DWIDTH 38 0
BBX 29 53 7 1
BITMAP
00007000
0000F800
0001F800
0007FC00
000FFE00
003FFE00
007FFF00
01FFFC00
01FFF000
00FFC000
007F0000
007C0000
00300000
00000000
00000000
00000000
00FFFF80
0FFFFFF8
7FFFFFF0
FFFFFFF0
FFFFFFF0
FFFFFFF0
FFFFFFF0
FFFFFFF0
FFFFFFE0
FFE001E0
FFC00000
FFC00000
FFC00000
FFC00000
FFC00000
FFC00000
FFC00000
FFC00000
FFC00000
FFC00000
FFC00000
FFC00000
FFC00000
FFC00000
FFC00000
FFC00000
FFC00000
FFC00000
FFC00000
FFC00000
FFC00000
FFC00000
FFC00000
FFC00000
FFC00000
FFC00000
FFC00000
ENDCHAR
STARTCHAR 0156
ENCODING 342
SWIDTH 488 0
DWIDTH 38 0
BBX 34 62 4 -13
BITMAP
00FF000000
FFFFF80000
FFFFFE0000
FFFFFF8000
FFFFFFC000
FFFFFFE000
FFFFFFF000
FFFFFFF800
FFFFFFF800
FFC07FFC00
FFC01FFC00
FFC00FFC00
FFC00FFE00
FFC007FE00
FFC007FE00
FFC007FE00
FFC007FE00
FFC007FE00
FFC007FE00
FFC00FFE00
FFC00FFC00
FFC01FFC00
FFC07FFC00
FFFFFFF800
FFFFFFF800
FFFFFFF000
FFFFFFE000
FFFFFFC000
FFFFFF0000
FFFFFF0000
FFFFFF0000
FFC1FF8000
FFC1FFC000
FFC0FFC000
FFC07FE000
FFC07FE000
FFC03FF000
FFC03FF800
FFC01FF800
FFC00FFC00
FFC00FFC00
FFC007FE00
FFC007FE00
FFC003FF00
FFC003FF00
FFC001FF80
FFC001FF80
FFC001FF80
FFC000FFC0
0000000000
0000000000
0000000000
0007F80000
0007F80000
0007F80000
0007F80000
000FF80000
01FFF00000
01FFF00000
01FFE00000
01FFC00000
01FF000000
ENDCHAR
STARTCHAR 0157
ENCODING 343
SWIDTH 488 0
DWIDTH 38 0
BBX 33 50 3 -13
BITMAP
000FFFF800
00FFFFFF80
07FFFFFF00
0FFFFFFF00
0FFFFFFF00
0FFFFFFF00
0FFFFFFF00
0FFFFFFF00
0FFFFFFE00
0FFE001E00
0FFC000000
0FFC000000
0FFC000000
0FFC000000
0FFC000000
0FFC000000
0FFC000000
0FFC000000
0FFC000000
0FFC000000
0FFC000000
0FFC000000
0FFC000000
0FFC000000
0FFC000000
0FFC000000
0FFC000000
0FFC000000
0FFC000000
0FFC000000
0FFC000000
0FFC000000
0FFC000000
0FFC000000
0FFC000000
0FFC000000
0FFC000000
0000000000
0000000000
0000000000
07F8000000
07F8000000
07F8000000
07F8000000
0FF8000000
FFF8000000
FFF0000000
FFF0000000
FFE0000000
FF80000000
ENDCHAR
STARTCHAR 0158
ENCODING 344
SWIDTH 488 0
DWIDTH 38 0
BBX 34 64 4 1
BITMAP
03800C0000
07C03E0000
07E07F0000
0FF0FF8000
0FFDFF0000
07FFFE0000
03FFFC0000
01FFF80000
00FFF00000
003FE00000
001FC00000
000F000000
0006000000
0000000000
0000000000
00FF000000
FFFFF80000
FFFFFE0000
FFFFFF8000
FFFFFFC000
FFFFFFE000
FFFFFFF000
FFFFFFF800
FFFFFFF800
FFC07FFC00
FFC01FFC00
FFC00FFC00
FFC00FFE00
FFC007FE00
FFC007FE00
FFC007FE00
FFC007FE00
FFC007FE00
FFC007FE00
FFC00FFE00
FFC00FFC00
FFC01FFC00
FFC07FFC00
FFFFFFF800
FFFFFFF800
FFFFFFF000
FFFFFFE000
FFFFFFC000
FFFFFF0000
FFFFFF0000
FFFFFF0000
FFC1FF8000
FFC1FFC000
FFC0FFC000
FFC07FE000
FFC07FE000
FFC03FF000
FFC03FF800
FFC01FF800
FFC00FFC00
FFC00FFC00
FFC007FE00
FFC007FE00
FFC003FF00
FFC003FF00
FFC001FF80
FFC001FF80
FFC001FF80
FFC000FFC0
ENDCHAR
STARTCHAR 0159
ENCODING 345
SWIDTH 488 0
DWIDTH 38 0
BBX 29 54 7 0
BITMAP
00800000
01C00600
03E01F00
03F83F80
07FC7FC0
07FFFF80
03FFFF00
00FFFE00
007FFC00
003FF800
001FF000
000FE000
00078000
00030000
00000000
00000000
00000000
00FFFF80
0FFFFFF8
7FFFFFF0
FFFFFFF0
FFFFFFF0
FFFFFFF0
FFFFFFF0
FFFFFFF0
FFFFFFE0
FFE001E0
FFC00000
FFC00000
FFC00000
FFC00000
FFC00000
FFC00000
FFC00000
FFC00000
FFC00000
FFC00000
FFC00000
FFC00000
FFC00000
FFC00000
FFC00000
FFC00000
FFC00000
FFC00000
FFC00000
FFC00000
FFC00000
FFC00000
FFC00000
FFC00000
FFC00000
FFC00000
FFC00000
ENDCHAR
STARTCHAR 015A
ENCODING 346
SWIDTH 488 0
DWIDTH 38 0
BBX 33 65 3 0
BITMAP
00001C0000
00003C0000
00007E0000
0001FF0000
0003FF0000
000FFF8000
001FFF8000
007FFF0000
007FFC0000
003FF00000
003FC00000
001F000000
000C000000
0000000000
0000000000
001FFF0000
00FFFFE000
01FFFFFC00
07FFFFFC00
0FFFFFFC00
1FFFFFFC00
1FFFFFF800
3FFFFFF800
3FFC01F800
7FF0003000
7FE0000000
7FE0000000
7FC0000000
7FC0000000
7FE0000000
7FE0000000
7FF0000000
7FF8000000
7FFE000000
3FFF800000
3FFFF00000
1FFFFC0000
0FFFFF0000
07FFFFC000
03FFFFF000
00FFFFF800
003FFFFC00
000FFFFC00
0001FFFE00
00007FFF00
00001FFF00
000007FF00
000003FF00
000001FF80
000001FF80
000001FF80
000001FF80
000001FF80
000001FF80
180003FF00
3E0007FF00
3FC01FFF00
7FFFFFFE00
7FFFFFFE00
7FFFFFFC00
FFFFFFF800
FFFFFFF000
3FFFFFE000
07FFFF8000
007FF80000
ENDCHAR
STARTCHAR 015B
ENCODING 347
SWIDTH 488 0
DWIDTH 38 0
BBX 30 54 4 0
BITMAP
00003800
00007800
0001FC00
0003FE00
000FFE00
001FFF00
003FFF80
00FFFE00
00FFF800
007FE000
007F0000
003C0000
00100000
00000000
00000000
00000000
007FFF80
01FFFFF0
07FFFFF8
0FFFFFF0
1FFFFFF0
1FFFFFF0
3FFFFFF0
3FFFFFF0
7FF001F0
7FE00000
7FE00000
7FE00000
7FF00000
7FFC0000
3FFF0000
3FFFE000
1FFFFC00
0FFFFF00
07FFFFC0
03FFFFE0
00FFFFF0
001FFFF8
0003FFF8
00007FFC
00001FFC
00000FFC
000007FC
200007FC
7C000FFC
7FC03FFC
7FFFFFFC
7FFFFFF8
7FFFFFF8
FFFFFFF0
FFFFFFE0
3FFFFF80
07FFFE00
007FE000
ENDCHAR
STARTCHAR 015C
ENCODING 348
SWIDTH 488 0
DWIDTH 38 0
BBX 33 65 3 0
BITMAP
0001C00000
0003E00000
0007F00000
000FF80000
001FFC0000
003FFE0000
00FFFF8000
01FFFFC000
03FF7FE000
03FE3FE000
01FC0FC000
00F0078000
0060030000
0000010000
0000000000
001FFF0000
00FFFFE000
01FFFFFC00
07FFFFFC00
0FFFFFFC00
1FFFFFFC00
1FFFFFF800
3FFFFFF800
3FFC01F800
7FF0003000
7FE0000000
7FE0000000
7FC0000000
7FC0000000
7FE0000000
7FE0000000
7FF0000000
7FF8000000
7FFE000000
3FFF800000
3FFFF00000
1FFFFC0000
0FFFFF0000
07FFFFC000
03FFFFF000
00FFFFF800
003FFFFC00
000FFFFC00
0001FFFE00
00007FFF00
00001FFF00
000007FF00
000003FF00
000001FF80
000001FF80
000001FF80
000001FF80
000001FF80
000001FF80
180003FF00
3E0007FF00
3FC01FFF00
7FFFFFFE00
7FFFFFFE00
7FFFFFFC00
FFFFFFF800
FFFFFFF000
3FFFFFE000
07FFFF8000
007FF80000
ENDCHAR
STARTCHAR 015D
ENCODING 349
SWIDTH 488 0
DWIDTH 38 0
BBX 30 55 4 -1
BITMAP
00010000
00038000
0007C000
000FE000
001FF000
003FFC00
00FFFE00
01FFFF00
03FFFF80
07FEFFC0
07FC3FC0
03F01F80
01E00F00
00C00600
00000000
00000000
00000000
007FFF80
01FFFFF0
07FFFFF8
0FFFFFF0
1FFFFFF0
1FFFFFF0
3FFFFFF0
3FFFFFF0
7FF001F0
7FE00000
7FE00000
7FE00000
7FF00000
7FFC0000
3FFF0000
3FFFE000
1FFFFC00
0FFFFF00
07FFFFC0
03FFFFE0
00FFFFF0
001FFFF8
0003FFF8
00007FFC
00001FFC
00000FFC
000007FC
200007FC
7C000FFC
7FC03FFC
7FFFFFFC
7FFFFFF8
7FFFFFF8
FFFFFFF0
FFFFFFE0
3FFFFF80
07FFFE00
007FE000
ENDCHAR
STARTCHAR 015E
ENCODING 350
SWIDTH 488 0
DWIDTH 38 0
BBX 33 62 3 -13
BITMAP
001FFF0000
00FFFFE000
01FFFFFC00
07FFFFFC00
0FFFFFFC00
1FFFFFFC00
1FFFFFF800
3FFFFFF800
3FFC01F800
7FF0003000
7FE0000000
7FE0000000
7FC0000000
7FC0000000
7FE0000000
7FE0000000
7FF0000000
7FF8000000
7FFE000000
3FFF800000
3FFFF00000
1FFFFC0000
0FFFFF0000
07FFFFC000
03FFFFF000
00FFFFF800
003FFFFC00
000FFFFC00
0001FFFE00
00007FFF00
00001FFF00
000007FF00
000003FF00
000001FF80
000001FF80
000001FF80
000001FF80
000001FF80
000001FF80
180003FF00
3E0007FF00
3FC01FFF00
7FFFFFFE00
7FFFFFFE00
7FFFFFFC00
FFFFFFF800
FFFFFFF000
3FFFFFE000
07FFFF8000
007FF80000
001F800000
001FE00000
001FF00000
0003F80000
0001F80000
0001FC0000
0003FC0000
01FFFC0000
01FFF80000
01FFF80000
03FFF00000
01FFC00000
ENDCHAR
STARTCHAR 015F
ENCODING 351
SWIDTH 488 0
DWIDTH 38 0
BBX 30 50 4 -13
BITMAP
007FFF80
01FFFFF0
07FFFFF8
0FFFFFF0
1FFFFFF0
1FFFFFF0
3FFFFFF0
3FFFFFF0
7FF001F0
7FE00000
7FE00000
7FE00000
7FF00000
7FFC0000
3FFF0000
3FFFE000
1FFFFC00
0FFFFF00
07FFFFC0
03FFFFE0
00FFFFF0
001FFFF8
0003FFF8
00007FFC
00001FFC
00000FFC
000007FC
200007FC
7C000FFC
7FC03FFC
7FFFFFFC
7FFFFFF8
7FFFFFF8
FFFFFFF0
FFFFFFE0
3FFFFF80
07FFFE00
007FC000
001F8000
003FE000
001FF000
0007F800
0003F800
0001FC00
0003FC00
01FFF800
01FFF800
03FFF000
03FFE000
03FF8000
ENDCHAR
STARTCHAR 0160
ENCODING 352
SWIDTH 488 0
DWIDTH 38 0
BBX 33 66 3 -1
BITMAP
0040000000
0060030000
00F0078000
01F81FC000
03FE3FE000
03FF7FE000
01FFFFC000
00FFFF8000
003FFE0000
001FFC0000
000FF80000
0007F00000
0003E00000
0001C00000
0000000000
0000000000
001FFF0000
00FFFFE000
01FFFFFC00
07FFFFFC00
0FFFFFFC00
1FFFFFFC00
1FFFFFF800
3FFFFFF800
3FFC01F800
7FF0003000
7FE0000000
7FE0000000
7FC0000000
7FC0000000
7FE0000000
7FE0000000
7FF0000000
7FF8000000
7FFE000000
3FFF800000
3FFFF00000
1FFFFC0000
0FFFFF0000
07FFFFC000
03FFFFF000
00FFFFF800
003FFFFC00
000FFFFC00
0001FFFE00
00007FFF00
00001FFF00
000007FF00
000003FF00
000001FF80
000001FF80
000001FF80
000001FF80
000001FF80
000001FF80
180003FF00
3E0007FF00
3FC01FFF00
7FFFFFFE00
7FFFFFFE00
7FFFFFFC00
FFFFFFF800
FFFFFFF000
3FFFFFE000
07FFFF8000
007FF80000
ENDCHAR
STARTCHAR 0161
ENCODING 353
SWIDTH 488 0
DWIDTH 38 0
BBX 30 55 4 -1
BITMAP
00800200
01C00600
01E01F00
03F83F80
07FC7FC0
07FEFFC0
01FFFF00
00FFFE00
007FFC00
003FF800
001FF000
000FE000
0007C000
00030000
00000000
00000000
00000000
007FFF80
01FFFFF0
07FFFFF8
0FFFFFF0
1FFFFFF0
1FFFFFF0
3FFFFFF0
3FFFFFF0
7FF001F0
7FE00000
7FE00000
7FE00000
7FF00000
7FFC0000
3FFF0000
3FFFE000
1FFFFC00
0FFFFF00
07FFFFC0
03FFFFE0
00FFFFF0
001FFFF8
0003FFF8
00007FFC
00001FFC
00000FFC
000007FC
200007FC
7C000FFC
7FC03FFC
7FFFFFFC
7FFFFFF8
7FFFFFF8
FFFFFFF0
FFFFFFE0
3FFFFF80
07FFFE00
007FE000
ENDCHAR
STARTCHAR 0162
ENCODING 354
SWIDTH 488 0
DWIDTH 38 0
BBX 35 61 2 -13
BITMAP
FFFFFFFFE0
FFFFFFFFE0
FFFFFFFFE0
FFFFFFFFE0
FFFFFFFFE0
FFFFFFFFE0
FFFFFFFFE0
FFFFFFFFE0
0007FC0000
0007FC0000
0007FC0000
0007FC0000
0007FC0000
0007FC0000
0007FC0000
0007FC0000
0007FC0000
0007FC0000
0007FC0000
0007FC0000
0007FC0000
0007FC0000
0007FC0000
0007FC0000
0007FC0000
0007FC0000
0007FC0000
0007FC0000
0007FC0000
0007FC0000
0007FC0000
0007FC0000
0007FC0000
0007FC0000
0007FC0000
0007FC0000
0007FC0000
0007FC0000
0007FC0000
0007FC0000
0007FC0000
0007FC0000
0007FC0000
0007FC0000
0007FC0000
0007FC0000
0007FC0000
0007FC0000
0003F00000
0007E00000
0007F80000
0007FC0000
0000FE0000
00007F0000
00007F0000
0000FF0000
007FFF0000
007FFE0000
007FFE0000
00FFFC0000
007FF00000
ENDCHAR
STARTCHAR 0163
ENCODING 355
SWIDTH 488 0
DWIDTH 38 0
BBX 34 60 3 -13
BITMAP
0007C00000
00FFC00000
00FFC00000
00FFC00000
00FFC00000
00FFC00000
00FFC00000
00FFC00000
00FFC00000
00FFC00000
FFFFFFFF80
FFFFFFFF80
FFFFFFFF80
FFFFFFFF80
FFFFFFFF80
FFFFFFFF80
FFFFFFFF80
FFFFFFFF80
00FFC00000
00FFC00000
00FFC00000
00FFC00000
00FFC00000
00FFC00000
00FFC00000
00FFC00000
00FFC00000
00FFC00000
00FFC00000
00FFC00000
00FFC00000
00FFC00000
00FFC00000
00FFC00000
00FFC00000
00FFC00000
00FFC00000
00FFE00000
00FFE00380
007FFEFF80
007FFFFF80
007FFFFF80
003FFFFF80
003FFFFF80
001FFFFF80
000FFFFFC0
0003FFFF00
00007FE000
00003F0000
00007F8000
00007FE000
00000FE000
000007F000
000007F000
000007F000
0007FFF000
0007FFF000
0007FFE000
0007FFC000
0007FF0000
ENDCHAR
STARTCHAR 0164
ENCODING 356
SWIDTH 488 0
DWIDTH 38 0
BBX 35 65 2 0
BITMAP
0020000000
0030018000
007803C000
00FC0FE000
01FF1FF000
01FFBFF000
00FFFFE000
007FFFC000
001FFF0000
000FFE0000
0007FC0000
0003F80000
0001F00000
0000E00000
0000000000
0000000000
0000000000
FFFFFFFFE0
FFFFFFFFE0
FFFFFFFFE0
FFFFFFFFE0
FFFFFFFFE0
FFFFFFFFE0
FFFFFFFFE0
FFFFFFFFE0
0007FC0000
0007FC0000
0007FC0000
0007FC0000
0007FC0000
0007FC0000
0007FC0000
0007FC0000
0007FC0000
0007FC0000
0007FC0000
0007FC0000
0007FC0000
0007FC0000
0007FC0000
0007FC0000
0007FC0000
0007FC0000
0007FC0000
0007FC0000
0007FC0000
0007FC0000
0007FC0000
0007FC0000
0007FC0000
0007FC0000
0007FC0000
0007FC0000
0007FC0000
0007FC0000
0007FC0000
0007FC0000
0007FC0000
0007FC0000
0007FC0000
0007FC0000
0007FC0000
0007FC0000
0007FC0000
0007FC0000
ENDCHAR
STARTCHAR 0165
ENCODING 357
SWIDTH 488 0
DWIDTH 38 0
BBX 34 55 3 -1
BITMAP
000003FE00
000003FC00
000003FC00
000003FC00
000003FC00
000003FC00
000003FC00
0007C3F800
00FFC3F800
00FFC3F800
00FFC3F800
00FFC3F800
00FFC3F800
00FFC00000
00FFC00000
00FFC00000
00FFC00000
FFFFFFFF80
FFFFFFFF80
FFFFFFFF80
FFFFFFFF80
FFFFFFFF80
FFFFFFFF80
FFFFFFFF80
FFFFFFFF80
00FFC00000
00FFC00000
00FFC00000
00FFC00000
00FFC00000
00FFC00000
00FFC00000
00FFC00000
00FFC00000
00FFC00000
00FFC00000
00FFC00000
00FFC00000
00FFC00000
00FFC00000
00FFC00000
00FFC00000
00FFC00000
00FFC00000
00FFE00000
00FFE00380
007FFEFF80
007FFFFF80
007FFFFF80
003FFFFF80
003FFFFF80
001FFFFF80
000FFFFFC0
0003FFFF00
00007FE000
ENDCHAR
STARTCHAR 0166
ENCODING 358
SWIDTH 488 0
DWIDTH 38 0
BBX 35 48 2 0
BITMAP
FFFFFFFFE0
FFFFFFFFE0
FFFFFFFFE0
FFFFFFFFE0
FFFFFFFFE0
FFFFFFFFE0
FFFFFFFFE0
FFFFFFFFE0
0007FC0000
0007FC0000
0007FC0000
0007FC0000
0007FC0000
0007FC0000
0007FC0000
0007FC0000
0007FC0000
0007FC0000
0007FC0000
0007FC0000
0007FC0000
0007FC0000
1FFFFFFF00
1FFFFFFF00
1FFFFFFF00
1FFFFFFF00
1FFFFFFF00
1FFFFFFF00
1FFFFFFF00
0007FC0000
0007FC0000
0007FC0000
0007FC0000
0007FC0000
0007FC0000
0007FC0000
0007FC0000
0007FC0000
0007FC0000
0007FC0000
0007FC0000
0007FC0000
0007FC0000
0007FC0000
0007FC0000
0007FC0000
0007FC0000
0007FC0000
ENDCHAR
STARTCHAR 0167
ENCODING 359
SWIDTH 488 0
DWIDTH 38 0
BBX 34 48 3 -1
BITMAP
0007C00000
00FFC00000
00FFC00000
00FFC00000
00FFC00000
00FFC00000
00FFC00000
00FFC00000
00FFC00000
00FFC00000
FFFFFFFF80
FFFFFFFF80
FFFFFFFF80
FFFFFFFF80
FFFFFFFF80
FFFFFFFF80
FFFFFFFF80
FFFFFFFF80
00FFC00000
00FFC00000
00FFC00000
00FFC00000
00FFC00000
00FFC00000
00FFC00000
FFFFFFFF80
FFFFFFFF80
FFFFFFFF80
FFFFFFFF80
FFFFFFFF80
FFFFFFFF80
00FFC00000
00FFC00000
00FFC00000
00FFC00000
00FFC00000
00FFC00000
00FFE00000
00FFE00380
007FFEFF80
007FFFFF80
007FFFFF80
003FFFFF80
003FFFFF80
001FFFFF80
000FFFFFC0
0003FFFF00
00007FE000
ENDCHAR
STARTCHAR 0168
ENCODING 360
SWIDTH 488 0
DWIDTH 38 0
BBX 33 64 3 -1
BITMAP
001C008000
007F00E000
01FFE3F800
03FFFFF800
03FFFFF000
07FFFFF000
0FFFFFE000
0FFFFFC000
07C0FF8000
01803F0000
0080000000
0000000000
0000000000
0000000000
0000000000
FFC001FF80
FFC001FF80
FFC001FF80
FFC001FF80
FFC001FF80
FFC001FF80
FFC001FF80
FFC001FF80
FFC001FF80
FFC001FF80
FFC001FF80
FFC001FF80
FFC001FF80
FFC001FF80
FFC001FF80
FFC001FF80
FFC001FF80
FFC001FF80
FFC001FF80
FFC001FF80
FFC001FF80
FFC001FF80
FFC001FF80
FFC001FF80
FFC001FF80
FFC001FF80
FFC001FF80
FFC001FF80
FFC001FF80
FFC001FF80
FFC001FF80
FFC001FF80
FFC001FF80
FFC001FF80
FFC001FF80
FFC001FF80
FFC001FF00
7FE003FF00
7FE003FF00
7FF007FF00
7FFC3FFE00
3FFFFFFE00
3FFFFFFC00
1FFFFFFC00
0FFFFFF800
07FFFFF000
03FFFFE000
00FFFF8000
001FFC0000
ENDCHAR
STARTCHAR 0169
ENCODING 361
SWIDTH 488 0
DWIDTH 38 0
BBX 29 53 5 -1
BITMAP
00F00300
03FE0780
07FFCFE0
0FFFFFE0
1FFFFFC0
1FFFFFC0
3FFFFF80
3FDFFF00
0F03FE00
06007800
00000000
00000000
00000000
00000000
00000000
FF801FF8
FF801FF8
FF801FF8
FF801FF8
FF801FF8
FF801FF8
FF801FF8
FF801FF8
FF801FF8
FF801FF8
FF801FF8
FF801FF8
FF801FF8
FF801FF8
FF801FF8
FF801FF8
FF801FF8
FF801FF8
FF801FF8
FF801FF8
FF801FF8
FF801FF8
FF801FF8
FF801FF8
FFC01FF8
FFC01FF8
FFC01FF8
FFE01FF8
FFF01FF8
7FFFFFF8
7FFFFFF8
3FFFFFF8
3FFFFFF8
1FFFFFF8
0FFFFFF8
07FFFFF8
01FFFFC0
003FF800
ENDCHAR
STARTCHAR 016A
ENCODING 362
SWIDTH 488 0
DWIDTH 38 0
BBX 33 62 3 -1
BITMAP
07FFFFF000
07FFFFF000
07FFFFF000
07FFFFF000
07FFFFF000
07FFFFF000
07FFFFF000
0000000000
0000000000
0000000000
0000000000
0000000000
0000000000
FFC001FF80
FFC001FF80
FFC001FF80
FFC001FF80
FFC001FF80
FFC001FF80
FFC001FF80
FFC001FF80
FFC001FF80
FFC001FF80
FFC001FF80
FFC001FF80
FFC001FF80
FFC001FF80
FFC001FF80
FFC001FF80
FFC001FF80
FFC001FF80
FFC001FF80
FFC001FF80
FFC001FF80
FFC001FF80
FFC001FF80
FFC001FF80
FFC001FF80
FFC001FF80
FFC001FF80
FFC001FF80
FFC001FF80
FFC001FF80
FFC001FF80
FFC001FF80
FFC001FF80
FFC001FF80
FFC001FF80
FFC001FF80
FFC001FF00
7FE003FF00
7FE003FF00
7FF007FF00
7FFC3FFE00
3FFFFFFE00
3FFFFFFC00
1FFFFFFC00
0FFFFFF800
07FFFFF000
03FFFFE000
00FFFF8000
001FFC0000
ENDCHAR
STARTCHAR 016B
ENCODING 363
SWIDTH 488 0
DWIDTH 38 0
BBX 29 51 5 -1
BITMAP
1FFFFFC0
1FFFFFC0
1FFFFFC0
1FFFFFC0
1FFFFFC0
1FFFFFC0
00000000
00000000
00000000
00000000
00000000
00000000
00000000
FF801FF8
FF801FF8
FF801FF8
FF801FF8
FF801FF8
FF801FF8
FF801FF8
FF801FF8
FF801FF8
FF801FF8
FF801FF8
FF801FF8
FF801FF8
FF801FF8
FF801FF8
FF801FF8
FF801FF8
FF801FF8
FF801FF8
FF801FF8
FF801FF8
FF801FF8
FF801FF8
FF801FF8
FFC01FF8
FFC01FF8
FFC01FF8
FFE01FF8
FFF01FF8
7FFFFFF8
7FFFFFF8
3FFFFFF8
3FFFFFF8
1FFFFFF8
0FFFFFF8
07FFFFF8
01FFFFC0
003FF800
ENDCHAR
STARTCHAR 016C
ENCODING 364
SWIDTH 488 0
DWIDTH 38 0
BBX 33 65 3 -1
BITMAP
07F007F000
07F007F000
07F80FF000
07F80FE000
03FC1FE000
03FFFFE000
01FFFFC000
01FFFFC000
00FFFF8000
007FFF0000
001FFC0000
0003C00000
0000000000
0000000000
0000000000
0000000000
FFC001FF80
FFC001FF80
FFC001FF80
FFC001FF80
FFC001FF80
FFC001FF80
FFC001FF80
FFC001FF80
FFC001FF80
FFC001FF80
FFC001FF80
FFC001FF80
FFC001FF80
FFC001FF80
FFC001FF80
FFC001FF80
FFC001FF80
FFC001FF80
FFC001FF80
FFC001FF80
FFC001FF80
FFC001FF80
FFC001FF80
FFC001FF80
FFC001FF80
FFC001FF80
FFC001FF80
FFC001FF80
FFC001FF80
FFC001FF80
FFC001FF80
FFC001FF80
FFC001FF80
FFC001FF80
FFC001FF80
FFC001FF80
FFC001FF00
7FE003FF00
7FE003FF00
7FF007FF00
7FFC3FFE00
3FFFFFFE00
3FFFFFFC00
1FFFFFFC00
0FFFFFF800
07FFFFF000
03FFFFE000
00FFFF8000
001FFC0000
ENDCHAR
STARTCHAR 016D
ENCODING 365
SWIDTH 488 0
DWIDTH 38 0
BBX 29 54 5 -1
BITMAP
1FC01FC0
1FC03FC0
1FE03FC0
1FE03F80
0FF8FF80
0FFFFF80
07FFFF00
07FFFE00
03FFFE00
00FFF800
007FE000
00000000
00000000
00000000
00000000
00000000
FF801FF8
FF801FF8
FF801FF8
FF801FF8
FF801FF8
FF801FF8
FF801FF8
FF801FF8
FF801FF8
FF801FF8
FF801FF8
FF801FF8
FF801FF8
FF801FF8
FF801FF8
FF801FF8
FF801FF8
FF801FF8
FF801FF8
FF801FF8
FF801FF8
FF801FF8
FF801FF8
FF801FF8
FFC01FF8
FFC01FF8
FFC01FF8
FFE01FF8
FFF01FF8
7FFFFFF8
7FFFFFF8
3FFFFFF8
3FFFFFF8
1FFFFFF8
0FFFFFF8
07FFFFF8
01FFFFC0
003FF800
ENDCHAR
STARTCHAR 016E
ENCODING 366
SWIDTH 488 0
DWIDTH 38 0
BBX 33 65 3 -1
BITMAP
0007F00000
001FFC0000
003FFE0000
007FFF0000
007FFF0000
007C1F0000
00F81F8000
00F80F8000
00F81F8000
00FC1F0000
007E3F0000
007FFF0000
003FFE0000
001FFC0000
000FF80000
0001C00000
0000000000
FFC001FF80
FFC001FF80
FFC001FF80
FFC001FF80
FFC001FF80
FFC001FF80
FFC001FF80
FFC001FF80
FFC001FF80
FFC001FF80
FFC001FF80
FFC001FF80
FFC001FF80
FFC001FF80
FFC001FF80
FFC001FF80
FFC001FF80
FFC001FF80
FFC001FF80
FFC001FF80
FFC001FF80
FFC001FF80
FFC001FF80
FFC001FF80
FFC001FF80
FFC001FF80
FFC001FF80
FFC001FF80
FFC001FF80
FFC001FF80
FFC001FF80
FFC001FF80
FFC001FF80
FFC001FF80
FFC001FF80
FFC001FF00
7FE003FF00
7FE003FF00
7FF007FF00
7FFC3FFE00
3FFFFFFE00
3FFFFFFC00
1FFFFFFC00
0FFFFFF800
07FFFFF000
03FFFFE000
00FFFF8000
001FFC0000
ENDCHAR
STARTCHAR 016F
ENCODING 367
SWIDTH 488 0
DWIDTH 38 0
BBX 29 56 5 -1
BITMAP
001F8000
007FE000
00FFF800
01FFF800
01FFFC00
01F0FC00
03F07E00
03E03E00
03E03E00
03F07E00
01F07C00
01FFFC00
01FFF800
00FFF800
007FE000
000F8000
00000000
00000000
FF801FF8
FF801FF8
FF801FF8
FF801FF8
FF801FF8
FF801FF8
FF801FF8
FF801FF8
FF801FF8
FF801FF8
FF801FF8
FF801FF8
FF801FF8
FF801FF8
FF801FF8
FF801FF8
FF801FF8
FF801FF8
FF801FF8
FF801FF8
FF801FF8
FF801FF8
FF801FF8
FF801FF8
FFC01FF8
FFC01FF8
FFC01FF8
FFE01FF8
FFF01FF8
7FFFFFF8
7FFFFFF8
3FFFFFF8
3FFFFFF8
1FFFFFF8
0FFFFFF8
07FFFFF8
01FFFFC0
003FF800
ENDCHAR
STARTCHAR 0170
ENCODING 368
SWIDTH 488 0
DWIDTH 38 0
BBX 33 65 3 0
BITMAP
0006000800
0007001C00
000F803E00
001FC07F00
003FE0FF80
007FE1FF80
00FFC3FF00
01FF87FE00
03FE0FF800
07FC1FF000
03F80FE000
01E0078000
00C0030000
0000000000
0000000000
0000000000
FFC001FF80
FFC001FF80
FFC001FF80
FFC001FF80
FFC001FF80
FFC001FF80
FFC001FF80
FFC001FF80
FFC001FF80
FFC001FF80
FFC001FF80
FFC001FF80
FFC001FF80
FFC001FF80
FFC001FF80
FFC001FF80
FFC001FF80
FFC001FF80
FFC001FF80
FFC001FF80
FFC001FF80
FFC001FF80
FFC001FF80
FFC001FF80
FFC001FF80
FFC001FF80
FFC001FF80
FFC001FF80
FFC001FF80
FFC001FF80
FFC001FF80
FFC001FF80
FFC001FF80
FFC001FF80
FFC001FF80
FFC001FF80
FFC001FF00
7FE003FF00
7FE003FF00
7FF007FF00
7FFC3FFE00
3FFFFFFE00
3FFFFFFC00
1FFFFFFC00
0FFFFFF800
07FFFFF000
03FFFFE000
00FFFF8000
001FFC0000
ENDCHAR
STARTCHAR 0171
ENCODING 369
SWIDTH 488 0
DWIDTH 38 0
BBX 31 55 5 -1
BITMAP
00100000
00380060
003C00F0
007E01F8
00FF03FC
01FF87FE
03FF0FFC
07FE1FF8
0FF83FE0
1FF07FC0
3FE0FF80
1FC07F00
0F003C00
06001800
00000000
00000000
00000000
FF801FF8
FF801FF8
FF801FF8
FF801FF8
FF801FF8
FF801FF8
FF801FF8
FF801FF8
FF801FF8
FF801FF8
FF801FF8
FF801FF8
FF801FF8
FF801FF8
FF801FF8
FF801FF8
FF801FF8
FF801FF8
FF801FF8
FF801FF8
FF801FF8
FF801FF8
FF801FF8
FF801FF8
FFC01FF8
FFC01FF8
FFC01FF8
FFE01FF8
FFF01FF8
7FFFFFF8
7FFFFFF8
3FFFFFF8
3FFFFFF8
1FFFFFF8
0FFFFFF8
07FFFFF8
01FFFFC0
003FF800
ENDCHAR
STARTCHAR 0172
ENCODING 370
SWIDTH 488 0
DWIDTH 38 0
BBX 33 61 3 -13
BITMAP
FFC001FF80
FFC001FF80
FFC001FF80
FFC001FF80
FFC001FF80
FFC001FF80
FFC001FF80
FFC001FF80
FFC001FF80
FFC001FF80
FFC001FF80
FFC001FF80
FFC001FF80
FFC001FF80
FFC001FF80
FFC001FF80
FFC001FF80
FFC001FF80
FFC001FF80
FFC001FF80
FFC001FF80
FFC001FF80
FFC001FF80
FFC001FF80
FFC001FF80
FFC001FF80
FFC001FF80
FFC001FF80
FFC001FF80
FFC001FF80
FFC001FF80
FFC001FF80
FFC001FF80
FFC001FF80
FFC001FF80
FFC001FF80
FFC001FF00
7FE003FF00
7FE003FF00
7FF007FF00
3FFC3FFE00
3FFFFFFE00
3FFFFFFC00
1FFFFFFC00
0FFFFFF800
07FFFFF000
03FFFFE000
00FFFFC000
001FFF8000
0000FF0000
0001FE0000
0003FC0000
0007F80000
0007F80000
0007F00000
000FF80000
000FFFC000
0007FFC000
0007FFC000
0003FFE000
0001FF8000
ENDCHAR
STARTCHAR 0173
ENCODING 371
SWIDTH 488 0
DWIDTH 38 0
BBX 29 50 5 -13
BITMAP
FF801FF8
FF801FF8
FF801FF8
FF801FF8
FF801FF8
FF801FF8
FF801FF8
FF801FF8
FF801FF8
FF801FF8
FF801FF8
FF801FF8
FF801FF8
FF801FF8
FF801FF8
FF801FF8
FF801FF8
FF801FF8
FF801FF8
FF801FF8
FF801FF8
FF801FF8
FF801FF8
FF801FF8
FFC01FF8
FFC01FF8
FFC01FF8
FFE01FF8
FFF01FF8
7FFFFFF8
7FFFFFF8
3FFFFFF8
3FFFFFF8
1FFFFFF8
0FFFFFF8
07FFFFF8
01FFFFF0
003FFFE0
00003FC0
00007F80
0000FF00
0001FE00
0001FE00
0001FE00
0001FE00
0001FFF0
0001FFF0
0001FFF8
0000FFF8
00007FF0
ENDCHAR
STARTCHAR 0174
ENCODING 372
SWIDTH 488 0
DWIDTH 38 0
BBX 35 64 2 1
BITMAP
0000E00000
0001F00000
0003F80000
0007FC0000
000FFE0000
001FFF0000
007FFFC000
00FFFFE000
01FFBFF000
01FF1FF000
00FE07E000
007803C000
0030018000
0000008000
0000000000
0000000000
FF80003FE0
FF80003FE0
FF80003FE0
FF80003FE0
FF80003FE0
FF80003FE0
FF80003FE0
FF80003FE0
FF80003FE0
FF80003FE0
FF00003FE0
FF00003FE0
FF00003FE0
FF00003FE0
FF00003FE0
FF00003FE0
FF00003FC0
FF03F83FC0
FF03F83FC0
FF07FC3FC0
7F07FC3FC0
7F07FC3FC0
7F0FFE1FC0
7F0FFE1FC0
7F0FFE1FC0
7F0FFE1FC0
7F1FFF1FC0
7F1FBF1FC0
7F1FBF1FC0
7F3FBF1FC0
7F3F1F9FC0
7F3F1F9FC0
7F7F1F9FC0
7F7E0FDFC0
7F7E0FDF80
7F7E0FDF80
3FFC07DF80
3FFC07FF80
3FFC07FF80
3FF803FF80
3FF803FF80
3FF803FF80
3FF001FF80
3FF001FF80
3FF001FF80
3FE000FF80
3FE000FF80
1FE000FF00
ENDCHAR
STARTCHAR 0175
ENCODING 373
SWIDTH 488 0
DWIDTH 38 0
BBX 37 54 1 0
BITMAP
0000200000
0000700000
0000F80000
0001FC0000
0003FE0000
0007FF8000
001FFFC000
003FFFE000
007FFFF000
00FFDFF800
00FF87F800
007E03F000
003C01E000
001800C000
0000000000
0000000000
0000000000
FF000007F8
FF000007F8
FF000007F8
FF000007F8
FF000007F8
FF000007F8
FF000007F0
7F000007F0
7F01FC07F0
7F01FC0FF0
7F81FE0FF0
7F83FE0FF0
7F83FE0FF0
7F83FE0FF0
7F83FF0FF0
7F87FF0FE0
3F87FF0FE0
3F87FF0FE0
3F87FF8FE0
3F8FFF8FE0
3F8FFF8FE0
3F8FDF8FC0
3F9FDFCFC0
1FDF9FDFC0
1FDF8FDFC0
1FFF8FFFC0
1FFF0FFFC0
1FFF07FF80
1FFF07FF80
0FFE07FF80
0FFE03FF80
0FFE03FF80
0FFC03FF00
0FFC01FF00
07FC01FF00
07F801FF00
07F800FE00
ENDCHAR
STARTCHAR 0176
ENCODING 374
SWIDTH 488 0
DWIDTH 38 0
BBX 37 64 1 1
BITMAP
0000700000
0000F80000
0001FC0000
0003FE0000
0007FF0000
000FFF8000
003FFFE000
007FFFF000
00FFDFF800
00FF8FF800
007F03F000
003C01E000
001800C000
0000004000
0000000000
0000000000
FFC0001FF8
7FE0003FF0
7FE0003FF0
7FE0003FF0
3FF0007FE0
3FF0007FE0
1FF0007FC0
1FF800FFC0
1FF800FFC0
0FFC00FF80
0FFC01FF80
07FC01FF00
07FE01FF00
03FE03FF00
03FF03FE00
03FF07FE00
01FF07FC00
01FF87FC00
00FF8FF800
00FFCFF800
007FDFF000
007FFFF000
003FFFE000
003FFFE000
001FFFC000
001FFFC000
000FFF8000
000FFF8000
0007FF0000
0003FE0000
0003FE0000
0003FE0000
0003FE0000
0003FE0000
0003FE0000
0003FE0000
0003FE0000
0003FE0000
0003FE0000
0003FE0000
0003FE0000
0003FE0000
0003FE0000
0003FE0000
0003FE0000
0003FE0000
0003FE0000
0003FE0000
ENDCHAR
STARTCHAR 0177
ENCODING 375
SWIDTH 488 0
DWIDTH 38 0
BBX 35 67 2 -13
BITMAP
0000400000
0000E00000
0001F00000
0003F80000
0007FC0000
000FFF0000
003FFF8000
007FFFC000
00FFFFE000
01FFBFF000
01FF0FF000
00FC07E000
007803C000
0030018000
0000000000
0000000000
0000000000
7FE0007FE0
7FE0007FC0
7FE000FFC0
3FF000FFC0
3FF000FFC0
3FF000FF80
1FF000FF80
1FF801FF80
1FF801FF00
1FF801FF00
0FFC01FF00
0FFC03FF00
0FFC03FE00
07FC03FE00
07FE03FE00
07FE07FC00
03FE07FC00
03FF07FC00
01FF07FC00
01FF0FF800
01FF8FF800
00FF8FF800
00FFCFF000
00FFDFF000
007FDFF000
007FFFE000
003FFFE000
003FFFE000
001FFFC000
001FFFC000
001FFF8000
000FFF8000
000FFF8000
0007FF0000
0007FF0000
0003FE0000
0003FE0000
0007FE0000
000FFC0000
000FFC0000
001FF80000
707FF80000
7FFFF00000
7FFFE00000
FFFFE00000
FFFFC00000
FFFF800000
FFFF000000
FFFC000000
3FF0000000
ENDCHAR
STARTCHAR 0178
ENCODING 376
SWIDTH 488 0
DWIDTH 38 0
BBX 37 63 1 0
BITMAP
00F800F800
01FE03FC00
03FF03FE00
03FF07FE00
07FF07FF00
07FF07FF00
03FF07FF00
03FF07FE00
01FE03FE00
00FC01F800
0000000000
0000000000
0000000000
0000000000
0000000000
FFC0001FF8
7FE0003FF0
7FE0003FF0
7FE0003FF0
3FF0007FE0
3FF0007FE0
1FF0007FC0
1FF800FFC0
1FF800FFC0
0FFC00FF80
0FFC01FF80
07FC01FF00
07FE01FF00
03FE03FF00
03FF03FE00
03FF07FE00
01FF07FC00
01FF87FC00
00FF8FF800
00FFCFF800
007FDFF000
007FFFF000
003FFFE000
003FFFE000
001FFFC000
001FFFC000
000FFF8000
000FFF8000
0007FF0000
0003FE0000
0003FE0000
0003FE0000
0003FE0000
0003FE0000
0003FE0000
0003FE0000
0003FE0000
0003FE0000
0003FE0000
0003FE0000
0003FE0000
0003FE0000
0003FE0000
0003FE0000
0003FE0000
0003FE0000
0003FE0000
0003FE0000
ENDCHAR
STARTCHAR 0179
ENCODING 377
SWIDTH 488 0
DWIDTH 38 0
BBX 31 64 4 1
BITMAP
00001800
00007800
0000FC00
0003FE00
0007FE00
001FFF00
003FFF80
007FFE00
00FFF800
007FE000
007F8000
003E0000
00180000
00000000
00000000
00000000
7FFFFFFE
7FFFFFFE
7FFFFFFE
7FFFFFFE
7FFFFFFE
7FFFFFFE
7FFFFFFE
7FFFFFFC
00001FF8
00003FF8
00007FF0
00007FE0
0000FFE0
0000FFC0
0001FF80
0001FF80
0003FF00
0007FF00
0007FE00
000FFC00
000FFC00
001FF800
003FF800
003FF000
007FE000
007FE000
00FFC000
00FFC000
01FF8000
03FF0000
03FF0000
07FE0000
07FE0000
0FFC0000
0FFC0000
1FF80000
1FF80000
3FF00000
3FE00000
7FE00000
7FFFFFFE
FFFFFFFE
FFFFFFFE
FFFFFFFE
FFFFFFFE
FFFFFFFE
FFFFFFFE
FFFFFFFE
ENDCHAR
STARTCHAR 017A
ENCODING 378
SWIDTH 488 0
DWIDTH 38 0
BBX 29 53 5 1
BITMAP
00007000
0000F800
0003F800
0007FC00
000FFE00
003FFE00
007FFF00
01FFFC00
01FFF000
00FFC000
007F0000
007C0000
00300000
00000000
00000000
00000000
7FFFFFF0
7FFFFFF0
7FFFFFF0
7FFFFFF0
7FFFFFF0
7FFFFFF0
7FFFFFF0
7FFFFFF0
0000FFE0
0001FFC0
0003FFC0
0003FF80
0007FF00
000FFE00
000FFC00
001FF800
003FF800
007FF000
007FE000
00FFC000
01FFC000
01FF8000
03FF0000
07FE0000
0FFE0000
0FFC0000
1FF80000
3FF80000
3FF00000
7FFFFFF8
7FFFFFF8
FFFFFFF8
FFFFFFF8
FFFFFFF8
FFFFFFF8
FFFFFFF8
FFFFFFF8
ENDCHAR
STARTCHAR 017B
ENCODING 379
SWIDTH 488 0
DWIDTH 38 0
BBX 31 63 4 0
BITMAP
000FC000
001FF000
001FF000
003FF800
003FF800
003FF800
003FF800
003FF000
001FF000
000FE000
00010000
00000000
00000000
00000000
00000000
7FFFFFFE
7FFFFFFE
7FFFFFFE
7FFFFFFE
7FFFFFFE
7FFFFFFE
7FFFFFFE
7FFFFFFC
00001FF8
00003FF8
00007FF0
00007FE0
0000FFE0
0000FFC0
0001FF80
0001FF80
0003FF00
0007FF00
0007FE00
000FFC00
000FFC00
001FF800
003FF800
003FF000
007FE000
007FE000
00FFC000
00FFC000
01FF8000
03FF0000
03FF0000
07FE0000
07FE0000
0FFC0000
0FFC0000
1FF80000
1FF80000
3FF00000
3FE00000
7FE00000
7FFFFFFE
FFFFFFFE
FFFFFFFE
FFFFFFFE
FFFFFFFE
FFFFFFFE
FFFFFFFE
FFFFFFFE
ENDCHAR
STARTCHAR 017C
ENCODING 380
SWIDTH 488 0
DWIDTH 38 0
BBX 29 53 5 0
BITMAP
00020000
001FC000
003FE000
007FE000
007FF000
007FF000
007FF000
007FF000
007FE000
003FE000
001FC000
00000000
00000000
00000000
00000000
00000000
7FFFFFF0
7FFFFFF0
7FFFFFF0
7FFFFFF0
7FFFFFF0
7FFFFFF0
7FFFFFF0
7FFFFFF0
0000FFE0
0001FFC0
0003FFC0
0003FF80
0007FF00
000FFE00
000FFC00
001FF800
003FF800
007FF000
007FE000
00FFC000
01FFC000
01FF8000
03FF0000
07FE0000
0FFE0000
0FFC0000
1FF80000
3FF80000
3FF00000
7FFFFFF8
7FFFFFF8
FFFFFFF8
FFFFFFF8
FFFFFFF8
FFFFFFF8
FFFFFFF8
FFFFFFF8
ENDCHAR
STARTCHAR 017D
ENCODING 381
SWIDTH 488 0
DWIDTH 38 0
BBX 31 65 4 0
BITMAP
00800000
00C00600
01E00F00
03F03F80
07FC7FC0
07FEFFC0
03FFFF80
01FFFF00
007FFC00
003FF800
001FF000
000FE000
0007C000
00038000
00000000
00000000
00000000
7FFFFFFE
7FFFFFFE
7FFFFFFE
7FFFFFFE
7FFFFFFE
7FFFFFFE
7FFFFFFE
7FFFFFFC
00001FF8
00003FF8
00007FF0
00007FE0
0000FFE0
0000FFC0
0001FF80
0001FF80
0003FF00
0007FF00
0007FE00
000FFC00
000FFC00
001FF800
003FF800
003FF000
007FE000
007FE000
00FFC000
00FFC000
01FF8000
03FF0000
03FF0000
07FE0000
07FE0000
0FFC0000
0FFC0000
1FF80000
1FF80000
3FF00000
3FE00000
7FE00000
7FFFFFFE
FFFFFFFE
FFFFFFFE
FFFFFFFE
FFFFFFFE
FFFFFFFE
FFFFFFFE
FFFFFFFE
ENDCHAR
STARTCHAR 017E
ENCODING 382
SWIDTH 488 0
DWIDTH 38 0
BBX 29 54 5 0
BITMAP
01000400
03800C00
03C03E00
07F07F00
0FF8FF80
0FFDFF80
03FFFE00
01FFFC00
00FFF800
007FF000
003FE000
001FC000
000F8000
00060000
00000000
00000000
00000000
7FFFFFF0
7FFFFFF0
7FFFFFF0
7FFFFFF0
7FFFFFF0
7FFFFFF0
7FFFFFF0
7FFFFFF0
0000FFE0
0001FFC0
0003FFC0
0003FF80
0007FF00
000FFE00
000FFC00
001FF800
003FF800
007FF000
007FE000
00FFC000
01FFC000
01FF8000
03FF0000
07FE0000
0FFE0000
0FFC0000
1FF80000
3FF80000
3FF00000
7FFFFFF8
7FFFFFF8
FFFFFFF8
FFFFFFF8
FFFFFFF8
FFFFFFF8
FFFFFFF8
FFFFFFF8
ENDCHAR
STARTCHAR 017F
ENCODING 383
SWIDTH 488 0
DWIDTH 38 0
BBX 27 54 11 0
BITMAP
001FF800
00FFFF80
03FFFFE0
0FFFFFE0
1FFFFFE0
3FFFFFE0
3FFFFFC0
7FFFFFC0
7FFC1FC0
7FE000C0
FFE00000
FFC00000
FFC00000
FFC00000
FF800000
FF800000
FF800000
FF800000
FF800000
FF800000
FF800000
FF800000
FF800000
FF800000
FF800000
FF800000
FF800000
FF800000
FF800000
FF800000
FF800000
FF800000
FF800000
FF800000
FF800000
FF800000
FF800000
FF800000
FF800000
FF800000
FF800000
FF800000
FF800000
FF800000
FF800000
FF800000
FF800000
FF800000
FF800000
FF800000
FF800000
FF800000
FF800000
FF800000
ENDCHAR
STARTCHAR 0180
ENCODING 384
SWIDTH 488 0
DWIDTH 38 0
BBX 36 55 1 -1
BITMAP
001C000000
03FC000000
07FC000000
07FC000000
07FC000000
07FC000000
FFFFFF8000
FFFFFF8000
FFFFFF8000
FFFFFF8000
FFFFFF8000
FFFFFF8000
FFFFFF8000
07FC000000
07FC000000
07FC000000
07FC000000
07FCFFC000
07FFFFF000
07FFFFFC00
07FFFFFE00
07FFFFFF00
07FFFFFF00
07FFFFFF80
07FFFFFF80
07FF03FFC0
07FC01FFC0
07FC00FFE0
07FC007FE0
07FC007FE0
07FC007FE0
07FC003FE0
07FC003FE0
07FC003FE0
07FC003FF0
07FC003FF0
07FC003FF0
07FC003FF0
07FC003FE0
07FC007FE0
07FC007FE0
07FC007FE0
07FC007FE0
07FC00FFC0
07FC01FFC0
07FC03FFC0
07FF1FFF80
07FFFFFF80
07FFFFFF00
07FFFFFE00
07FFFFFC00
07FFFFF800
07FFFFF000
01FFFFC000
0007FE0000
ENDCHAR
STARTCHAR 0181
ENCODING 385
SWIDTH 488 0
DWIDTH 38 0
BBX 38 50 0 -1
BITMAP
0000FE0000
00FFFFF000
07FFFFFC00
1FFFFFFF00
3FFFFFFF80
3FFFFFFFC0
7FFFFFFFC0
FFFFFFFFE0
FF8FF07FE0
FF0FF03FE0
FE0FF01FE0
FE0FF01FF0
FE0FF01FF0
FE0FF01FF0
FF0FF01FF0
7F0FF01FE0
700FF01FE0
000FF01FE0
000FF03FC0
000FF07FC0
000FFFFF80
000FFFFF00
000FFFFE00
000FFFFE00
000FFFFF80
000FFFFFC0
000FFFFFE0
000FFFFFF0
000FF01FF0
000FF00FF8
000FF007F8
000FF007F8
000FF007FC
000FF003FC
000FF003FC
000FF003FC
000FF007FC
000FF007FC
000FF007FC
000FF00FF8
000FF01FF8
000FFFFFF8
000FFFFFF0
000FFFFFF0
000FFFFFE0
000FFFFFC0
000FFFFF80
000FFFFE00
000FFFF800
00001F0000
ENDCHAR
STARTCHAR 0182
ENCODING 386
SWIDTH 488 0
DWIDTH 38 0
BBX 32 49 4 -1
BITMAP
FFFFFFF0
FFFFFFF0
FFFFFFF0
FFFFFFF0
FFFFFFF0
FFFFFFF0
FFFFFFF0
FFFFFFF0
FFC00000
FFC00000
FFC00000
FFC00000
FFC00000
FFC00000
FFC00000
FFC00000
FFC00000
FFFFF000
FFFFFF00
FFFFFFC0
FFFFFFE0
FFFFFFF0
FFFFFFF8
FFFFFFFC
FFFFFFFE
FFC1FFFE
FFC00FFF
FFC007FF
FFC003FF
FFC001FF
FFC001FF
FFC001FF
FFC001FF
FFC001FF
FFC001FF
FFC001FF
FFC003FF
FFC003FF
FFC007FF
FFC01FFE
FFFFFFFE
FFFFFFFC
FFFFFFFC
FFFFFFF8
FFFFFFF0
FFFFFFC0
FFFFFF80
3FFFFC00
005F0000
ENDCHAR
STARTCHAR 0183
ENCODING 387
SWIDTH 488 0
DWIDTH 38 0
BBX 32 54 5 -1
BITMAP
FFFFFFF0
FFFFFFF0
FFFFFFF0
FFFFFFF0
FFFFFFF0
FFFFFFF0
FFFFFFF0
FFFFFFF0
FF800000
FF800000
FF800000
FF800000
FF800000
FF800000
FF800000
FF800000
FF9FFC00
FFFFFF00
FFFFFFC0
FFFFFFE0
FFFFFFF0
FFFFFFF0
FFFFFFF8
FFFFFFF8
FFF03FFC
FF801FFC
FF800FFE
FF8007FE
FF8007FE
FF8007FE
FF8003FE
FF8003FE
FF8003FF
FF8003FF
FF8003FF
FF8003FF
FF8003FF
FF8003FF
FF8003FE
FF8007FE
FF8007FE
FF8007FE
FF800FFE
FF801FFC
FF803FFC
FFF1FFF8
FFFFFFF8
FFFFFFF0
FFFFFFE0
FFFFFFC0
FFFFFF80
FFFFFF00
3FFFFC00
00FFC000
ENDCHAR
STARTCHAR 0184
ENCODING 388
SWIDTH 488 0
DWIDTH 38 0
BBX 38 55 -1 -1
BITMAP
0002000000
001E000000
00FE000000
03FE000000
0FFE000000
3FFE000000
FFFE000000
7FFE000000
3FFE000000
1FFE000000
0FFE000000
07FE000000
03FE000000
03FE000000
03FE000000
03FE000000
03FE000000
03FE7FF000
03FFFFFC00
03FFFFFF00
03FFFFFF80
03FFFFFFC0
03FFFFFFC0
03FFFFFFE0
03FFFFFFE0
03FFC0FFF0
03FE007FF0
03FE003FF8
03FE001FF8
03FE001FF8
03FE001FF8
03FE001FF8
03FE000FF8
03FE000FF8
03FE000FFC
03FE000FFC
03FE000FFC
03FE000FFC
03FE000FF8
03FE000FF8
03FE001FF8
03FE001FF8
03FE001FF8
03FE003FF0
03FE007FF0
03FE00FFF0
03FF87FFE0
03FFFFFFE0
03FFFFFFC0
03FFFFFF80
03FFFFFF00
03FFFFFE00
03FFFFFC00
00FFFFE000
0003FF0000
ENDCHAR
STARTCHAR 0185
ENCODING 389
SWIDTH 488 0
DWIDTH 38 0
BBX 36 49 0 0
BITMAP
0002000000
001E000000
00FE000000
03FE000000
0FFE000000
3FFE000000
FFFE000000
7FFE000000
7FFE000000
3FFE000000
1FFE000000
0FFE000000
07FE000000
03FE000000
03FE000000
03FE000000
03FE000000
03FE000000
03FE000000
03FFFFC000
03FFFFF800
03FFFFFE00
03FFFFFF00
03FFFFFF80
03FFFFFFC0
03FFFFFFE0
03FFFFFFE0
03FE01FFE0
03FE007FF0
03FE003FF0
03FE003FF0
03FE001FF0
03FE001FF0
03FE001FF0
03FE001FF0
03FE001FF0
03FE003FF0
03FE003FF0
03FE003FF0
03FE007FF0
03FE01FFE0
03FFFFFFE0
03FFFFFFC0
03FFFFFFC0
03FFFFFF80
03FFFFFF00
03FFFFFC00
03FFFFF000
01FFFFC000
ENDCHAR
STARTCHAR 0186
ENCODING 390
SWIDTH 488 0
DWIDTH 38 0
BBX 34 50 2 -1
BITMAP
01FFF00000
0FFFFE0000
3FFFFF8000
FFFFFFC000
7FFFFFE000
7FFFFFF000
7FFFFFF800
3FFFFFFC00
3F80FFFE00
38003FFE00
00000FFF00
000007FF00
000003FF80
000003FF80
000001FF80
000001FF80
000000FFC0
000000FFC0
000000FFC0
000000FFC0
000000FFC0
0000007FC0
0000007FC0
0000007FC0
0000007FC0
0000007FC0
0000007FC0
0000007FC0
0000007FC0
000000FFC0
000000FFC0
000000FFC0
000000FFC0
000000FFC0
000001FF80
000001FF80
000003FF80
000003FF00
000007FF00
20000FFF00
38003FFE00
3FC1FFFC00
7FFFFFFC00
7FFFFFF800
7FFFFFF000
FFFFFFE000
FFFFFFC000
3FFFFF0000
0FFFFC0000
00FFE00000
ENDCHAR
STARTCHAR 0187
ENCODING 391
SWIDTH 488 0
DWIDTH 38 0
BBX 39 56 2 -1
BITMAP
00000000E0
00000007FE
0000000FFE
0000001FFC
0000003FFC
0000003FFC
0003FFFFFC
000FFFFFF8
003FFFFF80
00FFFFFE00
01FFFFFC00
03FFFFFC00
07FFFFFC00
07FFFFF800
0FFFC0F800
1FFE001800
1FFC000000
3FF8000000
3FF8000000
3FF0000000
7FF0000000
7FE0000000
7FE0000000
7FE0000000
7FC0000000
FFC0000000
FFC0000000
FFC0000000
FFC0000000
FFC0000000
FFC0000000
FFC0000000
FFC0000000
FFC0000000
FFC0000000
FFC0000000
FFC0000000
7FC0000000
7FE0000000
7FE0000000
7FE0000000
7FE0000000
3FF0000000
3FF0000000
3FF8000000
1FFC000000
1FFE003C00
0FFFC1FC00
07FFFFFC00
07FFFFFE00
03FFFFFE00
01FFFFFE00
00FFFFFF00
003FFFFC00
000FFFF000
0001FF0000
ENDCHAR
STARTCHAR 0188
ENCODING 392
SWIDTH 488 0
DWIDTH 38 0
BBX 37 44 3 -1
BITMAP
0000001FF0
0000003FF8
0000007FF8
000000FFF8
000000FFF0
000001FFF0
000FFFFFF0
003FFFFF70
00FFFFFC00
01FFFFF800
03FFFFF000
07FFFFF000
0FFFFFF000
1FFFFFE000
1FFF006000
3FFC000000
3FF8000000
7FF0000000
7FE0000000
7FE0000000
FFC0000000
FFC0000000
FFC0000000
FFC0000000
FFC0000000
FFC0000000
FFC0000000
FFC0000000
FFC0000000
7FC0000000
7FE0000000
7FE0000000
7FF0000000
3FF8000000
3FFE001000
1FFFF7F800
1FFFFFF800
0FFFFFF800
07FFFFF800
03FFFFF800
01FFFFF800
00FFFFFC00
003FFFF800
0003FF8000
ENDCHAR
STARTCHAR 0189
ENCODING 393
SWIDTH 488 0
DWIDTH 38 0
BBX 36 50 1 -1
BITMAP
001FC00000
07FFFE0000
07FFFFC000
07FFFFE000
07FFFFF800
07FFFFFC00
07FFFFFE00
07FFFFFE00
07FFFFFF00
07FC0FFF80
07FC03FF80
07FC01FFC0
07FC00FFC0
07FC00FFC0
07FC007FE0
07FC007FE0
07FC007FE0
07FC007FE0
07FC003FE0
07FC003FE0
FFFFF03FF0
FFFFF03FF0
FFFFF03FF0
FFFFF03FF0
FFFFF03FF0
FFFFF03FF0
FFFFF03FF0
FFFFF03FF0
07FC003FF0
07FC003FF0
07FC003FE0
07FC007FE0
07FC007FE0
07FC007FE0
07FC007FE0
07FC00FFC0
07FC00FFC0
07FC01FFC0
07FC03FF80
07FC07FF80
07FC0FFF00
07FFFFFF00
07FFFFFE00
07FFFFFC00
07FFFFF800
07FFFFF000
07FFFFE000
07FFFF8000
07FFFC0000
000F000000
ENDCHAR
STARTCHAR 018A
ENCODING 394
SWIDTH 488 0
DWIDTH 38 0
BBX 37 50 0 -1
BITMAP
0002FE0000
00FFFFE000
07FFFFF800
0FFFFFFC00
1FFFFFFF00
3FFFFFFF80
7FFFFFFF80
7FFFFFFFC0
FF8FF07FE0
FF0FF03FE0
FE0FF01FE0
FE0FF01FF0
FE0FF00FF0
FE0FF00FF0
FF0FF00FF8
7F0FF007F8
700FF007F8
000FF007F8
000FF007F8
000FF007F8
000FF007F8
000FF007F8
000FF007F8
000FF007F8
000FF007F8
000FF007F8
000FF007F8
000FF007F8
000FF007F8
000FF007F8
000FF007F8
000FF007F8
000FF007F8
000FF007F8
000FF00FF8
000FF00FF0
000FF00FF0
000FF00FF0
000FF01FF0
000FF03FE0
000FF07FE0
000FFFFFC0
000FFFFFC0
000FFFFF80
000FFFFF00
000FFFFE00
000FFFFC00
000FFFF000
000FFFC000
0000100000
ENDCHAR
ENDFONT
